SplineFontDB: 3.0
FontName: Inika
FullName: Inika
FamilyName: Inika
Weight: Book
Copyright: Copyright (c) 2011 by Constanza Artigas Preller. All rights reserved.
Version: 1.001
ItalicAngle: 0
UnderlinePosition: -50
UnderlineWidth: 50
Ascent: 800
Descent: 200
sfntRevision: 0x00010042
LayerCount: 2
Layer: 0 1 "Back"  1
Layer: 1 1 "Fore"  0
XUID: [1021 950 700734675 7803039]
FSType: 0
OS2Version: 2
OS2_WeightWidthSlopeOnly: 0
OS2_UseTypoMetrics: 1
CreationTime: 1325880177
ModificationTime: 1325881673
PfmFamily: 17
TTFWeight: 400
TTFWidth: 5
LineGap: 0
VLineGap: 0
Panose: 2 0 0 0 0 0 0 0 0 0
OS2TypoAscent: 206
OS2TypoAOffset: 1
OS2TypoDescent: -97
OS2TypoDOffset: 1
OS2TypoLinegap: 0
OS2WinAscent: 0
OS2WinAOffset: 1
OS2WinDescent: 8
OS2WinDOffset: 1
HheadAscent: 0
HheadAOffset: 1
HheadDescent: -8
HheadDOffset: 1
OS2SubXSize: 700
OS2SubYSize: 650
OS2SubXOff: 0
OS2SubYOff: 140
OS2SupXSize: 700
OS2SupYSize: 650
OS2SupXOff: 0
OS2SupYOff: 477
OS2StrikeYSize: 50
OS2StrikeYPos: 250
OS2Vendor: 'pyrs'
OS2CodePages: 20000011.00000000
OS2UnicodeRanges: 00000023.00000000.00000000.00000000
Lookup: 258 0 0 "'kern' Horizontal Kerning in Latin lookup 0"  {"'kern' Horizontal Kerning in Latin lookup 0 subtable"  } ['kern' ('latn' <'dflt' > ) ]
DEI: 91125
TtTable: prep
PUSHW_1
 511
SCANCTRL
PUSHB_1
 4
SCANTYPE
EndTTInstrs
ShortTable: maxp 16
  1
  0
  306
  113
  7
  74
  4
  2
  0
  1
  1
  0
  64
  0
  2
  1
EndShort
LangName: 1033 "" "" "Regular" "ConstanzaArtigasPreller: Inika-Regular: 2011" "" "Version 1.001" "" "" "Constanza Artigas Preller" "Constanza Artigas Preller" "" "" "" "This Font Software is licensed under the SIL Open Font License, Version 1.1. This license is available with a FAQ at: http://scripts.sil.org/OFL" "http://scripts.sil.org/OFL" 
GaspTable: 1 65535 15 1
Encoding: UnicodeBmp
UnicodeInterp: none
NameList: Adobe Glyph List
DisplaySize: -24
AntiAlias: 1
FitToEm: 1
BeginChars: 65538 306

StartChar: exclam
Encoding: 33 33 4
Width: 291
GlyphClass: 2
Flags: W
LayerCount: 2
Fore
SplineSet
93 2 m 1,0,1
 91 14 91 14 91 43 c 128,-1,2
 91 72 91 72 97 98 c 1,3,4
 125 100 125 100 149.5 100 c 128,-1,5
 174 100 174 100 196 95 c 1,6,7
 198 81 198 81 198 52.5 c 128,-1,8
 198 24 198 24 192 -4 c 1,9,10
 168 -7 168 -7 140 -7 c 128,-1,11
 112 -7 112 -7 93 2 c 1,0,1
173 157 m 1,12,13
 167 156 167 156 150 156 c 128,-1,14
 133 156 133 156 119 158 c 1,15,-1
 95 720 l 1,16,17
 125 722 125 722 145 722 c 128,-1,18
 165 722 165 722 187 717 c 1,19,-1
 173 157 l 1,12,13
EndSplineSet
EndChar

StartChar: quotedbl
Encoding: 34 34 5
Width: 406
GlyphClass: 2
Flags: W
LayerCount: 2
Fore
SplineSet
180 672 m 0,0,1
 180 560 180 560 156 512 c 1,2,3
 144 508 144 508 127 508 c 1,4,-1
 116 509 l 1,5,6
 118 522 118 522 118 549 c 0,7,8
 118 634 118 634 75 732 c 1,9,10
 97 737 97 737 121.5 737 c 128,-1,11
 146 737 146 737 174 735 c 1,12,13
 180 707 180 707 180 672 c 0,0,1
355 672 m 0,14,15
 355 560 355 560 331 512 c 1,16,17
 319 508 319 508 302 508 c 1,18,-1
 291 509 l 1,19,20
 293 522 293 522 293 549 c 0,21,22
 293 634 293 634 250 732 c 1,23,24
 272 737 272 737 296.5 737 c 128,-1,25
 321 737 321 737 349 735 c 1,26,27
 355 707 355 707 355 672 c 0,14,15
EndSplineSet
EndChar

StartChar: numbersign
Encoding: 35 35 6
Width: 667
GlyphClass: 2
Flags: W
LayerCount: 2
Fore
SplineSet
629 520 m 1,0,1
 631 505 631 505 631 487.5 c 128,-1,2
 631 470 631 470 629 461 c 1,3,4
 577 456 577 456 531 456 c 2,5,-1
 489 456 l 1,6,-1
 465 261 l 1,7,-1
 601 260 l 1,8,9
 603 245 603 245 603 227.5 c 128,-1,10
 603 210 603 210 601 201 c 1,11,12
 549 196 549 196 503 196 c 2,13,-1
 457 196 l 1,14,-1
 433 0 l 1,15,16
 426 -2 426 -2 410 -2 c 1,17,-1
 379 0 l 1,18,-1
 396 196 l 1,19,20
 294 198 294 198 227 198 c 1,21,-1
 203 0 l 1,22,23
 196 -2 196 -2 180 -2 c 1,24,-1
 149 0 l 1,25,-1
 166 199 l 1,26,-1
 28 201 l 1,27,28
 26 210 26 210 26 228 c 1,29,-1
 28 260 l 1,30,31
 80 265 80 265 126 265 c 2,32,-1
 172 265 l 1,33,-1
 189 459 l 1,34,-1
 56 461 l 1,35,36
 54 470 54 470 54 488 c 1,37,-1
 56 520 l 1,38,39
 108 525 108 525 154 525 c 2,40,-1
 194 525 l 1,41,-1
 210 699 l 1,42,43
 237 702 237 702 258 702 c 128,-1,44
 279 702 279 702 290 701 c 1,45,-1
 268 524 l 1,46,47
 320 524 320 524 424 522 c 1,48,-1
 440 699 l 1,49,50
 455 702 455 702 482 702 c 128,-1,51
 509 702 509 702 520 701 c 1,52,-1
 497 521 l 1,53,-1
 629 520 l 1,0,1
419 457 m 1,54,-1
 260 458 l 1,55,-1
 235 264 l 1,56,-1
 402 262 l 1,57,-1
 419 457 l 1,54,-1
EndSplineSet
EndChar

StartChar: dollar
Encoding: 36 36 7
Width: 503
GlyphClass: 2
Flags: W
LayerCount: 2
Fore
SplineSet
151 69 m 1,0,1
 199 48 199 48 247 48 c 128,-1,2
 295 48 295 48 326.5 70.5 c 128,-1,3
 358 93 358 93 358 128 c 128,-1,4
 358 163 358 163 329.5 186.5 c 128,-1,5
 301 210 301 210 260 228 c 128,-1,6
 219 246 219 246 178 266.5 c 128,-1,7
 137 287 137 287 108.5 320 c 128,-1,8
 80 353 80 353 80 396 c 0,9,10
 80 463 80 463 119.5 503.5 c 128,-1,11
 159 544 159 544 225 551 c 1,12,-1
 225 677 l 1,13,14
 234 680 234 680 259.5 680 c 128,-1,15
 285 680 285 680 291 678 c 1,16,-1
 286 551 l 1,17,18
 365 544 365 544 424 514 c 1,19,20
 425 503 425 503 425 456.5 c 128,-1,21
 425 410 425 410 416 378 c 1,22,23
 395 369 395 369 355 369 c 1,24,-1
 320 481 l 1,25,26
 296 492 296 492 256.5 492 c 128,-1,27
 217 492 217 492 192.5 470 c 128,-1,28
 168 448 168 448 168 417 c 128,-1,29
 168 386 168 386 197 362 c 128,-1,30
 226 338 226 338 267 319.5 c 128,-1,31
 308 301 308 301 349 280.5 c 128,-1,32
 390 260 390 260 419 226 c 128,-1,33
 448 192 448 192 448 149 c 0,34,35
 448 80 448 80 401.5 38.5 c 128,-1,36
 355 -3 355 -3 281 -11 c 1,37,-1
 281 -127 l 1,38,39
 275 -129 275 -129 259.5 -129 c 128,-1,40
 244 -129 244 -129 234 -127 c 1,41,-1
 230 -12 l 1,42,43
 129 -7 129 -7 60 42 c 1,44,45
 60 109 60 109 73 170 c 1,46,47
 91 173 91 173 139 173 c 1,48,-1
 151 69 l 1,0,1
EndSplineSet
EndChar

StartChar: percent
Encoding: 37 37 8
Width: 852
GlyphClass: 2
Flags: W
LayerCount: 2
Fore
SplineSet
82.5 695.5 m 128,-1,1
 125 749 125 749 209.5 749 c 128,-1,2
 294 749 294 749 338 697 c 128,-1,3
 382 645 382 645 382 555.5 c 128,-1,4
 382 466 382 466 338 409.5 c 128,-1,5
 294 353 294 353 210 353 c 0,6,7
 40 353 40 353 40 550 c 0,8,0
 40 642 40 642 82.5 695.5 c 128,-1,1
700 692 m 1,9,-1
 178 -12 l 1,10,11
 166 -7 166 -7 140 17 c 1,12,-1
 635 736 l 1,13,14
 670 722 670 722 700 692 c 1,9,-1
210 404 m 128,-1,16
 236 404 236 404 254 414 c 128,-1,17
 272 424 272 424 281 436.5 c 128,-1,18
 290 449 290 449 294 472 c 0,19,20
 300 501 300 501 300 537.5 c 128,-1,21
 300 574 300 574 299.5 587.5 c 128,-1,22
 299 601 299 601 294 625 c 128,-1,23
 289 649 289 649 280.5 662.5 c 128,-1,24
 272 676 272 676 254 687 c 128,-1,25
 236 698 236 698 210 698 c 128,-1,26
 184 698 184 698 166 689 c 128,-1,27
 148 680 148 680 139 668.5 c 128,-1,28
 130 657 130 657 125 634 c 0,29,30
 119 608 119 608 119 568 c 128,-1,31
 119 528 119 528 119.5 513 c 128,-1,32
 120 498 120 498 125 473.5 c 128,-1,33
 130 449 130 449 139 436.5 c 128,-1,34
 148 424 148 424 166 414 c 128,-1,15
 184 404 184 404 210 404 c 128,-1,16
497.5 329.5 m 128,-1,36
 540 383 540 383 624.5 383 c 128,-1,37
 709 383 709 383 753 331 c 128,-1,38
 797 279 797 279 797 189.5 c 128,-1,39
 797 100 797 100 753 43.5 c 128,-1,40
 709 -13 709 -13 625 -13 c 0,41,42
 455 -13 455 -13 455 184 c 0,43,35
 455 276 455 276 497.5 329.5 c 128,-1,36
625 38 m 128,-1,45
 651 38 651 38 669 48 c 128,-1,46
 687 58 687 58 696 70.5 c 128,-1,47
 705 83 705 83 710 106 c 1,48,49
 715 135 715 135 715 171.5 c 128,-1,50
 715 208 715 208 714.5 221.5 c 128,-1,51
 714 235 714 235 709 259 c 128,-1,52
 704 283 704 283 695.5 296.5 c 128,-1,53
 687 310 687 310 669 321 c 128,-1,54
 651 332 651 332 625 332 c 128,-1,55
 599 332 599 332 581 323 c 128,-1,56
 563 314 563 314 554 302.5 c 128,-1,57
 545 291 545 291 540 268 c 0,58,59
 534 242 534 242 534 202 c 128,-1,60
 534 162 534 162 534.5 147 c 128,-1,61
 535 132 535 132 540 107.5 c 128,-1,62
 545 83 545 83 554 70.5 c 128,-1,63
 563 58 563 58 581 48 c 128,-1,44
 599 38 599 38 625 38 c 128,-1,45
EndSplineSet
EndChar

StartChar: ampersand
Encoding: 38 38 9
Width: 728
GlyphClass: 2
Flags: W
LayerCount: 2
Fore
SplineSet
163.5 283.5 m 128,-1,1
 134 244 134 244 134 201.5 c 128,-1,2
 134 159 134 159 152 128 c 128,-1,3
 170 97 170 97 197 82 c 0,4,5
 248 52 248 52 297 52 c 0,6,7
 400 52 400 52 469 134 c 1,8,-1
 239 344 l 1,9,0
 193 323 193 323 163.5 283.5 c 128,-1,1
293 -12 m 0,10,11
 178 -12 178 -12 109 42 c 128,-1,12
 40 96 40 96 40 198 c 0,13,14
 40 266 40 266 82.5 317 c 128,-1,15
 125 368 125 368 181 393 c 1,16,17
 144 434 144 434 127.5 469 c 128,-1,18
 111 504 111 504 111 553 c 0,19,20
 111 622 111 622 163.5 667 c 128,-1,21
 216 712 216 712 307 712 c 0,22,23
 356 712 356 712 401.5 691 c 128,-1,24
 447 670 447 670 473 645 c 1,25,-1
 456 546 l 1,26,27
 445 542 445 542 428 542 c 2,28,-1
 409 543 l 1,29,-1
 384 646 l 1,30,31
 355 654 355 654 307 654 c 128,-1,32
 259 654 259 654 235 624 c 128,-1,33
 211 594 211 594 211 564 c 128,-1,34
 211 534 211 534 223.5 508 c 128,-1,35
 236 482 236 482 249.5 466.5 c 128,-1,36
 263 451 263 451 296 418 c 0,37,38
 327 386 327 386 506 189 c 1,39,40
 544 256 544 256 544 391 c 0,41,42
 544 420 544 420 542 438 c 1,43,-1
 458 446 l 1,44,45
 458 474 458 474 475 506 c 1,46,-1
 705 506 l 1,47,-1
 708 471 l 1,48,49
 662 455 662 455 616 447 c 1,50,51
 615 389 615 389 596.5 295 c 128,-1,52
 578 201 578 201 547 153 c 1,53,-1
 676 11 l 1,54,55
 660 -18 660 -18 636 -18 c 1,56,-1
 506 94 l 1,57,58
 469 52 469 52 405.5 20 c 128,-1,59
 342 -12 342 -12 293 -12 c 0,10,11
EndSplineSet
EndChar

StartChar: quotesingle
Encoding: 39 39 10
Width: 205
GlyphClass: 2
Flags: W
LayerCount: 2
Fore
SplineSet
155 672 m 0,0,1
 155 560 155 560 131 512 c 1,2,3
 119 508 119 508 102 508 c 1,4,-1
 91 509 l 1,5,6
 93 522 93 522 93 549 c 0,7,8
 93 634 93 634 50 732 c 1,9,10
 72 737 72 737 96.5 737 c 128,-1,11
 121 737 121 737 149 735 c 1,12,13
 155 707 155 707 155 672 c 0,0,1
EndSplineSet
EndChar

StartChar: parenleft
Encoding: 40 40 11
Width: 326
GlyphClass: 2
Flags: W
LayerCount: 2
Fore
SplineSet
184 401.5 m 128,-1,1
 162 312 162 312 162 245 c 128,-1,2
 162 178 162 178 184 87.5 c 128,-1,3
 206 -3 206 -3 230 -65.5 c 128,-1,4
 254 -128 254 -128 311 -262 c 1,5,6
 282 -284 282 -284 262 -289 c 1,7,8
 195 -203 195 -203 132.5 -44.5 c 128,-1,9
 70 114 70 114 70 244.5 c 128,-1,10
 70 375 70 375 132.5 533.5 c 128,-1,11
 195 692 195 692 262 778 c 1,12,13
 282 773 282 773 311 751 c 1,14,15
 254 616 254 616 230 553.5 c 128,-1,0
 206 491 206 491 184 401.5 c 128,-1,1
EndSplineSet
EndChar

StartChar: parenright
Encoding: 41 41 12
Width: 326
GlyphClass: 2
Flags: W
LayerCount: 2
Fore
SplineSet
142 87.5 m 128,-1,1
 164 178 164 178 164 245 c 128,-1,2
 164 312 164 312 142 401.5 c 128,-1,3
 120 491 120 491 96 553.5 c 128,-1,4
 72 616 72 616 15 751 c 1,5,6
 44 773 44 773 64 778 c 1,7,8
 131 692 131 692 193.5 533.5 c 128,-1,9
 256 375 256 375 256 244.5 c 128,-1,10
 256 114 256 114 193.5 -44.5 c 128,-1,11
 131 -203 131 -203 64 -289 c 1,12,13
 44 -284 44 -284 15 -262 c 1,14,15
 72 -128 72 -128 96 -65.5 c 128,-1,0
 120 -3 120 -3 142 87.5 c 128,-1,1
EndSplineSet
EndChar

StartChar: asterisk
Encoding: 42 42 13
Width: 430
GlyphClass: 2
Flags: W
LayerCount: 2
Fore
SplineSet
209 730 m 1,0,1
 232 736 232 736 251 736 c 128,-1,2
 270 736 270 736 282 733 c 1,3,4
 287 730 287 730 291 709 c 1,5,6
 277 672 277 672 232 593 c 1,7,8
 332 648 332 648 346 652 c 1,9,10
 377 620 377 620 385 590 c 1,11,12
 385 583 385 583 369 571 c 1,13,14
 313 563 313 563 238 563 c 1,15,16
 334 507 334 507 347 494 c 1,17,18
 335 451 335 451 313 429 c 0,19,20
 311 428 311 428 309 428 c 2,21,-1
 288 434 l 1,22,23
 267 460 267 460 217 541 c 1,24,25
 215 435 215 435 211 414 c 1,26,27
 188 408 188 408 169 408 c 128,-1,28
 150 408 150 408 138 411 c 1,29,30
 133 414 133 414 129 435 c 1,31,32
 141 466 141 466 186 549 c 1,33,34
 93 497 93 497 74 492 c 1,35,36
 43 524 43 524 35 554 c 1,37,38
 35 561 35 561 51 573 c 1,39,40
 91 580 91 580 179 580 c 1,41,42
 87 636 87 636 73 650 c 1,43,44
 85 693 85 693 107 715 c 0,45,46
 109 716 109 716 111 716 c 2,47,-1
 132 710 l 1,48,49
 156 681 156 681 202 602 c 1,50,51
 204 710 204 710 209 730 c 1,0,1
EndSplineSet
EndChar

StartChar: plus
Encoding: 43 43 14
Width: 526
GlyphClass: 2
Flags: W
LayerCount: 2
Fore
SplineSet
149 297 m 2,0,-1
 222 296 l 1,1,-1
 227 508 l 1,2,3
 241 511 241 511 255 511 c 1,4,-1
 288 508 l 1,5,6
 300 444 300 444 300 391 c 128,-1,7
 300 338 300 338 299 294 c 1,8,-1
 498 290 l 1,9,10
 500 280 500 280 500 261 c 1,11,-1
 498 231 l 1,12,13
 434 219 434 219 384.5 219 c 128,-1,14
 335 219 335 219 297 220 c 1,15,-1
 293 0 l 1,16,17
 283 -2 283 -2 264 -2 c 1,18,-1
 232 0 l 1,19,20
 220 64 220 64 220 118.5 c 128,-1,21
 220 173 220 173 221 221 c 1,22,-1
 28 226 l 1,23,24
 25 240 25 240 25 253 c 1,25,-1
 28 285 l 1,26,27
 92 297 92 297 149 297 c 2,0,-1
EndSplineSet
EndChar

StartChar: comma
Encoding: 44 44 15
Width: 210
GlyphClass: 2
Flags: W
LayerCount: 2
Fore
SplineSet
149 102 m 1,0,1
 155 74 155 74 155 30 c 128,-1,2
 155 -14 155 -14 120.5 -65 c 128,-1,3
 86 -116 86 -116 57 -134 c 1,4,5
 40 -127 40 -127 25 -111 c 1,6,7
 36 -78 36 -78 88 -18 c 0,8,9
 100 -4 100 -4 102 -2 c 1,10,11
 67 -2 67 -2 54 0 c 1,12,13
 48 20 48 20 48 52.5 c 128,-1,14
 48 85 48 85 50 99 c 1,15,16
 72 104 72 104 96.5 104 c 128,-1,17
 121 104 121 104 149 102 c 1,0,1
EndSplineSet
EndChar

StartChar: hyphen
Encoding: 45 45 16
Width: 327
GlyphClass: 2
Flags: W
LayerCount: 2
Fore
SplineSet
280 282 m 1,0,1
 282 266 282 266 282 255 c 2,2,-1
 280 220 l 1,3,4
 228 215 228 215 182 215 c 1,5,-1
 48 220 l 1,6,7
 46 227 46 227 46 246 c 1,8,-1
 48 282 l 1,9,10
 100 287 100 287 146 287 c 1,11,-1
 280 282 l 1,0,1
EndSplineSet
EndChar

StartChar: period
Encoding: 46 46 17
Width: 208
GlyphClass: 2
Flags: W
LayerCount: 2
Fore
SplineSet
156 3 m 1,0,1
 130 -3 130 -3 105.5 -3 c 128,-1,2
 81 -3 81 -3 57 0 c 1,3,4
 51 28 51 28 51 56.5 c 128,-1,5
 51 85 51 85 53 99 c 1,6,7
 75 104 75 104 99.5 104 c 128,-1,8
 124 104 124 104 152 102 c 1,9,10
 158 76 158 76 158 51.5 c 128,-1,11
 158 27 158 27 156 3 c 1,0,1
EndSplineSet
EndChar

StartChar: slash
Encoding: 47 47 18
Width: 407
GlyphClass: 2
Flags: W
LayerCount: 2
Fore
SplineSet
290 700 m 1,0,1
 317 703 317 703 331 703 c 128,-1,2
 345 703 345 703 377 698 c 1,3,-1
 103 0 l 1,4,5
 82 -4 82 -4 64 -4 c 128,-1,6
 46 -4 46 -4 30 -2 c 1,7,-1
 290 700 l 1,0,1
EndSplineSet
EndChar

StartChar: zero
Encoding: 48 48 19
Width: 527
GlyphClass: 2
Flags: W
LayerCount: 2
Fore
SplineSet
272 553 m 0,0,1
 391 553 391 553 447.5 479.5 c 128,-1,2
 504 406 504 406 504 275.5 c 128,-1,3
 504 145 504 145 447.5 66 c 128,-1,4
 391 -13 391 -13 271 -13 c 128,-1,5
 151 -13 151 -13 97.5 57.5 c 128,-1,6
 44 128 44 128 44 269 c 0,7,8
 44 553 44 553 272 553 c 0,0,1
195 65.5 m 128,-1,10
 225 48 225 48 267.5 48 c 128,-1,11
 310 48 310 48 337 61 c 128,-1,12
 364 74 364 74 378.5 92 c 128,-1,13
 393 110 393 110 400 142 c 0,14,15
 412 192 412 192 412 270 c 0,16,17
 412 491 412 491 272 491 c 0,18,19
 234 491 234 491 206.5 477 c 128,-1,20
 179 463 179 463 165 443 c 128,-1,21
 151 423 151 423 143 392 c 0,22,23
 131 344 131 344 131 284 c 128,-1,24
 131 224 131 224 135 189.5 c 128,-1,25
 139 155 139 155 152 119 c 128,-1,9
 165 83 165 83 195 65.5 c 128,-1,10
EndSplineSet
EndChar

StartChar: one
Encoding: 49 49 20
Width: 360
GlyphClass: 2
Flags: W
LayerCount: 2
Fore
SplineSet
252 509 m 1,0,1
 252 509 252 509 240 68 c 1,2,-1
 330 60 l 1,3,4
 330 32 330 32 313 0 c 1,5,-1
 50 0 l 1,6,-1
 48 34 l 1,7,8
 82 44 82 44 167 59 c 1,9,10
 165 125 165 125 162 256.5 c 128,-1,11
 159 388 159 388 157 454 c 1,12,13
 76 417 76 417 44 414 c 1,14,15
 27 442 27 442 25 476 c 1,16,-1
 220 542 l 1,17,18
 250 520 250 520 252 509 c 1,0,1
EndSplineSet
EndChar

StartChar: two
Encoding: 50 50 21
Width: 453
GlyphClass: 2
Flags: W
LayerCount: 2
Fore
SplineSet
343 154 m 1,0,1
 350 155 350 155 360 155 c 0,2,3
 378 155 378 155 395 150 c 1,4,5
 407 90 407 90 407 0 c 1,6,-1
 57 0 l 1,7,8
 45 21 45 21 45 37.5 c 128,-1,9
 45 54 45 54 46 58 c 1,10,11
 253 255 253 255 269 272.5 c 128,-1,12
 285 290 285 290 301.5 325 c 128,-1,13
 318 360 318 360 318 395.5 c 128,-1,14
 318 431 318 431 290.5 461 c 128,-1,15
 263 491 263 491 207 491 c 0,16,17
 176 491 176 491 154 485 c 1,18,-1
 130 362 l 1,19,20
 120 361 120 361 108 361 c 128,-1,21
 96 361 96 361 72 365 c 1,22,23
 56 408 56 408 55 484 c 1,24,25
 80 508 80 508 126.5 529.5 c 128,-1,26
 173 551 173 551 215 551 c 0,27,28
 303 551 303 551 356.5 506.5 c 128,-1,29
 410 462 410 462 410 409 c 0,30,31
 410 341 410 341 381.5 291 c 128,-1,32
 353 241 353 241 287 185 c 2,33,-1
 153 71 l 1,34,-1
 156 59 l 1,35,-1
 331 60 l 1,36,37
 336 128 336 128 343 154 c 1,0,1
EndSplineSet
EndChar

StartChar: three
Encoding: 51 51 22
Width: 474
GlyphClass: 2
Flags: W
LayerCount: 2
Fore
SplineSet
311 387 m 0,0,1
 311 494 311 494 189 494 c 0,2,3
 169 494 169 494 143 487 c 1,4,-1
 119 363 l 1,5,6
 80 363 80 363 61 366 c 1,7,8
 44 416 44 416 44 485 c 1,9,10
 65 509 65 509 113.5 530.5 c 128,-1,11
 162 552 162 552 198 552 c 0,12,13
 287 552 287 552 344.5 507.5 c 128,-1,14
 402 463 402 463 402 401 c 0,15,16
 402 293 402 293 274 238 c 1,17,18
 335 238 335 238 382.5 200 c 128,-1,19
 430 162 430 162 430 91 c 128,-1,20
 430 20 430 20 388 -33.5 c 128,-1,21
 346 -87 346 -87 290.5 -111.5 c 128,-1,22
 235 -136 235 -136 168.5 -136 c 128,-1,23
 102 -136 102 -136 29 -111 c 1,24,25
 31 -73 31 -73 41 -58 c 1,26,27
 44 -58 44 -58 60 -62 c 128,-1,28
 76 -66 76 -66 88 -68 c 0,29,30
 122 -74 122 -74 147 -74 c 128,-1,31
 172 -74 172 -74 182.5 -73 c 128,-1,32
 193 -72 193 -72 215.5 -68 c 128,-1,33
 238 -64 238 -64 257.5 -54 c 128,-1,34
 277 -44 277 -44 296 -30 c 0,35,36
 338 3 338 3 338 65.5 c 128,-1,37
 338 128 338 128 299.5 159 c 128,-1,38
 261 190 261 190 195 190 c 0,39,40
 179 190 179 190 136 186 c 1,41,42
 132 191 132 191 132 209.5 c 128,-1,43
 132 228 132 228 135 245 c 1,44,-1
 179 251 l 2,45,46
 233 258 233 258 272 295.5 c 128,-1,47
 311 333 311 333 311 387 c 0,0,1
EndSplineSet
EndChar

StartChar: four
Encoding: 52 52 23
Width: 532
GlyphClass: 2
Flags: W
LayerCount: 2
Fore
SplineSet
329 99 m 1,0,-1
 319 461 l 1,1,-1
 100 97 l 1,2,3
 252 99 252 99 329 99 c 1,0,-1
414 540 m 1,4,-1
 404 99 l 1,5,6
 441 99 441 99 513 97 c 1,7,8
 513 55 513 55 503 36 c 1,9,-1
 403 36 l 1,10,-1
 396 -131 l 1,11,12
 381 -134 381 -134 366 -134 c 128,-1,13
 351 -134 351 -134 338 -130 c 1,14,-1
 330 36 l 1,15,-1
 27 36 l 1,16,17
 15 53 15 53 15 71.5 c 128,-1,18
 15 90 15 90 16 91 c 2,19,-1
 282 540 l 1,20,-1
 414 540 l 1,4,-1
EndSplineSet
EndChar

StartChar: five
Encoding: 53 53 24
Width: 451
GlyphClass: 2
Flags: W
LayerCount: 2
Fore
SplineSet
212 291 m 0,0,1
 311 291 311 291 370.5 235.5 c 128,-1,2
 430 180 430 180 430 83.5 c 128,-1,3
 430 -13 430 -13 353 -74.5 c 128,-1,4
 276 -136 276 -136 180.5 -136 c 128,-1,5
 85 -136 85 -136 29 -111 c 1,6,7
 29 -70 29 -70 42 -58 c 1,8,9
 86 -74 86 -74 164 -74 c 0,10,11
 247 -74 247 -74 292 -38 c 0,12,13
 311 -22 311 -22 325 8.5 c 128,-1,14
 339 39 339 39 339 80 c 0,15,16
 339 150 339 150 305 189.5 c 128,-1,17
 271 229 271 229 208 229 c 0,18,19
 160 229 160 229 129.5 221.5 c 128,-1,20
 99 214 99 214 96 214 c 1,21,22
 75 226 75 226 63 243 c 1,23,-1
 52 540 l 1,24,-1
 392 540 l 1,25,26
 392 453 392 453 380 390 c 1,27,28
 363 386 363 386 328 386 c 1,29,30
 322 410 322 410 316 480 c 1,31,-1
 142 480 l 1,32,-1
 139 281 l 1,33,34
 169 291 169 291 212 291 c 0,0,1
EndSplineSet
EndChar

StartChar: six
Encoding: 54 54 25
Width: 559
GlyphClass: 2
Flags: W
LayerCount: 2
Fore
SplineSet
147 319 m 1,0,1
 146 311 146 311 146 282 c 128,-1,2
 146 253 146 253 152 216 c 128,-1,3
 158 179 158 179 173 138.5 c 128,-1,4
 188 98 188 98 220 73 c 128,-1,5
 252 48 252 48 296 48 c 0,6,7
 366 48 366 48 398 95 c 128,-1,8
 430 142 430 142 430 219 c 128,-1,9
 430 296 430 296 403.5 335.5 c 128,-1,10
 377 375 377 375 302 375 c 128,-1,11
 227 375 227 375 147 319 c 1,0,1
307 437 m 0,12,13
 407 437 407 437 464.5 380.5 c 128,-1,14
 522 324 522 324 522 212.5 c 128,-1,15
 522 101 522 101 458.5 44 c 128,-1,16
 395 -13 395 -13 293 -13 c 0,17,18
 194 -13 194 -13 126 64 c 0,19,20
 91 103 91 103 71 174.5 c 128,-1,21
 51 246 51 246 51 332 c 128,-1,22
 51 418 51 418 73 482 c 128,-1,23
 95 546 95 546 131.5 589.5 c 128,-1,24
 168 633 168 633 216 664 c 0,25,26
 307 724 307 724 415 724 c 1,27,28
 427 712 427 712 427 671 c 1,29,30
 293 661 293 661 223.5 586.5 c 128,-1,31
 154 512 154 512 143 373 c 1,32,33
 171 399 171 399 222 418 c 128,-1,34
 273 437 273 437 307 437 c 0,12,13
EndSplineSet
EndChar

StartChar: seven
Encoding: 55 55 26
Width: 464
GlyphClass: 2
Flags: W
LayerCount: 2
Fore
SplineSet
22 494 m 0,0,1
 22 518 22 518 25 541 c 1,2,-1
 399 540 l 1,3,4
 419 520 419 520 419 486 c 1,5,6
 354 287 354 287 296 122.5 c 128,-1,7
 238 -42 238 -42 204 -139 c 1,8,9
 166 -134 166 -134 150 -120 c 1,10,-1
 329 480 l 1,11,-1
 123 480 l 1,12,-1
 98 358 l 1,13,14
 59 358 59 358 40 362 c 1,15,16
 22 420 22 420 22 494 c 0,0,1
EndSplineSet
EndChar

StartChar: eight
Encoding: 56 56 27
Width: 528
GlyphClass: 2
Flags: W
LayerCount: 2
Fore
SplineSet
486 194 m 0,0,1
 486 106 486 106 432 47 c 128,-1,2
 378 -12 378 -12 268 -12 c 0,3,4
 189 -12 189 -12 122 30 c 0,5,6
 88 51 88 51 66.5 92 c 128,-1,7
 45 133 45 133 45 188 c 0,8,9
 45 305 45 305 179 396 c 1,10,-1
 176 398 l 1,11,12
 113 428 113 428 87 465.5 c 128,-1,13
 61 503 61 503 61 579.5 c 128,-1,14
 61 656 61 656 116.5 703 c 128,-1,15
 172 750 172 750 269.5 750 c 128,-1,16
 367 750 367 750 421.5 701.5 c 128,-1,17
 476 653 476 653 476 577.5 c 128,-1,18
 476 502 476 502 443 460.5 c 128,-1,19
 410 419 410 419 345 382 c 1,20,21
 486 297 486 297 486 194 c 0,0,1
361 64 m 1,22,23
 394 128 394 128 394 188 c 128,-1,24
 394 248 394 248 358.5 285.5 c 128,-1,25
 323 323 323 323 232 370 c 1,26,27
 185 335 185 335 161 294 c 128,-1,28
 137 253 137 253 137 199 c 128,-1,29
 137 145 137 145 150 115.5 c 128,-1,30
 163 86 163 86 184 72 c 0,31,32
 224 46 224 46 261 46 c 0,33,34
 325 46 325 46 352 60 c 1,35,-1
 361 64 l 1,22,23
384 581 m 0,36,37
 384 689 384 689 268 689 c 0,38,39
 216 689 216 689 178 673 c 1,40,41
 153 628 153 628 153 580 c 0,42,43
 153 472 153 472 261 425 c 0,44,45
 267 423 267 423 294 409 c 1,46,47
 384 465 384 465 384 581 c 0,36,37
EndSplineSet
EndChar

StartChar: nine
Encoding: 57 57 28
Width: 523
GlyphClass: 2
Flags: W
LayerCount: 2
Fore
SplineSet
260 495 m 0,0,1
 124 495 124 495 124 324 c 0,2,3
 124 253 124 253 163 215.5 c 128,-1,4
 202 178 202 178 268 178 c 0,5,6
 287 178 287 178 326.5 195 c 128,-1,7
 366 212 366 212 384 224 c 1,8,9
 390 258 390 258 390 297.5 c 128,-1,10
 390 337 390 337 384 367.5 c 128,-1,11
 378 398 378 398 365 428.5 c 128,-1,12
 352 459 352 459 325 477 c 128,-1,13
 298 495 298 495 260 495 c 0,0,1
250 119 m 0,14,15
 151 119 151 119 92 180 c 128,-1,16
 33 241 33 241 33 335 c 128,-1,17
 33 429 33 429 92.5 491 c 128,-1,18
 152 553 152 553 259.5 553 c 128,-1,19
 367 553 367 553 423 483 c 128,-1,20
 479 413 479 413 479 288 c 0,21,22
 479 104 479 104 393 -14 c 0,23,24
 350 -73 350 -73 278 -105.5 c 128,-1,25
 206 -138 206 -138 110 -138 c 1,26,27
 103 -129 103 -129 103 -109 c 1,28,-1
 104 -94 l 1,29,30
 234 -84 234 -84 294 -22 c 128,-1,31
 354 40 354 40 374 164 c 1,32,33
 350 144 350 144 313.5 131.5 c 128,-1,34
 277 119 277 119 250 119 c 0,14,15
EndSplineSet
EndChar

StartChar: colon
Encoding: 58 58 29
Width: 238
GlyphClass: 2
Flags: W
LayerCount: 2
Fore
SplineSet
171 342 m 1,0,1
 145 336 145 336 120.5 336 c 128,-1,2
 96 336 96 336 72 339 c 1,3,4
 66 367 66 367 66 395.5 c 128,-1,5
 66 424 66 424 68 438 c 1,6,7
 90 443 90 443 114.5 443 c 128,-1,8
 139 443 139 443 167 441 c 1,9,10
 173 415 173 415 173 390.5 c 128,-1,11
 173 366 173 366 171 342 c 1,0,1
171 2 m 1,12,13
 145 -4 145 -4 120.5 -4 c 128,-1,14
 96 -4 96 -4 72 -1 c 1,15,16
 66 27 66 27 66 55.5 c 128,-1,17
 66 84 66 84 68 98 c 1,18,19
 90 103 90 103 114.5 103 c 128,-1,20
 139 103 139 103 167 101 c 1,21,22
 173 75 173 75 173 45 c 128,-1,23
 173 15 173 15 171 2 c 1,12,13
EndSplineSet
EndChar

StartChar: semicolon
Encoding: 59 59 30
Width: 235
GlyphClass: 2
Flags: W
LayerCount: 2
Fore
SplineSet
167 342 m 1,0,1
 141 336 141 336 116.5 336 c 128,-1,2
 92 336 92 336 68 339 c 1,3,4
 62 367 62 367 62 395.5 c 128,-1,5
 62 424 62 424 64 438 c 1,6,7
 86 443 86 443 110.5 443 c 128,-1,8
 135 443 135 443 163 441 c 1,9,10
 169 415 169 415 169 385 c 128,-1,11
 169 355 169 355 167 342 c 1,0,1
164 101 m 1,12,13
 170 73 170 73 170 29 c 128,-1,14
 170 -15 170 -15 135.5 -66 c 128,-1,15
 101 -117 101 -117 72 -135 c 1,16,17
 55 -128 55 -128 40 -112 c 1,18,19
 51 -79 51 -79 102 -20 c 0,20,21
 115 -5 115 -5 117 -3 c 1,22,23
 82 -3 82 -3 69 -1 c 1,24,25
 63 19 63 19 63 51.5 c 128,-1,26
 63 84 63 84 65 98 c 1,27,28
 87 103 87 103 111.5 103 c 128,-1,29
 136 103 136 103 164 101 c 1,12,13
EndSplineSet
EndChar

StartChar: less
Encoding: 60 60 31
Width: 441
GlyphClass: 2
Flags: W
LayerCount: 2
Fore
SplineSet
49 231 m 1,0,1
 46 243 46 243 46 258.5 c 128,-1,2
 46 274 46 274 49 280 c 1,3,4
 59 290 59 290 144.5 372 c 128,-1,5
 230 454 230 454 249 472 c 0,6,7
 284 503 284 503 346 545 c 1,8,-1
 386 501 l 1,9,10
 196 317 196 317 168.5 292 c 128,-1,11
 141 267 141 267 129 258 c 1,12,13
 161 232 161 232 163 230 c 2,14,-1
 386 16 l 1,15,-1
 346 -28 l 1,16,17
 292 8 292 8 260.5 35.5 c 128,-1,18
 229 63 229 63 143 143 c 128,-1,19
 57 223 57 223 49 231 c 1,0,1
EndSplineSet
EndChar

StartChar: equal
Encoding: 61 61 32
Width: 596
GlyphClass: 2
Flags: W
LayerCount: 2
Fore
SplineSet
523 203 m 1,0,1
 525 193 525 193 525 174 c 1,2,-1
 523 144 l 1,3,4
 459 132 459 132 403 132 c 1,5,-1
 73 139 l 1,6,7
 70 152 70 152 70 166 c 1,8,-1
 73 198 l 1,9,10
 137 210 137 210 194 210 c 1,11,-1
 523 203 l 1,0,1
523 378 m 1,12,13
 525 368 525 368 525 349 c 1,14,-1
 523 319 l 1,15,16
 459 307 459 307 403 307 c 1,17,-1
 73 314 l 1,18,19
 70 328 70 328 70 341 c 1,20,-1
 73 373 l 1,21,22
 137 385 137 385 194 385 c 1,23,-1
 523 378 l 1,12,13
EndSplineSet
EndChar

StartChar: greater
Encoding: 62 62 33
Width: 466
GlyphClass: 2
Flags: W
LayerCount: 2
Fore
SplineSet
407 280 m 1,0,1
 410 274 410 274 410 258.5 c 128,-1,2
 410 243 410 243 407 231 c 1,3,4
 399 223 399 223 313 143 c 128,-1,5
 227 63 227 63 207 46 c 0,6,7
 163 8 163 8 110 -28 c 1,8,-1
 70 16 l 1,9,10
 260 200 260 200 277.5 216 c 128,-1,11
 295 232 295 232 327 258 c 1,12,13
 315 267 315 267 293 287 c 2,14,-1
 70 501 l 1,15,-1
 110 545 l 1,16,17
 165 510 165 510 195.5 482 c 128,-1,18
 226 454 226 454 311.5 372 c 128,-1,19
 397 290 397 290 407 280 c 1,0,1
EndSplineSet
EndChar

StartChar: question
Encoding: 63 63 34
Width: 482
GlyphClass: 2
Flags: W
LayerCount: 2
Fore
SplineSet
315 487 m 128,-1,1
 337 532 337 532 337 575.5 c 128,-1,2
 337 619 337 619 309 646 c 128,-1,3
 281 673 281 673 240 673 c 128,-1,4
 199 673 199 673 169 661 c 1,5,-1
 146 558 l 1,6,-1
 88 560 l 1,7,8
 74 599 74 599 70 671 c 1,9,10
 147 731 147 731 250 731 c 0,11,12
 422 731 422 731 422 563 c 0,13,14
 422 521 422 521 399 476 c 128,-1,15
 376 431 376 431 348 398 c 0,16,17
 266 302 266 302 251 238 c 0,18,19
 247 223 247 223 247 163 c 1,20,21
 229 160 229 160 204 160 c 1,22,23
 189 195 189 195 181 243 c 1,24,25
 187 284 187 284 213 329.5 c 128,-1,26
 239 375 239 375 266 408.5 c 128,-1,0
 293 442 293 442 315 487 c 128,-1,1
278 2 m 1,27,28
 252 -4 252 -4 227.5 -4 c 128,-1,29
 203 -4 203 -4 179 -1 c 1,30,31
 173 27 173 27 173 55.5 c 128,-1,32
 173 84 173 84 175 98 c 1,33,34
 197 103 197 103 220.5 103 c 128,-1,35
 244 103 244 103 274 101 c 1,36,37
 280 75 280 75 280 45 c 128,-1,38
 280 15 280 15 278 2 c 1,27,28
EndSplineSet
EndChar

StartChar: at
Encoding: 64 64 35
Width: 915
GlyphClass: 2
Flags: W
LayerCount: 2
Fore
SplineSet
619 319 m 1,0,-1
 615 89 l 1,1,2
 652 87 652 87 683 75 c 1,3,4
 701 82 701 82 721.5 100 c 128,-1,5
 742 118 742 118 757 140.5 c 128,-1,6
 772 163 772 163 784 204.5 c 128,-1,7
 796 246 796 246 796 297 c 0,8,9
 796 439 796 439 708.5 523 c 128,-1,10
 621 607 621 607 468 607 c 0,11,12
 127 607 127 607 127 263 c 0,13,14
 127 87 127 87 221 -8.5 c 128,-1,15
 315 -104 315 -104 467 -104 c 0,16,17
 600 -104 600 -104 696 -48 c 1,18,19
 714 -76 714 -76 714 -96 c 1,20,21
 619 -160 619 -160 468 -160 c 0,22,23
 282 -160 282 -160 176 -48.5 c 128,-1,24
 70 63 70 63 70 261 c 0,25,26
 70 665 70 665 468 665 c 0,27,28
 651 665 651 665 753 566 c 128,-1,29
 855 467 855 467 855 299 c 0,30,31
 855 18 855 18 566 18 c 1,32,33
 551 49 551 49 549 83 c 1,34,35
 530 67 530 67 484 42 c 128,-1,36
 438 17 438 17 408 17 c 0,37,38
 349 17 349 17 311 47.5 c 128,-1,39
 273 78 273 78 273 144 c 0,40,41
 273 261 273 261 370 280 c 0,42,43
 424 290 424 290 539 290 c 1,44,-1
 538 319 l 2,45,46
 536 381 536 381 514 407.5 c 128,-1,47
 492 434 492 434 439 434 c 0,48,49
 418 434 418 434 389 423 c 1,50,-1
 368 334 l 1,51,52
 335 334 335 334 317 337 c 1,53,54
 303 375 303 375 302 442 c 1,55,56
 319 451 319 451 379 469 c 128,-1,57
 439 487 439 487 456 487 c 0,58,59
 542 487 542 487 580.5 448 c 128,-1,60
 619 409 619 409 619 319 c 1,0,-1
427 78 m 0,61,62
 444 78 444 78 470 93 c 0,63,64
 510 117 510 117 546 143 c 1,65,-1
 541 245 l 1,66,67
 421 231 421 231 409 228 c 0,68,69
 351 214 351 214 351 152 c 0,70,71
 351 78 351 78 427 78 c 0,61,62
EndSplineSet
EndChar

StartChar: A
Encoding: 65 65 36
Width: 739
GlyphClass: 2
Flags: W
LayerCount: 2
Fore
SplineSet
259 692.5 m 128,-1,1
 339 700 339 700 404.5 700 c 128,-1,2
 470 700 470 700 506 694 c 1,3,4
 507 690 507 690 507 684.5 c 128,-1,5
 507 679 507 679 501.5 659 c 128,-1,6
 496 639 496 639 493 633 c 1,7,8
 485 625 485 625 448 621 c 1,9,-1
 639 68 l 1,10,-1
 734 60 l 1,11,12
 734 32 734 32 717 0 c 1,13,-1
 487 0 l 1,14,-1
 484 35 l 1,15,16
 507 47 507 47 551 56 c 1,17,-1
 500 199 l 1,18,-1
 221 199 l 1,19,-1
 174 68 l 1,20,-1
 255 60 l 1,21,22
 255 32 255 32 238 0 c 1,23,-1
 8 0 l 1,24,-1
 5 35 l 1,25,26
 44 49 44 49 88 57 c 1,27,-1
 282 624 l 1,28,29
 193 634 193 634 157 648 c 1,30,-1
 161 679 l 1,31,0
 179 685 179 685 259 692.5 c 128,-1,1
421 422 m 1,32,-1
 368 618 l 1,33,34
 362 619 362 619 351 619 c 1,35,-1
 297 415 l 1,36,-1
 239 263 l 1,37,-1
 482 263 l 1,38,-1
 421 422 l 1,32,-1
EndSplineSet
EndChar

StartChar: B
Encoding: 66 66 37
Width: 630
GlyphClass: 2
Flags: W
LayerCount: 2
Fore
SplineSet
535.5 311 m 128,-1,1
 580 264 580 264 580 179.5 c 128,-1,2
 580 95 580 95 513.5 47.5 c 128,-1,3
 447 0 447 0 319 0 c 2,4,-1
 45 0 l 1,5,-1
 42 35 l 1,6,7
 84 52 84 52 128 59 c 1,8,9
 122 445 122 445 118 638 c 1,10,11
 84 644 84 644 30 662 c 1,12,13
 33 699 33 699 35 700 c 1,14,-1
 286 700 l 2,15,16
 420 700 420 700 468 677 c 0,17,18
 491 666 491 666 514 648 c 0,19,20
 560 612 560 612 560 529 c 0,21,22
 560 487 560 487 545.5 453.5 c 128,-1,23
 531 420 531 420 508 402 c 0,24,25
 466 369 466 369 433 365 c 1,26,0
 491 358 491 358 535.5 311 c 128,-1,1
324 322 m 2,27,-1
 213 322 l 1,28,29
 211 236 211 236 209 68 c 1,30,-1
 315 68 l 2,31,32
 481 68 481 68 481 192 c 0,33,34
 481 264 481 264 442.5 293 c 128,-1,35
 404 322 404 322 324 322 c 2,27,-1
276 630 m 1,36,-1
 216 629 l 1,37,38
 214 537 214 537 214 390 c 1,39,-1
 312 390 l 2,40,41
 400 390 400 390 429.5 423.5 c 128,-1,42
 459 457 459 457 459 530 c 0,43,44
 459 630 459 630 276 630 c 1,36,-1
EndSplineSet
EndChar

StartChar: C
Encoding: 67 67 38
Width: 591
GlyphClass: 2
Flags: W
LayerCount: 2
Fore
SplineSet
314 -13 m 0,0,1
 20 -13 20 -13 20 356 c 0,2,3
 20 531 20 531 91.5 622 c 128,-1,4
 163 713 163 713 320 713 c 0,5,6
 446 713 446 713 544 643 c 1,7,8
 544 587 544 587 530 501 c 1,9,10
 516 498 516 498 472 498 c 1,11,-1
 442 622 l 1,12,13
 371 635 371 635 328 635 c 0,14,15
 249 635 249 635 189 613 c 2,16,-1
 170 606 l 1,17,18
 164 596 164 596 155 576.5 c 128,-1,19
 146 557 146 557 131.5 495 c 128,-1,20
 117 433 117 433 117 368 c 0,21,22
 117 227 117 227 163.5 144 c 128,-1,23
 210 61 210 61 312 61 c 0,24,25
 385 61 385 61 422 76 c 0,26,27
 432 81 432 81 451 91 c 1,28,-1
 472 211 l 1,29,-1
 530 208 l 1,30,31
 545 105 545 105 545 41 c 1,32,33
 524 25 524 25 454.5 6 c 128,-1,34
 385 -13 385 -13 314 -13 c 0,0,1
EndSplineSet
EndChar

StartChar: D
Encoding: 68 68 39
Width: 667
GlyphClass: 2
Flags: W
LayerCount: 2
Fore
SplineSet
627 366 m 0,0,1
 627 140 627 140 524 59 c 0,2,3
 481 25 481 25 431 12.5 c 128,-1,4
 381 0 381 0 300 0 c 2,5,-1
 46 0 l 1,6,-1
 43 35 l 1,7,8
 47 38 47 38 84 48 c 128,-1,9
 121 58 121 58 128 58 c 1,10,11
 122 448 122 448 118 638 c 1,12,13
 73 644 73 644 30 662 c 1,14,15
 32 696 32 696 35 700 c 1,16,-1
 287 700 l 2,17,18
 391 700 391 700 451.5 681 c 128,-1,19
 512 662 512 662 557 611 c 1,20,21
 627 534 627 534 627 366 c 0,0,1
530 358 m 0,22,23
 530 493 530 493 479.5 561.5 c 128,-1,24
 429 630 429 630 310 630 c 2,25,-1
 208 630 l 1,26,27
 204 446 204 446 198 68 c 1,28,-1
 303 68 l 2,29,30
 440 68 440 68 485 129.5 c 128,-1,31
 530 191 530 191 530 358 c 0,22,23
EndSplineSet
EndChar

StartChar: E
Encoding: 69 69 40
Width: 595
GlyphClass: 2
Flags: W
LayerCount: 2
Fore
SplineSet
218 631 m 1,0,-1
 213 390 l 1,1,-1
 371 390 l 1,2,-1
 379 462 l 1,3,4
 407 462 407 462 439 445 c 1,5,-1
 439 255 l 1,6,-1
 404 252 l 1,7,8
 389 295 389 295 384 324 c 1,9,-1
 213 324 l 1,10,11
 211 237 211 237 209 67 c 1,12,-1
 438 67 l 1,13,-1
 462 161 l 1,14,-1
 520 157 l 1,15,16
 534 100 534 100 534 56.5 c 128,-1,17
 534 13 534 13 532 0 c 1,18,-1
 46 0 l 1,19,-1
 43 35 l 1,20,21
 87 51 87 51 128 58 c 1,22,23
 122 448 122 448 118 638 c 1,24,25
 96 640 96 640 30 662 c 1,26,-1
 35 700 l 1,27,-1
 517 700 l 1,28,29
 519 687 519 687 519 660 c 0,30,31
 519 605 519 605 505 541 c 1,32,33
 483 536 483 536 447 536 c 1,34,-1
 423 631 l 1,35,-1
 218 631 l 1,0,-1
EndSplineSet
EndChar

StartChar: F
Encoding: 70 70 41
Width: 556
GlyphClass: 2
Flags: W
LayerCount: 2
Fore
SplineSet
214 313 m 1,0,-1
 209 67 l 1,1,-1
 293 60 l 1,2,3
 293 32 293 32 276 0 c 1,4,-1
 46 0 l 1,5,-1
 43 35 l 1,6,7
 87 51 87 51 128 58 c 1,8,9
 122 448 122 448 118 638 c 1,10,11
 96 640 96 640 30 662 c 1,12,-1
 35 700 l 1,13,-1
 517 700 l 1,14,15
 519 687 519 687 519 660 c 0,16,17
 519 606 519 606 505 540 c 1,18,19
 483 536 483 536 447 536 c 1,20,-1
 423 631 l 1,21,-1
 218 631 l 1,22,23
 216 547 216 547 214 379 c 1,24,-1
 372 379 l 1,25,-1
 380 451 l 1,26,27
 408 451 408 451 440 434 c 1,28,-1
 440 244 l 1,29,-1
 405 241 l 1,30,31
 390 284 390 284 385 313 c 1,32,-1
 214 313 l 1,0,-1
EndSplineSet
EndChar

StartChar: G
Encoding: 71 71 42
Width: 655
GlyphClass: 2
Flags: W
LayerCount: 2
Fore
SplineSet
314 -13 m 0,0,1
 180 -13 180 -13 100 79 c 128,-1,2
 20 171 20 171 20 351.5 c 128,-1,3
 20 532 20 532 89.5 622.5 c 128,-1,4
 159 713 159 713 306.5 713 c 128,-1,5
 454 713 454 713 555 639 c 1,6,7
 555 588 555 588 541 518 c 1,8,9
 519 514 519 514 483 514 c 1,10,-1
 461 617 l 1,11,12
 404 636 404 636 321 636 c 0,13,14
 266 636 266 636 170 606 c 1,15,16
 164 595 164 595 155 575.5 c 128,-1,17
 146 556 146 556 131.5 493.5 c 128,-1,18
 117 431 117 431 117 368 c 0,19,20
 117 61 117 61 316 61 c 0,21,22
 421 61 421 61 478 99 c 1,23,24
 482 225 482 225 483 288 c 1,25,-1
 386 312 l 1,26,-1
 389 347 l 1,27,-1
 619 347 l 1,28,29
 636 315 636 315 636 287 c 1,30,31
 597 281 597 281 552 279 c 1,32,33
 558 111 558 111 558 47 c 1,34,35
 533 30 533 30 458.5 8.5 c 128,-1,36
 384 -13 384 -13 314 -13 c 0,0,1
EndSplineSet
EndChar

StartChar: H
Encoding: 72 72 43
Width: 744
GlyphClass: 2
Flags: W
LayerCount: 2
Fore
SplineSet
213 401 m 1,0,-1
 539 400 l 1,1,2
 537 522 537 522 533 641 c 1,3,4
 496 648 496 648 444 665 c 1,5,-1
 447 700 l 1,6,-1
 697 700 l 1,7,8
 714 668 714 668 714 640 c 1,9,10
 664 636 664 636 634 636 c 1,11,-1
 623 68 l 1,12,-1
 707 60 l 1,13,14
 707 32 707 32 690 0 c 1,15,-1
 460 0 l 1,16,-1
 457 35 l 1,17,18
 504 51 504 51 549 59 c 1,19,-1
 541 337 l 1,20,-1
 211 337 l 1,21,22
 209 157 209 157 209 68 c 1,23,-1
 293 60 l 1,24,25
 293 32 293 32 276 0 c 1,26,-1
 46 0 l 1,27,-1
 43 35 l 1,28,29
 90 51 90 51 135 59 c 1,30,31
 125 447 125 447 119 641 c 1,32,33
 82 648 82 648 30 665 c 1,34,-1
 33 700 l 1,35,-1
 283 700 l 1,36,37
 300 668 300 668 300 640 c 1,38,39
 250 636 250 636 220 636 c 1,40,41
 217 560 217 560 213 401 c 1,0,-1
EndSplineSet
EndChar

StartChar: I
Encoding: 73 73 44
Width: 380
GlyphClass: 2
Flags: W
LayerCount: 2
Fore
SplineSet
244 636 m 1,0,-1
 234 68 l 1,1,-1
 318 60 l 1,2,3
 318 32 318 32 301 0 c 1,4,-1
 71 0 l 1,5,-1
 68 35 l 1,6,7
 114 51 114 51 159 59 c 1,8,9
 157 124 157 124 152.5 327 c 128,-1,10
 148 530 148 530 145 641 c 1,11,12
 105 649 105 649 55 665 c 1,13,-1
 58 700 l 1,14,-1
 308 700 l 1,15,16
 325 668 325 668 325 640 c 1,17,18
 274 636 274 636 244 636 c 1,0,-1
EndSplineSet
EndChar

StartChar: J
Encoding: 74 74 45
Width: 464
GlyphClass: 2
Flags: W
LayerCount: 2
Fore
SplineSet
100 73 m 1,0,1
 127 63 127 63 171 63 c 128,-1,2
 215 63 215 63 240.5 88.5 c 128,-1,3
 266 114 266 114 266 180.5 c 128,-1,4
 266 247 266 247 264 322 c 128,-1,5
 262 397 262 397 258 492.5 c 128,-1,6
 254 588 254 588 252 641 c 1,7,8
 222 645 222 645 164 665 c 1,9,-1
 167 700 l 1,10,-1
 417 700 l 1,11,12
 434 668 434 668 434 640 c 1,13,14
 422 636 422 636 354 636 c 1,15,16
 352 547 352 547 349.5 383 c 128,-1,17
 347 219 347 219 346 167 c 0,18,19
 344 82 344 82 305.5 34.5 c 128,-1,20
 267 -13 267 -13 193 -13 c 0,21,22
 139 -13 139 -13 82 2 c 128,-1,23
 25 17 25 17 5 32 c 1,24,25
 6 108 6 108 21 196 c 1,26,27
 37 203 37 203 80 203 c 1,28,-1
 100 73 l 1,0,1
EndSplineSet
EndChar

StartChar: K
Encoding: 75 75 46
Width: 692
GlyphClass: 2
Flags: W
LayerCount: 2
Fore
SplineSet
212 215 m 1,0,-1
 209 68 l 1,1,-1
 293 60 l 1,2,3
 293 32 293 32 276 0 c 1,4,-1
 46 0 l 1,5,-1
 43 35 l 1,6,7
 90 51 90 51 135 59 c 1,8,9
 125 447 125 447 119 641 c 1,10,11
 82 648 82 648 30 665 c 1,12,-1
 33 700 l 1,13,-1
 283 700 l 1,14,15
 300 668 300 668 300 640 c 1,16,17
 250 636 250 636 220 636 c 1,18,19
 218 532 218 532 216.5 448 c 128,-1,20
 215 364 215 364 214 330 c 1,21,-1
 453 632 l 1,22,-1
 373 640 l 1,23,24
 373 668 373 668 390 700 c 1,25,-1
 644 700 l 1,26,-1
 647 656 l 1,27,28
 601 640 601 640 557 632 c 1,29,-1
 360 395 l 1,30,-1
 590 68 l 1,31,-1
 674 60 l 1,32,33
 674 32 674 32 657 0 c 1,34,-1
 532 0 l 1,35,-1
 305 327 l 1,36,-1
 212 215 l 1,0,-1
EndSplineSet
EndChar

StartChar: L
Encoding: 76 76 47
Width: 592
GlyphClass: 2
Flags: W
LayerCount: 2
Fore
SplineSet
557.5 111 m 128,-1,1
 563 71 563 71 563 43.5 c 128,-1,2
 563 16 563 16 560 0 c 1,3,-1
 85 0 l 1,4,-1
 82 35 l 1,5,6
 129 52 129 52 167 58 c 1,7,8
 161 452 161 452 157 639 c 1,9,10
 131 643 131 643 69 663 c 1,11,-1
 74 700 l 1,12,-1
 315 700 l 1,13,14
 332 672 332 672 332 641 c 1,15,16
 278 639 278 639 254 638 c 1,17,18
 252 446 252 446 250.5 288.5 c 128,-1,19
 249 131 249 131 248 67 c 1,20,-1
 467 67 l 1,21,-1
 491 162 l 1,22,23
 541 162 541 162 549 157 c 1,24,0
 552 151 552 151 557.5 111 c 128,-1,1
EndSplineSet
EndChar

StartChar: M
Encoding: 77 77 48
Width: 972
GlyphClass: 2
Flags: W
LayerCount: 2
Fore
SplineSet
761 631 m 1,0,-1
 866 68 l 1,1,-1
 957 59 l 1,2,3
 957 32 957 32 940 0 c 1,4,-1
 710 0 l 1,5,-1
 707 35 l 1,6,7
 737 48 737 48 781 56 c 1,8,-1
 674 617 l 1,9,-1
 542 48 l 1,10,-1
 443 48 l 1,11,-1
 261 619 l 1,12,-1
 180 68 l 1,13,-1
 265 60 l 1,14,15
 265 32 265 32 248 0 c 1,16,-1
 18 0 l 1,17,-1
 15 35 l 1,18,19
 59 51 59 51 103 59 c 1,20,-1
 191 639 l 1,21,22
 130 648 130 648 94 660 c 1,23,-1
 98 700 l 1,24,-1
 331 700 l 1,25,-1
 490 152 l 1,26,-1
 494 152 l 1,27,-1
 618 700 l 1,28,-1
 841 700 l 1,29,30
 858 668 858 668 858 638 c 1,31,32
 793 631 793 631 761 631 c 1,0,-1
EndSplineSet
EndChar

StartChar: N
Encoding: 78 78 49
Width: 785
GlyphClass: 2
Flags: W
LayerCount: 2
Fore
SplineSet
218 576 m 1,0,-1
 208 68 l 1,1,-1
 292 60 l 1,2,3
 292 32 292 32 275 0 c 1,4,-1
 45 0 l 1,5,-1
 42 35 l 1,6,7
 96 53 96 53 134 59 c 1,8,9
 132 124 132 124 127.5 327 c 128,-1,10
 123 530 123 530 120 641 c 1,11,12
 82 647 82 647 30 665 c 1,13,-1
 33 700 l 1,14,-1
 231 700 l 1,15,-1
 596 117 l 1,16,-1
 579 641 l 1,17,18
 542 648 542 648 490 665 c 1,19,-1
 493 700 l 1,20,-1
 743 700 l 1,21,22
 760 668 760 668 760 640 c 1,23,24
 710 636 710 636 680 636 c 1,25,-1
 670 0 l 1,26,-1
 573 0 l 1,27,-1
 218 576 l 1,0,-1
EndSplineSet
EndChar

StartChar: O
Encoding: 79 79 50
Width: 647
GlyphClass: 2
Flags: W
LayerCount: 2
Fore
SplineSet
327 65 m 0,0,1
 529 65 529 65 529 349.5 c 128,-1,2
 529 634 529 634 327 634 c 0,3,4
 232 634 232 634 172 606 c 1,5,6
 118 499 118 499 118 359.5 c 128,-1,7
 118 220 118 220 164.5 142.5 c 128,-1,8
 211 65 211 65 327 65 c 0,0,1
92.5 617.5 m 128,-1,10
 165 713 165 713 328.5 713 c 128,-1,11
 492 713 492 713 559.5 625.5 c 128,-1,12
 627 538 627 538 627 361 c 128,-1,13
 627 184 627 184 554.5 86 c 128,-1,14
 482 -12 482 -12 323.5 -12 c 128,-1,15
 165 -12 165 -12 92.5 79 c 128,-1,16
 20 170 20 170 20 346 c 128,-1,9
 20 522 20 522 92.5 617.5 c 128,-1,10
EndSplineSet
EndChar

StartChar: P
Encoding: 80 80 51
Width: 575
GlyphClass: 2
Flags: W
LayerCount: 2
Fore
SplineSet
305 700 m 2,0,1
 432 700 432 700 493.5 658.5 c 128,-1,2
 555 617 555 617 555 512 c 128,-1,3
 555 407 555 407 494 345.5 c 128,-1,4
 433 284 433 284 297 284 c 2,5,-1
 213 284 l 1,6,-1
 210 67 l 1,7,-1
 288 60 l 1,8,9
 288 32 288 32 271 0 c 1,10,-1
 46 0 l 1,11,-1
 43 34 l 1,12,13
 85 50 85 50 129 58 c 1,14,15
 123 448 123 448 119 638 c 1,16,17
 92 643 92 643 31 662 c 1,18,-1
 36 700 l 1,19,-1
 305 700 l 2,0,1
418 392.5 m 128,-1,21
 463 435 463 435 463 505 c 128,-1,22
 463 575 463 575 419 602.5 c 128,-1,23
 375 630 375 630 278 630 c 0,24,25
 260 630 260 630 217 629 c 0,26,27
 217 628 217 628 214 348 c 1,28,-1
 287 349 l 2,29,20
 373 350 373 350 418 392.5 c 128,-1,21
EndSplineSet
EndChar

StartChar: Q
Encoding: 81 81 52
Width: 639
GlyphClass: 2
Flags: W
LayerCount: 2
Fore
SplineSet
329.5 -118 m 128,-1,1
 297 -109 297 -109 272.5 -109 c 128,-1,2
 248 -109 248 -109 195.5 -121.5 c 128,-1,3
 143 -134 143 -134 138 -134 c 1,4,5
 116 -116 116 -116 114 -88 c 1,6,7
 223 -34 223 -34 281 -34 c 0,8,9
 336 -34 336 -34 438 -74 c 0,10,11
 479 -91 479 -91 514.5 -99.5 c 128,-1,12
 550 -108 550 -108 638 -110 c 1,13,14
 638 -153 638 -153 601 -201 c 1,15,16
 548 -198 548 -198 485 -175 c 0,17,18
 468 -169 468 -169 415 -148 c 128,-1,0
 362 -127 362 -127 329.5 -118 c 128,-1,1
327 65 m 0,19,20
 529 65 529 65 529 349.5 c 128,-1,21
 529 634 529 634 327 634 c 0,22,23
 232 634 232 634 172 606 c 1,24,25
 118 499 118 499 118 359.5 c 128,-1,26
 118 220 118 220 164.5 142.5 c 128,-1,27
 211 65 211 65 327 65 c 0,19,20
92.5 617.5 m 128,-1,29
 165 713 165 713 328.5 713 c 128,-1,30
 492 713 492 713 559.5 625.5 c 128,-1,31
 627 538 627 538 627 361 c 128,-1,32
 627 184 627 184 554.5 85.5 c 128,-1,33
 482 -13 482 -13 323.5 -13 c 128,-1,34
 165 -13 165 -13 92.5 78.5 c 128,-1,35
 20 170 20 170 20 346 c 128,-1,28
 20 522 20 522 92.5 617.5 c 128,-1,29
EndSplineSet
EndChar

StartChar: R
Encoding: 82 82 53
Width: 656
GlyphClass: 2
Flags: W
LayerCount: 2
Fore
SplineSet
384 620 m 0,0,1
 352 630 352 630 299 630 c 2,2,-1
 216 630 l 1,3,-1
 213 378 l 1,4,-1
 289 379 l 2,5,6
 363 380 363 380 407 409 c 128,-1,7
 451 438 451 438 451 519.5 c 128,-1,8
 451 601 451 601 384 620 c 0,0,1
212 314 m 1,9,-1
 209 67 l 1,10,-1
 292 60 l 1,11,12
 292 32 292 32 275 0 c 1,13,-1
 45 0 l 1,14,-1
 42 35 l 1,15,16
 84 50 84 50 128 58 c 1,17,18
 122 438 122 438 118 638 c 1,19,20
 90 642 90 642 30 662 c 1,21,22
 30 675 30 675 35 700 c 1,23,-1
 260 700 l 2,24,25
 443 700 443 700 498 655 c 0,26,27
 552 612 552 612 552 520 c 0,28,29
 552 365 552 365 382 319 c 1,30,-1
 553 66 l 1,31,-1
 636 59 l 1,32,33
 636 32 636 32 619 0 c 1,34,-1
 496 0 l 1,35,-1
 286 314 l 1,36,-1
 212 314 l 1,9,-1
EndSplineSet
EndChar

StartChar: S
Encoding: 83 83 54
Width: 573
GlyphClass: 2
Flags: W
LayerCount: 2
Fore
SplineSet
286 67 m 0,0,1
 435 67 435 67 435 188 c 0,2,3
 435 247 435 247 362 288 c 0,4,5
 329 307 329 307 289.5 324 c 128,-1,6
 250 341 250 341 210 361 c 128,-1,7
 170 381 170 381 137.5 404 c 128,-1,8
 105 427 105 427 84.5 462 c 128,-1,9
 64 497 64 497 64 541 c 0,10,11
 64 613 64 613 122.5 663.5 c 128,-1,12
 181 714 181 714 283 714 c 128,-1,13
 385 714 385 714 498 652 c 1,14,15
 498 595 498 595 484 509 c 1,16,17
 462 506 462 506 426 506 c 1,18,-1
 396 622 l 1,19,20
 384 628 384 628 348.5 634 c 128,-1,21
 313 640 313 640 286 640 c 0,22,23
 228 640 228 640 196 615.5 c 128,-1,24
 164 591 164 591 164 547.5 c 128,-1,25
 164 504 164 504 201.5 469.5 c 128,-1,26
 239 435 239 435 292.5 410.5 c 128,-1,27
 346 386 346 386 399.5 360 c 128,-1,28
 453 334 453 334 490.5 292.5 c 128,-1,29
 528 251 528 251 528 196 c 0,30,31
 528 96 528 96 461 41.5 c 128,-1,32
 394 -13 394 -13 286 -13 c 0,33,34
 227 -13 227 -13 158.5 5.5 c 128,-1,35
 90 24 90 24 45 53 c 1,36,37
 47 120 47 120 60 208 c 1,38,39
 82 211 82 211 118 211 c 1,40,-1
 139 91 l 1,41,42
 161 82 161 82 205.5 74.5 c 128,-1,43
 250 67 250 67 286 67 c 0,0,1
EndSplineSet
EndChar

StartChar: T
Encoding: 84 84 55
Width: 621
GlyphClass: 2
Flags: W
LayerCount: 2
Fore
SplineSet
364 638 m 1,0,1
 359 470 359 470 353 68 c 1,2,-1
 437 60 l 1,3,4
 437 32 437 32 420 0 c 1,5,-1
 190 0 l 1,6,-1
 187 35 l 1,7,8
 245 56 245 56 279 59 c 1,9,10
 269 445 269 445 263 638 c 1,11,-1
 117 638 l 1,12,-1
 93 536 l 1,13,-1
 35 540 l 1,14,15
 20 601 20 601 20 664 c 0,16,17
 20 676 20 676 22 700 c 1,18,-1
 598 700 l 1,19,20
 600 687 600 687 600 660 c 0,21,22
 600 606 600 606 586 542 c 1,23,24
 564 536 564 536 528 536 c 1,25,-1
 503 638 l 1,26,-1
 364 638 l 1,0,1
EndSplineSet
EndChar

StartChar: U
Encoding: 85 85 56
Width: 754
GlyphClass: 2
Flags: W
LayerCount: 2
Fore
SplineSet
388 -12 m 0,0,1
 331 -12 331 -12 289 -3 c 128,-1,2
 247 6 247 6 208 30 c 0,3,4
 127 78 127 78 124.5 221 c 128,-1,5
 122 364 122 364 114 641 c 1,6,7
 74 649 74 649 24 665 c 1,8,-1
 27 700 l 1,9,-1
 278 700 l 1,10,11
 295 668 295 668 295 640 c 1,12,13
 266 638 266 638 212 636 c 1,14,15
 210 520 210 520 210 288 c 0,16,17
 210 163 210 163 256.5 114 c 128,-1,18
 303 65 303 65 389 65 c 0,19,20
 426 65 426 65 453.5 73 c 128,-1,21
 481 81 481 81 508 104 c 0,22,23
 562 150 562 150 562 290 c 0,24,25
 562 291 562 291 553 636 c 1,26,27
 475 659 475 659 463 665 c 1,28,-1
 466 700 l 1,29,-1
 714 700 l 1,30,31
 730 659 730 659 730 641 c 1,32,33
 667 641 667 641 649 640 c 1,34,35
 647 560 647 560 644.5 413.5 c 128,-1,36
 642 267 642 267 641 221 c 0,37,38
 638 107 638 107 571 47.5 c 128,-1,39
 504 -12 504 -12 388 -12 c 0,0,1
EndSplineSet
EndChar

StartChar: V
Encoding: 86 86 57
Width: 730
GlyphClass: 2
Flags: W
LayerCount: 2
Fore
SplineSet
634 634 m 1,0,-1
 428 0 l 1,1,-1
 324 0 l 1,2,-1
 95 641 l 1,3,4
 55 649 55 649 5 665 c 1,5,-1
 8 700 l 1,6,-1
 268 700 l 1,7,8
 285 668 285 668 285 640 c 1,9,10
 236 637 236 637 195 634 c 1,11,-1
 372 105 l 1,12,-1
 377 105 l 1,13,14
 399 180 399 180 544 641 c 1,15,16
 504 647 504 647 450 665 c 1,17,-1
 453 700 l 1,18,-1
 704 700 l 1,19,20
 721 668 721 668 721 640 c 1,21,22
 675 637 675 637 634 634 c 1,0,-1
EndSplineSet
EndChar

StartChar: W
Encoding: 87 87 58
Width: 1077
GlyphClass: 2
Flags: W
LayerCount: 2
Fore
SplineSet
758 105 m 1,0,-1
 890 641 l 1,1,2
 850 649 850 649 800 665 c 1,3,-1
 803 700 l 1,4,-1
 1053 700 l 1,5,6
 1070 668 1070 668 1070 640 c 1,7,8
 1015 637 1015 637 974 634 c 1,9,-1
 800 0 l 1,10,-1
 706 0 l 1,11,-1
 534 587 l 1,12,-1
 378 0 l 1,13,-1
 274 0 l 1,14,-1
 95 641 l 1,15,16
 55 649 55 649 5 665 c 1,17,-1
 8 700 l 1,18,-1
 268 700 l 1,19,20
 285 668 285 668 285 640 c 1,21,22
 236 637 236 637 195 634 c 1,23,-1
 322 105 l 1,24,-1
 326 105 l 1,25,26
 358 243 358 243 412.5 438 c 128,-1,27
 467 633 467 633 485 699 c 1,28,-1
 593 699 l 1,29,-1
 754 105 l 1,30,-1
 758 105 l 1,0,-1
EndSplineSet
EndChar

StartChar: X
Encoding: 88 88 59
Width: 722
GlyphClass: 2
Flags: W
LayerCount: 2
Fore
SplineSet
618 641 m 1,0,-1
 412 361 l 1,1,-1
 628 66 l 1,2,-1
 713 60 l 1,3,4
 713 32 713 32 696 0 c 1,5,-1
 434 0 l 1,6,-1
 431 35 l 1,7,8
 476 51 476 51 520 59 c 1,9,-1
 357 299 l 1,10,-1
 202 66 l 1,11,-1
 287 60 l 1,12,13
 287 32 287 32 270 0 c 1,14,-1
 13 0 l 1,15,-1
 10 35 l 1,16,17
 56 51 56 51 100 59 c 1,18,-1
 311 361 l 1,19,-1
 114 633 l 1,20,-1
 29 639 l 1,21,22
 29 667 29 667 46 699 c 1,23,-1
 315 699 l 1,24,-1
 318 664 l 1,25,26
 267 645 267 645 223 637 c 1,27,-1
 371 419 l 1,28,-1
 516 634 l 1,29,-1
 431 640 l 1,30,31
 431 668 431 668 448 700 c 1,32,-1
 705 700 l 1,33,-1
 708 665 l 1,34,35
 662 649 662 649 618 641 c 1,0,-1
EndSplineSet
EndChar

StartChar: Y
Encoding: 89 89 60
Width: 677
GlyphClass: 2
Flags: W
LayerCount: 2
Fore
SplineSet
388 250 m 1,0,-1
 384 68 l 1,1,-1
 468 60 l 1,2,3
 468 30 468 30 452 0 c 1,4,-1
 221 0 l 1,5,-1
 218 35 l 1,6,7
 279 56 279 56 310 59 c 1,8,9
 309 121 309 121 305 250 c 1,10,-1
 95 641 l 1,11,12
 55 649 55 649 5 665 c 1,13,-1
 8 700 l 1,14,-1
 268 700 l 1,15,16
 285 668 285 668 285 640 c 1,17,18
 236 637 236 637 195 634 c 1,19,-1
 344 331 l 1,20,-1
 355 331 l 1,21,-1
 504 641 l 1,22,23
 464 647 464 647 410 665 c 1,24,-1
 413 700 l 1,25,-1
 655 700 l 1,26,27
 672 668 672 668 672 640 c 1,28,29
 628 637 628 637 587 634 c 1,30,-1
 388 250 l 1,0,-1
EndSplineSet
EndChar

StartChar: Z
Encoding: 90 90 61
Width: 596
GlyphClass: 2
Flags: W
LayerCount: 2
Fore
SplineSet
76 664 m 0,0,1
 76 676 76 676 78 700 c 1,2,-1
 533 700 l 1,3,4
 551 677 551 677 556 639 c 1,5,-1
 166 67 l 1,6,-1
 458 67 l 1,7,-1
 482 181 l 1,8,9
 514 181 514 181 534 175 c 1,10,11
 550 104 550 104 550 58 c 128,-1,12
 550 12 550 12 548 0 c 1,13,-1
 68 0 l 1,14,15
 50 23 50 23 45 61 c 1,16,-1
 434 632 l 1,17,-1
 171 632 l 1,18,-1
 145 517 l 1,19,20
 110 517 110 517 93 524 c 1,21,22
 76 597 76 597 76 664 c 0,0,1
EndSplineSet
EndChar

StartChar: bracketleft
Encoding: 91 91 62
Width: 368
GlyphClass: 2
Flags: W
LayerCount: 2
Fore
SplineSet
333 -136 m 1,0,1
 333 -167 333 -167 329 -188 c 1,2,3
 313 -193 313 -193 232.5 -199.5 c 128,-1,4
 152 -206 152 -206 119 -206 c 1,5,6
 115 -202 115 -202 107.5 -180 c 128,-1,7
 100 -158 100 -158 99 -142 c 0,8,9
 89 430 89 430 85 709 c 1,10,11
 86 725 86 725 94 747.5 c 128,-1,12
 102 770 102 770 105 773 c 1,13,14
 139 773 139 773 226 766.5 c 128,-1,15
 313 760 313 760 329 755 c 1,16,17
 332 731 332 731 332 703 c 1,18,19
 319 699 319 699 182 683 c 1,20,21
 176 143 176 143 176 -127 c 1,22,-1
 333 -136 l 1,0,1
EndSplineSet
EndChar

StartChar: backslash
Encoding: 92 92 63
Width: 407
GlyphClass: 2
Flags: W
LayerCount: 2
Fore
SplineSet
377 -2 m 1,0,1
 361 -4 361 -4 343 -4 c 128,-1,2
 325 -4 325 -4 304 0 c 1,3,-1
 30 698 l 1,4,5
 62 703 62 703 74.5 703 c 128,-1,6
 87 703 87 703 117 700 c 1,7,-1
 377 -2 l 1,0,1
EndSplineSet
EndChar

StartChar: bracketright
Encoding: 93 93 64
Width: 318
GlyphClass: 2
Flags: W
LayerCount: 2
Fore
SplineSet
197 -127 m 1,0,1
 197 143 197 143 191 683 c 1,2,3
 54 699 54 699 41 703 c 1,4,5
 41 731 41 731 44 755 c 1,6,7
 60 760 60 760 147 766.5 c 128,-1,8
 234 773 234 773 268 773 c 1,9,10
 271 770 271 770 279 747.5 c 128,-1,11
 287 725 287 725 288 709 c 1,12,13
 284 430 284 430 274 -142 c 0,14,15
 273 -158 273 -158 265.5 -180 c 128,-1,16
 258 -202 258 -202 254 -206 c 1,17,18
 221 -206 221 -206 140.5 -199.5 c 128,-1,19
 60 -193 60 -193 44 -188 c 1,20,21
 40 -167 40 -167 40 -136 c 1,22,23
 152 -127 152 -127 197 -127 c 1,0,1
EndSplineSet
EndChar

StartChar: asciicircum
Encoding: 94 94 65
Width: 512
GlyphClass: 2
Flags: W
LayerCount: 2
Fore
SplineSet
223 700 m 1,0,1
 227 702 227 702 256 702 c 128,-1,2
 285 702 285 702 294 699 c 1,3,-1
 452 396 l 1,4,5
 447 390 447 390 430 383.5 c 128,-1,6
 413 377 413 377 406 377 c 1,7,8
 366 428 366 428 335 485 c 128,-1,9
 304 542 304 542 256 638 c 1,10,11
 179 483 179 483 153 444 c 128,-1,12
 127 405 127 405 106 377 c 1,13,14
 99 377 99 377 82 383.5 c 128,-1,15
 65 390 65 390 60 396 c 1,16,17
 217 695 217 695 223 700 c 1,0,1
EndSplineSet
EndChar

StartChar: underscore
Encoding: 95 95 66
Width: 503
GlyphClass: 2
Flags: W
LayerCount: 2
Fore
SplineSet
499 -165 m 1,0,1
 501 -175 501 -175 501 -194 c 1,2,-1
 499 -224 l 1,3,4
 435 -236 435 -236 379 -236 c 1,5,-1
 3 -229 l 1,6,7
 0 -216 0 -216 0 -202 c 1,8,-1
 3 -170 l 1,9,10
 67 -158 67 -158 124 -158 c 1,11,-1
 499 -165 l 1,0,1
EndSplineSet
EndChar

StartChar: grave
Encoding: 96 96 67
Width: 833
GlyphClass: 2
Flags: W
LayerCount: 2
Fore
SplineSet
378 622 m 1,0,1
 355 595 355 595 338 581 c 1,2,3
 250 623 250 623 196 675 c 1,4,5
 197 689 197 689 207.5 704 c 128,-1,6
 218 719 218 719 238 736 c 1,7,-1
 378 622 l 1,0,1
EndSplineSet
EndChar

StartChar: a
Encoding: 97 97 68
Width: 539
GlyphClass: 2
Flags: W
LayerCount: 2
Fore
SplineSet
438 327 m 1,0,-1
 433 69 l 1,1,2
 476 66 476 66 519 55 c 1,3,-1
 517 20 l 1,4,5
 501 12 501 12 459.5 2.5 c 128,-1,6
 418 -7 418 -7 378 -7 c 1,7,8
 360 29 360 29 358 62 c 1,9,10
 244 -13 244 -13 198 -13 c 0,11,12
 127 -13 127 -13 84 25 c 128,-1,13
 41 63 41 63 41 131 c 0,14,15
 41 288 41 288 233 293 c 0,16,17
 345 296 345 296 346 296 c 2,18,-1
 345 330 l 2,19,20
 343 399 343 399 319 429.5 c 128,-1,21
 295 460 295 460 233 460 c 0,22,23
 207 460 207 460 177 448 c 1,24,-1
 153 348 l 1,25,26
 148 347 148 347 136 347 c 2,27,-1
 95 350 l 1,28,29
 79 393 79 393 78 469 c 1,30,31
 97 479 97 479 165 499.5 c 128,-1,32
 233 520 233 520 252 520 c 0,33,34
 354 520 354 520 396 475 c 128,-1,35
 438 430 438 430 438 327 c 1,0,-1
220 55 m 0,36,37
 249 55 249 55 354 120 c 1,38,-1
 349 245 l 1,39,40
 281 239 281 239 235 234 c 128,-1,41
 189 229 189 229 161 207.5 c 128,-1,42
 133 186 133 186 133 140 c 0,43,44
 133 55 133 55 220 55 c 0,36,37
EndSplineSet
EndChar

StartChar: b
Encoding: 98 98 69
Width: 567
GlyphClass: 2
Flags: W
LayerCount: 2
Fore
SplineSet
330 445 m 0,0,1
 265 445 265 445 187 403 c 1,2,3
 185 311 185 311 183.5 232.5 c 128,-1,4
 182 154 182 154 181 123 c 1,5,6
 206 98 206 98 248 77 c 128,-1,7
 290 56 290 56 321 56 c 0,8,9
 439 56 439 56 439 250 c 0,10,11
 439 324 439 324 422 366.5 c 128,-1,12
 405 409 405 409 383 427 c 128,-1,13
 361 445 361 445 330 445 c 0,0,1
159 743 m 0,14,15
 190 743 190 743 203 741 c 1,16,17
 203 711 203 711 190 661 c 1,18,19
 190 638 190 638 189 596 c 0,20,21
 187 514 187 514 187 457 c 1,22,23
 311 520 311 520 348 520 c 0,24,25
 441 520 441 520 486 447.5 c 128,-1,26
 531 375 531 375 531 259.5 c 128,-1,27
 531 144 531 144 480.5 66 c 128,-1,28
 430 -12 430 -12 334 -12 c 0,29,30
 295 -12 295 -12 248.5 10 c 128,-1,31
 202 32 202 32 169 62 c 1,32,33
 165 25 165 25 153 -6 c 1,34,35
 149 -7 149 -7 138 -7 c 128,-1,36
 127 -7 127 -7 106 -4 c 1,37,-1
 95 663 l 1,38,39
 45 666 45 666 7 676 c 1,40,-1
 11 728 l 1,41,42
 62 743 62 743 159 743 c 0,14,15
EndSplineSet
EndChar

StartChar: c
Encoding: 99 99 70
Width: 472
GlyphClass: 2
Flags: W
LayerCount: 2
Fore
SplineSet
274 -12 m 0,0,1
 154 -12 154 -12 95 55.5 c 128,-1,2
 36 123 36 123 36 248 c 0,3,4
 36 520 36 520 278 520 c 0,5,6
 317 520 317 520 359 508.5 c 128,-1,7
 401 497 401 497 425 483 c 1,8,9
 422 390 422 390 406 351 c 1,10,11
 388 346 388 346 377 346 c 2,12,-1
 360 346 l 2,13,14
 355 346 355 346 348 347 c 1,15,-1
 323 457 l 1,16,17
 290 460 290 460 285 460 c 0,18,19
 213 460 213 460 170.5 416 c 128,-1,20
 128 372 128 372 128 268 c 128,-1,21
 128 164 128 164 160.5 110 c 128,-1,22
 193 56 193 56 286 56 c 0,23,24
 330 56 330 56 424 98 c 1,25,26
 443 72 443 72 444 52 c 1,27,28
 393 22 393 22 344 5 c 128,-1,29
 295 -12 295 -12 274 -12 c 0,0,1
EndSplineSet
EndChar

StartChar: d
Encoding: 100 100 71
Width: 565
GlyphClass: 2
Flags: W
LayerCount: 2
Fore
SplineSet
380 463 m 1,0,-1
 377 663 l 1,1,2
 322 666 322 666 289 675 c 1,3,-1
 293 727 l 1,4,5
 344 742 344 742 441 742 c 0,6,7
 472 742 472 742 485 740 c 1,8,9
 485 722 485 722 479.5 692.5 c 128,-1,10
 474 663 474 663 472 660 c 1,11,-1
 463 69 l 1,12,13
 504 67 504 67 550 55 c 1,14,-1
 548 20 l 1,15,16
 479 -12 479 -12 426 -12 c 0,17,18
 415 -12 415 -12 409 -11 c 1,19,20
 401 4 401 4 389 58 c 1,21,22
 274 -7 274 -7 228 -12 c 1,23,24
 132 -12 132 -12 84 61 c 128,-1,25
 36 134 36 134 36 248.5 c 128,-1,26
 36 363 36 363 84.5 441.5 c 128,-1,27
 133 520 133 520 228 520 c 0,28,29
 302 520 302 520 380 463 c 1,0,-1
245 452 m 0,30,31
 128 452 128 452 128 260 c 0,32,33
 128 185 128 185 152 130 c 0,34,35
 164 100 164 100 187.5 82 c 128,-1,36
 211 64 211 64 242 64 c 128,-1,37
 273 64 273 64 314.5 78 c 128,-1,38
 356 92 356 92 386 110 c 1,39,-1
 380 395 l 1,40,41
 353 418 353 418 314 435 c 128,-1,42
 275 452 275 452 245 452 c 0,30,31
EndSplineSet
EndChar

StartChar: e
Encoding: 101 101 72
Width: 512
GlyphClass: 2
Flags: W
LayerCount: 2
Fore
SplineSet
290 56 m 0,0,1
 334 56 334 56 428 98 c 1,2,3
 447 72 447 72 448 52 c 1,4,5
 397 22 397 22 348 5 c 128,-1,6
 299 -12 299 -12 278 -12 c 0,7,8
 162 -12 162 -12 101 57.5 c 128,-1,9
 40 127 40 127 40 252 c 128,-1,10
 40 377 40 377 99.5 448.5 c 128,-1,11
 159 520 159 520 278 520 c 0,12,13
 370 520 370 520 418.5 454 c 128,-1,14
 467 388 467 388 467 277 c 1,15,16
 459 263 459 263 454 258 c 1,17,-1
 132 263 l 1,18,19
 133 162 133 162 167.5 109 c 128,-1,20
 202 56 202 56 290 56 c 0,0,1
352 422.5 m 128,-1,22
 328 459 328 459 272 459 c 128,-1,23
 216 459 216 459 172 438 c 1,24,25
 142 378 142 378 134 315 c 1,26,27
 213 316 213 316 376 320 c 1,28,21
 376 386 376 386 352 422.5 c 128,-1,22
EndSplineSet
EndChar

StartChar: f
Encoding: 102 102 73
Width: 368
GlyphClass: 2
Flags: W
LayerCount: 2
Fore
SplineSet
370 587 m 1,0,-1
 354 588 l 1,1,-1
 350 588 l 1,2,-1
 319 686 l 1,3,4
 297 690 297 690 280 690 c 0,5,6
 231 690 231 690 211.5 652 c 128,-1,7
 192 614 192 614 192 519 c 2,8,-1
 192 507 l 1,9,-1
 207 507 l 2,10,11
 276 507 276 507 313 499 c 0,12,13
 314 499 314 499 317 498 c 1,14,15
 316 469 316 469 300 439 c 1,16,-1
 186 439 l 1,17,-1
 186 68 l 1,18,-1
 201 68 l 2,19,20
 240 68 240 68 270 64 c 128,-1,21
 300 60 300 60 302 58 c 1,22,23
 302 32 302 32 285 0 c 1,24,-1
 23 0 l 1,25,-1
 20 35 l 1,26,27
 66 51 66 51 104 59 c 1,28,-1
 104 439 l 1,29,-1
 27 439 l 1,30,-1
 24 474 l 1,31,32
 60 488 60 488 104 496 c 1,33,-1
 104 537 l 2,34,35
 104 650 104 650 146 702 c 0,36,37
 163 722 163 722 194 735.5 c 128,-1,38
 225 749 225 749 266 749 c 0,39,40
 346 749 346 749 418 714 c 1,41,42
 418 652 418 652 406 590 c 1,43,44
 395 587 395 587 370 587 c 1,0,-1
EndSplineSet
EndChar

StartChar: g
Encoding: 103 103 74
Width: 578
GlyphClass: 2
Flags: W
LayerCount: 2
Fore
SplineSet
300 61 m 1,0,-1
 389 63 l 1,1,2
 527 63 527 63 527 -51 c 0,3,4
 527 -104 527 -104 481.5 -149.5 c 128,-1,5
 436 -195 436 -195 373 -218 c 128,-1,6
 310 -241 310 -241 255.5 -241 c 128,-1,7
 201 -241 201 -241 154 -225.5 c 128,-1,8
 107 -210 107 -210 74 -175 c 128,-1,9
 41 -140 41 -140 41 -94 c 0,10,11
 41 -83 41 -83 76.5 -36.5 c 128,-1,12
 112 10 112 10 123 18 c 1,13,14
 114 24 114 24 88 52.5 c 128,-1,15
 62 81 62 81 59 92 c 1,16,17
 84 138 84 138 138 182 c 1,18,19
 58 230 58 230 58 340 c 0,20,21
 58 428 58 428 114 474 c 128,-1,22
 170 520 170 520 254 520 c 128,-1,23
 338 520 338 520 384 493 c 1,24,25
 464 509 464 509 541 509 c 0,26,27
 560 509 560 509 560 486 c 0,28,29
 560 446 560 446 545 431 c 1,30,-1
 430 450 l 1,31,32
 466 404 466 404 466 340 c 0,33,34
 466 240 466 240 407 196.5 c 128,-1,35
 348 153 348 153 262 153 c 0,36,37
 235 153 235 153 198 160 c 1,38,39
 183 129 183 129 160 93 c 1,40,41
 178 61 178 61 300 61 c 1,0,-1
427 -123 m 1,42,43
 437 -95 437 -95 437 -65.5 c 128,-1,44
 437 -36 437 -36 414 -18 c 128,-1,45
 391 0 391 0 355 0 c 0,46,47
 212 0 212 0 180 3 c 1,48,49
 153 -40 153 -40 142.5 -69.5 c 128,-1,50
 132 -99 132 -99 132 -103 c 0,51,52
 132 -142 132 -142 169 -161 c 128,-1,53
 206 -180 206 -180 254.5 -180 c 128,-1,54
 303 -180 303 -180 352.5 -164 c 128,-1,55
 402 -148 402 -148 427 -123 c 1,42,43
262 460 m 128,-1,57
 148 460 148 460 148 340 c 0,58,59
 148 279 148 279 178 246 c 128,-1,60
 208 213 208 213 265 213 c 0,61,62
 376 213 376 213 376 336.5 c 128,-1,56
 376 460 376 460 262 460 c 128,-1,57
EndSplineSet
EndChar

StartChar: h
Encoding: 104 104 75
Width: 617
GlyphClass: 2
Flags: W
LayerCount: 2
Fore
SplineSet
176 743 m 0,0,1
 207 743 207 743 220 741 c 1,2,3
 220 723 220 723 214.5 694.5 c 128,-1,4
 209 666 209 666 207 661 c 1,5,6
 207 639 207 639 205 570 c 128,-1,7
 203 501 203 501 203 463 c 1,8,9
 246 486 246 486 288.5 503 c 128,-1,10
 331 520 331 520 342 520 c 0,11,12
 438 520 438 520 481 472.5 c 128,-1,13
 524 425 524 425 524 328 c 0,14,15
 524 300 524 300 516 68 c 1,16,-1
 600 60 l 1,17,18
 600 32 600 32 583 0 c 1,19,-1
 353 0 l 1,20,-1
 350 35 l 1,21,22
 396 51 396 51 440 59 c 1,23,24
 434 321 434 321 429.5 350.5 c 128,-1,25
 425 380 425 380 415 402 c 128,-1,26
 405 424 405 424 385 433 c 128,-1,27
 365 442 365 442 332 442 c 0,28,29
 264 442 264 442 202 410 c 1,30,-1
 196 68 l 1,31,-1
 280 60 l 1,32,33
 280 32 280 32 263 0 c 1,34,-1
 33 0 l 1,35,-1
 30 35 l 1,36,37
 76 51 76 51 120 59 c 1,38,-1
 108 664 l 1,39,40
 53 667 53 667 20 676 c 1,41,-1
 24 728 l 1,42,43
 75 743 75 743 176 743 c 0,0,1
EndSplineSet
EndChar

StartChar: i
Encoding: 105 105 76
Width: 308
GlyphClass: 2
Flags: W
LayerCount: 2
Fore
SplineSet
216 603 m 1,0,1
 190 597 190 597 165.5 597 c 128,-1,2
 141 597 141 597 117 600 c 1,3,4
 111 628 111 628 111 656.5 c 128,-1,5
 111 685 111 685 113 699 c 1,6,7
 135 704 135 704 159.5 704 c 128,-1,8
 184 704 184 704 212 702 c 1,9,10
 218 676 218 676 218 651.5 c 128,-1,11
 218 627 218 627 216 603 c 1,0,1
34 498 m 1,12,13
 119 513 119 513 166 513 c 128,-1,14
 213 513 213 513 226 511 c 1,15,16
 226 487 226 487 220 458 c 128,-1,17
 214 429 214 429 213 430 c 1,18,-1
 204 68 l 1,19,-1
 288 60 l 1,20,21
 288 32 288 32 271 0 c 1,22,-1
 41 0 l 1,23,-1
 38 35 l 1,24,25
 84 51 84 51 128 59 c 1,26,27
 122 309 122 309 118 434 c 1,28,29
 60 434 60 434 30 446 c 1,30,-1
 34 498 l 1,12,13
EndSplineSet
EndChar

StartChar: j
Encoding: 106 106 77
Width: 285
GlyphClass: 2
Flags: W
LayerCount: 2
Fore
SplineSet
44 -241 m 0,0,1
 12 -241 12 -241 -34.5 -228 c 128,-1,2
 -81 -215 -81 -215 -98 -204 c 1,3,4
 -93 -113 -93 -113 -79 -71 c 1,5,6
 -57 -67 -57 -67 -41.5 -67 c 128,-1,7
 -26 -67 -26 -67 -21 -68 c 1,8,-1
 4 -177 l 1,9,10
 19 -182 19 -182 48 -182 c 0,11,12
 135 -182 135 -182 135 -39 c 0,13,14
 135 45 135 45 131.5 212.5 c 128,-1,15
 128 380 128 380 127 435 c 1,16,17
 72 438 72 438 39 447 c 1,18,-1
 43 499 l 1,19,20
 94 514 94 514 191 514 c 0,21,22
 222 514 222 514 235 512 c 1,23,24
 235 488 235 488 229 459 c 128,-1,25
 223 430 223 430 222 431 c 1,26,27
 219 283 219 283 215 -20 c 0,28,29
 213 -134 213 -134 177.5 -187.5 c 128,-1,30
 142 -241 142 -241 44 -241 c 0,0,1
225 603 m 1,31,32
 199 597 199 597 174.5 597 c 128,-1,33
 150 597 150 597 126 600 c 1,34,35
 120 628 120 628 120 656.5 c 128,-1,36
 120 685 120 685 122 699 c 1,37,38
 144 704 144 704 168.5 704 c 128,-1,39
 193 704 193 704 221 702 c 1,40,41
 227 676 227 676 227 651.5 c 128,-1,42
 227 627 227 627 225 603 c 1,31,32
EndSplineSet
EndChar

StartChar: k
Encoding: 107 107 78
Width: 591
GlyphClass: 2
Flags: W
LayerCount: 2
Fore
SplineSet
171 749 m 0,0,1
 202 749 202 749 215 747 c 1,2,3
 215 716 215 716 202 667 c 1,4,5
 196 403 196 403 196 268 c 1,6,-1
 357 440 l 1,7,-1
 277 448 l 1,8,9
 277 476 277 476 294 508 c 1,10,-1
 548 508 l 1,11,-1
 551 464 l 1,12,13
 528 455 528 455 467 441 c 1,14,-1
 330 317 l 1,15,-1
 499 68 l 1,16,-1
 583 60 l 1,17,18
 583 32 583 32 566 0 c 1,19,-1
 429 0 l 1,20,-1
 273 266 l 1,21,-1
 195 195 l 1,22,23
 193 111 193 111 193 68 c 1,24,-1
 277 60 l 1,25,26
 277 32 277 32 260 0 c 1,27,-1
 30 0 l 1,28,-1
 27 35 l 1,29,30
 73 51 73 51 117 59 c 1,31,32
 111 463 111 463 107 670 c 1,33,34
 52 673 52 673 19 682 c 1,35,-1
 23 734 l 1,36,37
 74 749 74 749 171 749 c 0,0,1
EndSplineSet
EndChar

StartChar: l
Encoding: 108 108 79
Width: 295
GlyphClass: 2
Flags: W
LayerCount: 2
Fore
SplineSet
171 743 m 0,0,1
 202 743 202 743 215 741 c 1,2,3
 215 706 215 706 202 661 c 1,4,5
 193 71 193 71 193 68 c 1,6,-1
 277 60 l 1,7,8
 277 32 277 32 260 0 c 1,9,-1
 30 0 l 1,10,-1
 27 35 l 1,11,12
 73 51 73 51 117 59 c 1,13,-1
 107 664 l 1,14,15
 52 667 52 667 19 676 c 1,16,-1
 23 728 l 1,17,18
 74 743 74 743 171 743 c 0,0,1
EndSplineSet
EndChar

StartChar: m
Encoding: 109 109 80
Width: 926
GlyphClass: 2
Flags: W
LayerCount: 2
Fore
SplineSet
521 408 m 1,0,1
 525 376 525 376 525 334 c 128,-1,2
 525 292 525 292 517 68 c 1,3,-1
 601 60 l 1,4,5
 601 32 601 32 584 0 c 1,6,-1
 354 0 l 1,7,-1
 351 35 l 1,8,9
 397 51 397 51 441 59 c 1,10,11
 435 325 435 325 430.5 355 c 128,-1,12
 426 385 426 385 416 405.5 c 128,-1,13
 406 426 406 426 385 434 c 128,-1,14
 364 442 364 442 321.5 442 c 128,-1,15
 279 442 279 442 210 410 c 1,16,17
 204 182 204 182 202 68 c 1,18,-1
 286 60 l 1,19,20
 286 32 286 32 269 0 c 1,21,-1
 39 0 l 1,22,-1
 36 35 l 1,23,24
 82 51 82 51 126 59 c 1,25,26
 125 131 125 131 121 262.5 c 128,-1,27
 117 394 117 394 116 435 c 1,28,29
 61 438 61 438 28 447 c 1,30,-1
 32 499 l 1,31,32
 86 514 86 514 189 514 c 1,33,34
 203 489 203 489 207 462 c 1,35,36
 251 485 251 485 294 502.5 c 128,-1,37
 337 520 337 520 348 520 c 0,38,39
 459 520 459 520 503 452 c 1,40,41
 549 477 549 477 598.5 498.5 c 128,-1,42
 648 520 648 520 658 520 c 0,43,44
 749 520 749 520 794.5 475.5 c 128,-1,45
 840 431 840 431 840 330 c 0,46,47
 840 300 840 300 832 68 c 1,48,-1
 916 60 l 1,49,50
 916 32 916 32 899 0 c 1,51,-1
 669 0 l 1,52,-1
 666 35 l 1,53,54
 712 51 712 51 756 59 c 1,55,56
 752 217 752 217 749 298 c 128,-1,57
 746 379 746 379 726 410.5 c 128,-1,58
 706 442 706 442 646 442 c 128,-1,59
 586 442 586 442 521 408 c 1,0,1
EndSplineSet
EndChar

StartChar: n
Encoding: 110 110 81
Width: 616
GlyphClass: 2
Flags: W
LayerCount: 2
Fore
SplineSet
348 520 m 0,0,1
 444 520 444 520 487 472.5 c 128,-1,2
 530 425 530 425 530 328 c 0,3,4
 530 300 530 300 522 68 c 1,5,-1
 606 60 l 1,6,7
 606 32 606 32 589 0 c 1,8,-1
 359 0 l 1,9,-1
 356 35 l 1,10,11
 402 51 402 51 446 59 c 1,12,13
 440 321 440 321 435.5 350.5 c 128,-1,14
 431 380 431 380 421 402 c 128,-1,15
 411 424 411 424 391 433 c 128,-1,16
 371 442 371 442 338 442 c 0,17,18
 272 442 272 442 210 410 c 1,19,20
 204 182 204 182 202 68 c 1,21,-1
 286 60 l 1,22,23
 286 32 286 32 269 0 c 1,24,-1
 39 0 l 1,25,-1
 36 35 l 1,26,27
 82 51 82 51 126 59 c 1,28,29
 120 313 120 313 116 435 c 1,30,31
 61 438 61 438 28 447 c 1,32,-1
 32 499 l 1,33,34
 86 514 86 514 189 514 c 1,35,36
 201 496 201 496 207 462 c 1,37,38
 250 485 250 485 293.5 502.5 c 128,-1,39
 337 520 337 520 348 520 c 0,0,1
EndSplineSet
EndChar

StartChar: o
Encoding: 111 111 82
Width: 538
GlyphClass: 2
Flags: W
LayerCount: 2
Fore
SplineSet
380.5 100.5 m 128,-1,1
 410 153 410 153 410 250 c 0,2,3
 410 404 410 404 342 443 c 0,4,5
 314 459 314 459 263.5 459 c 128,-1,6
 213 459 213 459 168 438 c 1,7,8
 128 361 128 361 128 259 c 0,9,10
 128 161 128 161 154 108 c 0,11,12
 184 48 184 48 267.5 48 c 128,-1,0
 351 48 351 48 380.5 100.5 c 128,-1,1
94 448.5 m 128,-1,14
 152 520 152 520 273 520 c 128,-1,15
 394 520 394 520 448 454.5 c 128,-1,16
 502 389 502 389 502 261 c 128,-1,17
 502 133 502 133 444.5 60 c 128,-1,18
 387 -13 387 -13 270 -13 c 128,-1,19
 153 -13 153 -13 94.5 55 c 128,-1,20
 36 123 36 123 36 250 c 128,-1,13
 36 377 36 377 94 448.5 c 128,-1,14
EndSplineSet
EndChar

StartChar: p
Encoding: 112 112 83
Width: 579
GlyphClass: 2
Flags: W
LayerCount: 2
Fore
SplineSet
193 51 m 1,0,-1
 188 -163 l 1,1,-1
 275 -170 l 1,2,3
 275 -198 275 -198 258 -230 c 1,4,-1
 26 -230 l 1,5,-1
 23 -195 l 1,6,7
 69 -180 69 -180 113 -172 c 1,8,9
 107 236 107 236 103 435 c 1,10,11
 58 436 58 436 15 447 c 1,12,-1
 19 499 l 1,13,14
 77 514 77 514 181 514 c 1,15,16
 190 498 190 498 198 455 c 1,17,18
 326 520 326 520 360 520 c 0,19,20
 453 520 453 520 498 447.5 c 128,-1,21
 543 375 543 375 543 259.5 c 128,-1,22
 543 144 543 144 492.5 66 c 128,-1,23
 442 -12 442 -12 346 -12 c 0,24,25
 310 -12 310 -12 267.5 6 c 128,-1,26
 225 24 225 24 193 51 c 1,0,-1
342 445 m 0,27,28
 280 445 280 445 198 401 c 1,29,30
 196 215 196 215 194 122 c 1,31,32
 219 97 219 97 260.5 76.5 c 128,-1,33
 302 56 302 56 333 56 c 0,34,35
 451 56 451 56 451 250 c 0,36,37
 451 324 451 324 434 366.5 c 128,-1,38
 417 409 417 409 395 427 c 128,-1,39
 373 445 373 445 342 445 c 0,27,28
EndSplineSet
EndChar

StartChar: q
Encoding: 113 113 84
Width: 575
GlyphClass: 2
Flags: W
LayerCount: 2
Fore
SplineSet
84 61 m 128,-1,1
 36 134 36 134 36 248.5 c 128,-1,2
 36 363 36 363 84.5 441.5 c 128,-1,3
 133 520 133 520 228 520 c 0,4,5
 303 520 303 520 383 462 c 1,6,7
 394 488 394 488 409 514 c 1,8,9
 448 514 448 514 494 502 c 128,-1,10
 540 490 540 490 558 481 c 1,11,12
 560 470 560 470 560 446 c 1,13,14
 512 433 512 433 476 431 c 1,15,-1
 465 -161 l 1,16,-1
 549 -169 l 1,17,18
 549 -197 549 -197 532 -229 c 1,19,-1
 295 -229 l 1,20,-1
 292 -197 l 1,21,22
 345 -178 345 -178 389 -170 c 1,23,24
 387 -20 387 -20 385 55 c 1,25,26
 271 -7 271 -7 228 -12 c 1,27,0
 132 -12 132 -12 84 61 c 128,-1,1
187.5 82 m 128,-1,29
 211 64 211 64 241.5 64 c 128,-1,30
 272 64 272 64 313.5 77.5 c 128,-1,31
 355 91 355 91 385 109 c 1,32,33
 384 206 384 206 380 395 c 1,34,35
 353 418 353 418 314 435 c 128,-1,36
 275 452 275 452 245 452 c 0,37,38
 128 452 128 452 128 260 c 0,39,40
 128 185 128 185 152 130 c 0,41,28
 164 100 164 100 187.5 82 c 128,-1,29
EndSplineSet
EndChar

StartChar: r
Encoding: 114 114 85
Width: 449
GlyphClass: 2
Flags: W
LayerCount: 2
Fore
SplineSet
321 441 m 128,-1,1
 304 441 304 441 270.5 429 c 128,-1,2
 237 417 237 417 210 401 c 1,3,4
 204 179 204 179 202 68 c 1,5,-1
 286 60 l 1,6,7
 286 32 286 32 269 0 c 1,8,-1
 39 0 l 1,9,-1
 36 35 l 1,10,11
 82 51 82 51 126 59 c 1,12,13
 120 313 120 313 116 435 c 1,14,15
 61 438 61 438 28 447 c 1,16,-1
 32 499 l 1,17,18
 85 514 85 514 189 514 c 1,19,20
 205 489 205 489 209 450 c 1,21,22
 324 520 324 520 346 520 c 128,-1,23
 368 520 368 520 397 511.5 c 128,-1,24
 426 503 426 503 440 493 c 1,25,26
 440 393 440 393 421 330 c 1,27,28
 407 326 407 326 388.5 326 c 128,-1,29
 370 326 370 326 363 327 c 1,30,-1
 343 436 l 1,31,0
 338 441 338 441 321 441 c 128,-1,1
EndSplineSet
EndChar

StartChar: s
Encoding: 115 115 86
Width: 452
GlyphClass: 2
Flags: W
LayerCount: 2
Fore
SplineSet
119 64 m 1,0,1
 154 49 154 49 204.5 49 c 128,-1,2
 255 49 255 49 284 68 c 128,-1,3
 313 87 313 87 313 120 c 128,-1,4
 313 153 313 153 286 175 c 128,-1,5
 259 197 259 197 220 214 c 128,-1,6
 181 231 181 231 142 250 c 128,-1,7
 103 269 103 269 76 300 c 128,-1,8
 49 331 49 331 49 372 c 0,9,10
 49 441 49 441 95 480.5 c 128,-1,11
 141 520 141 520 222.5 520 c 128,-1,12
 304 520 304 520 376 483 c 1,13,14
 377 473 377 473 377 429.5 c 128,-1,15
 377 386 377 386 368 355 c 1,16,17
 344 347 344 347 311 347 c 1,18,-1
 278 449 l 1,19,20
 256 460 256 460 218.5 460 c 128,-1,21
 181 460 181 460 159 440.5 c 128,-1,22
 137 421 137 421 137 391.5 c 128,-1,23
 137 362 137 362 164.5 340 c 128,-1,24
 192 318 192 318 231 300.5 c 128,-1,25
 270 283 270 283 309 263.5 c 128,-1,26
 348 244 348 244 375.5 212.5 c 128,-1,27
 403 181 403 181 403 140 c 0,28,29
 403 68 403 68 347.5 27.5 c 128,-1,30
 292 -13 292 -13 211 -13 c 0,31,32
 167 -13 167 -13 117 1.5 c 128,-1,33
 67 16 67 16 33 39 c 1,34,35
 33 106 33 106 45 158 c 1,36,37
 68 162 68 162 107 162 c 1,38,-1
 119 64 l 1,0,1
EndSplineSet
EndChar

StartChar: t
Encoding: 116 116 87
Width: 348
GlyphClass: 2
Flags: W
LayerCount: 2
Fore
SplineSet
110 62 m 2,0,-1
 102 439 l 1,1,-1
 25 439 l 1,2,-1
 22 474 l 1,3,4
 32 481 32 481 80 500 c 1,5,-1
 162 628 l 1,6,7
 182 626 182 626 193 618 c 1,8,-1
 192 508 l 1,9,10
 267 508 267 508 315 498 c 1,11,12
 315 471 315 471 298 439 c 1,13,-1
 190 439 l 1,14,15
 188 319 188 319 186 75 c 1,16,17
 242 72 242 72 298 55 c 1,18,-1
 297 20 l 1,19,20
 283 11 283 11 225.5 -1 c 128,-1,21
 168 -13 168 -13 131 -13 c 1,22,23
 126 -5 126 -5 118 21.5 c 128,-1,24
 110 48 110 48 110 62 c 2,0,-1
EndSplineSet
EndChar

StartChar: u
Encoding: 117 117 88
Width: 595
GlyphClass: 2
Flags: W
LayerCount: 2
Fore
SplineSet
294 66 m 0,0,1
 323 66 323 66 359 78.5 c 128,-1,2
 395 91 395 91 418 109 c 1,3,4
 414 322 414 322 411 432 c 1,5,6
 349 432 349 432 319 444 c 1,7,-1
 323 496 l 1,8,9
 408 511 408 511 456.5 511 c 128,-1,10
 505 511 505 511 518 509 c 1,11,12
 518 491 518 491 512.5 461 c 128,-1,13
 507 431 507 431 505 428 c 1,14,-1
 493 71 l 1,15,16
 546 68 546 68 579 59 c 1,17,-1
 577 8 l 1,18,19
 533 -6 533 -6 492 -6 c 128,-1,20
 451 -6 451 -6 442 -5 c 1,21,22
 423 33 423 33 420 65 c 1,23,24
 371 28 371 28 329.5 8 c 128,-1,25
 288 -12 288 -12 275 -12 c 0,26,27
 187 -12 187 -12 147.5 35.5 c 128,-1,28
 108 83 108 83 108 175 c 0,29,30
 108 176 108 176 117 431 c 1,31,32
 59 431 59 431 10 444 c 1,33,-1
 14 496 l 1,34,35
 99 511 99 511 146 511 c 128,-1,36
 193 511 193 511 206 509 c 1,37,38
 206 485 206 485 200 456 c 128,-1,39
 194 427 194 427 193 428 c 2,40,-1
 194 212 l 2,41,42
 194 136 194 136 213 101 c 128,-1,43
 232 66 232 66 294 66 c 0,0,1
EndSplineSet
EndChar

StartChar: v
Encoding: 118 118 89
Width: 590
GlyphClass: 2
Flags: W
LayerCount: 2
Fore
SplineSet
523 441 m 1,0,-1
 328 0 l 1,1,-1
 257 0 l 1,2,-1
 74 440 l 1,3,-1
 -10 448 l 1,4,5
 -10 476 -10 476 7 508 c 1,6,-1
 249 508 l 1,7,-1
 252 473 l 1,8,9
 220 459 220 459 181 451 c 1,10,-1
 271 178 l 1,11,-1
 294 90 l 1,12,-1
 306 90 l 1,13,-1
 331 179 l 1,14,-1
 424 451 l 1,15,-1
 340 473 l 1,16,-1
 343 508 l 1,17,-1
 588 508 l 1,18,19
 605 476 605 476 605 448 c 1,20,21
 564 443 564 443 523 441 c 1,0,-1
EndSplineSet
EndChar

StartChar: w
Encoding: 119 119 90
Width: 859
GlyphClass: 2
Flags: W
LayerCount: 2
Fore
SplineSet
428 393 m 1,0,-1
 424 393 l 1,1,-1
 310 0 l 1,2,-1
 211 0 l 1,3,-1
 74 440 l 1,4,-1
 -10 448 l 1,5,6
 -10 476 -10 476 7 508 c 1,7,-1
 237 508 l 1,8,-1
 240 473 l 1,9,10
 208 459 208 459 169 451 c 1,11,-1
 240 178 l 1,12,-1
 258 90 l 1,13,-1
 268 90 l 1,14,-1
 288 179 l 1,15,-1
 389 508 l 1,16,17
 401 509 401 509 406 509 c 2,18,-1
 475 507 l 1,19,-1
 582 178 l 1,20,-1
 604 90 l 1,21,-1
 613 90 l 1,22,-1
 629 179 l 1,23,-1
 713 451 l 1,24,-1
 629 473 l 1,25,-1
 632 508 l 1,26,-1
 857 508 l 1,27,28
 874 476 874 476 874 448 c 1,29,30
 833 443 833 443 792 441 c 1,31,-1
 655 0 l 1,32,-1
 556 0 l 1,33,-1
 428 393 l 1,0,-1
EndSplineSet
EndChar

StartChar: x
Encoding: 120 120 91
Width: 548
GlyphClass: 2
Flags: W
LayerCount: 2
Fore
SplineSet
363 57 m 1,0,-1
 273 197 l 1,1,-1
 130 0 l 1,2,-1
 16 0 l 1,3,4
 9 18 9 18 9 40 c 1,5,6
 48 60 48 60 93 68 c 1,7,-1
 231 263 l 1,8,-1
 116 440 l 1,9,-1
 12 448 l 1,10,11
 12 476 12 476 29 508 c 1,12,-1
 259 508 l 1,13,-1
 262 473 l 1,14,15
 235 454 235 454 211 448 c 1,16,-1
 284 330 l 1,17,-1
 408 508 l 1,18,-1
 531 508 l 1,19,20
 537 500 537 500 537 489 c 1,21,-1
 534 468 l 1,22,23
 496 454 496 454 452 450 c 1,24,-1
 320 265 l 1,25,-1
 459 68 l 1,26,-1
 539 60 l 1,27,28
 539 32 539 32 522 0 c 1,29,-1
 292 0 l 1,30,-1
 289 35 l 1,31,32
 322 49 322 49 363 57 c 1,0,-1
EndSplineSet
EndChar

StartChar: y
Encoding: 121 121 92
Width: 555
GlyphClass: 2
Flags: W
LayerCount: 2
Fore
SplineSet
140 -186 m 0,0,1
 178 -186 178 -186 214.5 -113 c 128,-1,2
 251 -40 251 -40 256 0 c 1,3,-1
 232 0 l 1,4,-1
 74 440 l 1,5,-1
 -10 448 l 1,6,7
 -10 476 -10 476 7 508 c 1,8,-1
 237 508 l 1,9,-1
 240 473 l 1,10,11
 208 459 208 459 169 451 c 1,12,-1
 256 178 l 1,13,-1
 279 90 l 1,14,-1
 289 90 l 1,15,-1
 409 451 l 1,16,-1
 325 473 l 1,17,-1
 328 508 l 1,18,-1
 553 508 l 1,19,20
 570 476 570 476 570 448 c 1,21,22
 529 443 529 443 488 441 c 1,23,24
 462 365 462 365 410.5 214 c 128,-1,25
 359 63 359 63 329.5 -20 c 128,-1,26
 300 -103 300 -103 271 -155 c 128,-1,27
 242 -207 242 -207 213.5 -224.5 c 128,-1,28
 185 -242 185 -242 150 -242 c 0,29,30
 88 -242 88 -242 34 -218 c 1,31,-1
 16 -209 l 1,32,33
 23 -95 23 -95 25 -84 c 1,34,35
 33 -81 33 -81 83 -81 c 1,36,-1
 117 -183 l 1,37,38
 126 -186 126 -186 140 -186 c 0,0,1
EndSplineSet
EndChar

StartChar: z
Encoding: 122 122 93
Width: 485
GlyphClass: 2
Flags: W
LayerCount: 2
Fore
SplineSet
424 160 m 1,0,1
 438 102 438 102 438 57.5 c 128,-1,2
 438 13 438 13 436 0 c 1,3,-1
 58 0 l 1,4,5
 46 18 46 18 44 54 c 1,6,-1
 331 452 l 1,7,-1
 160 452 l 1,8,-1
 136 348 l 1,9,10
 121 347 121 347 118 347 c 2,11,-1
 78 350 l 1,12,13
 64 408 64 408 64 451.5 c 128,-1,14
 64 495 64 495 66 508 c 1,15,-1
 421 508 l 1,16,17
 427 493 427 493 427 452 c 1,18,-1
 153 60 l 1,19,-1
 342 60 l 1,20,-1
 366 165 l 1,21,-1
 424 160 l 1,0,1
EndSplineSet
EndChar

StartChar: braceleft
Encoding: 123 123 94
Width: 405
GlyphClass: 2
Flags: W
LayerCount: 2
Fore
SplineSet
223 656 m 1,0,-1
 227 435 l 1,1,2
 227 374 227 374 86 316 c 1,3,-1
 86 285 l 1,4,5
 227 227 227 227 227 166 c 1,6,-1
 223 -55 l 1,7,8
 337 -113 337 -113 350 -124 c 1,9,10
 342 -147 342 -147 329 -172 c 1,11,12
 305 -170 305 -170 151 -120 c 1,13,14
 144 -115 144 -115 135 -93.5 c 128,-1,15
 126 -72 126 -72 125 -63 c 1,16,-1
 160 155 l 1,17,18
 157 160 157 160 106 206.5 c 128,-1,19
 55 253 55 253 36 269 c 1,20,21
 31 280 31 280 31 304 c 1,22,-1
 36 332 l 1,23,24
 55 348 55 348 106 394.5 c 128,-1,25
 157 441 157 441 160 446 c 1,26,-1
 125 664 l 1,27,28
 126 673 126 673 135 694.5 c 128,-1,29
 144 716 144 716 151 721 c 1,30,31
 305 771 305 771 329 773 c 1,32,33
 342 748 342 748 350 725 c 1,34,35
 337 714 337 714 223 656 c 1,0,-1
EndSplineSet
EndChar

StartChar: bar
Encoding: 124 124 95
Width: 298
GlyphClass: 2
Flags: W
LayerCount: 2
Fore
SplineSet
187 -216 m 1,0,1
 180 -219 180 -219 151 -219 c 128,-1,2
 122 -219 122 -219 112 -216 c 1,3,4
 101 715 101 715 100 749 c 1,5,6
 112 752 112 752 150 752 c 128,-1,7
 188 752 188 752 198 750 c 1,8,-1
 187 -216 l 1,0,1
EndSplineSet
EndChar

StartChar: braceright
Encoding: 125 125 96
Width: 395
GlyphClass: 2
Flags: W
LayerCount: 2
Fore
SplineSet
156 -55 m 1,0,-1
 152 166 l 1,1,2
 152 227 152 227 293 285 c 1,3,-1
 293 316 l 1,4,5
 152 374 152 374 152 435 c 1,6,-1
 156 656 l 1,7,8
 42 714 42 714 29 725 c 1,9,10
 37 748 37 748 50 773 c 1,11,12
 74 771 74 771 228 721 c 1,13,14
 235 716 235 716 244 694.5 c 128,-1,15
 253 673 253 673 254 664 c 1,16,-1
 219 446 l 1,17,18
 222 441 222 441 273 394.5 c 128,-1,19
 324 348 324 348 343 332 c 1,20,21
 348 318 348 318 348 306 c 0,22,23
 348 281 348 281 343 269 c 1,24,25
 324 253 324 253 273 206.5 c 128,-1,26
 222 160 222 160 219 155 c 1,27,-1
 254 -63 l 1,28,29
 253 -72 253 -72 244 -93.5 c 128,-1,30
 235 -115 235 -115 228 -120 c 1,31,32
 74 -170 74 -170 50 -172 c 1,33,34
 37 -147 37 -147 29 -124 c 1,35,36
 42 -113 42 -113 156 -55 c 1,0,-1
EndSplineSet
EndChar

StartChar: asciitilde
Encoding: 126 126 97
Width: 565
GlyphClass: 2
Flags: W
LayerCount: 2
Fore
SplineSet
181 343 m 1,0,-1
 394 271 l 1,1,2
 416 283 416 283 498 308 c 1,3,-1
 515 279 l 1,4,5
 503 261 503 261 454.5 228.5 c 128,-1,6
 406 196 406 196 385 196 c 1,7,-1
 171 268 l 1,8,9
 149 256 149 256 67 231 c 1,10,-1
 50 260 l 1,11,12
 62 278 62 278 110.5 310.5 c 128,-1,13
 159 343 159 343 181 343 c 1,0,-1
EndSplineSet
EndChar

StartChar: exclamdown
Encoding: 161 161 98
Width: 291
GlyphClass: 2
Flags: W
LayerCount: 2
Fore
SplineSet
196 478 m 1,0,1
 198 466 198 466 198 437 c 128,-1,2
 198 408 198 408 192 382 c 1,3,4
 164 380 164 380 139.5 380 c 128,-1,5
 115 380 115 380 93 385 c 1,6,7
 91 399 91 399 91 427.5 c 128,-1,8
 91 456 91 456 97 484 c 1,9,10
 121 487 121 487 148.5 487 c 128,-1,11
 176 487 176 487 196 478 c 1,0,1
116 323 m 1,12,13
 122 324 122 324 139 324 c 128,-1,14
 156 324 156 324 170 322 c 1,15,-1
 194 -240 l 1,16,17
 164 -242 164 -242 144 -242 c 128,-1,18
 124 -242 124 -242 102 -237 c 1,19,-1
 116 323 l 1,12,13
EndSplineSet
EndChar

StartChar: cent
Encoding: 162 162 99
Width: 521
GlyphClass: 2
Flags: W
LayerCount: 2
Fore
SplineSet
316 -11 m 1,0,-1
 315 -127 l 1,1,2
 309 -129 309 -129 293.5 -129 c 128,-1,3
 278 -129 278 -129 268 -127 c 1,4,5
 268 -55 268 -55 266 -11 c 1,6,7
 50 6 50 6 50 267 c 128,-1,8
 50 528 50 528 260 551 c 1,9,-1
 260 677 l 1,10,11
 269 680 269 680 293.5 680 c 128,-1,12
 318 680 318 680 324 678 c 1,13,14
 322 594 322 594 322 552 c 1,15,16
 403 546 403 546 459 514 c 1,17,18
 456 418 456 418 439 373 c 1,19,20
 416 368 416 368 377 368 c 1,21,-1
 351 489 l 1,22,23
 315 492 315 492 310 492 c 0,24,25
 234 492 234 492 189 444 c 128,-1,26
 144 396 144 396 144 293 c 0,27,28
 144 180 144 180 174 120 c 0,29,30
 210 50 210 50 312 50 c 0,31,32
 357 50 357 50 458 95 c 1,33,34
 477 69 477 69 479 46 c 1,35,36
 403 -1 403 -1 316 -11 c 1,0,-1
EndSplineSet
EndChar

StartChar: sterling
Encoding: 163 163 100
Width: 526
GlyphClass: 2
Flags: W
LayerCount: 2
Fore
SplineSet
269 336 m 2,0,-1
 237 336 l 1,1,2
 265 284 265 284 265 247.5 c 128,-1,3
 265 211 265 211 253.5 179 c 128,-1,4
 242 147 242 147 233 132 c 128,-1,5
 224 117 224 117 201 89.5 c 128,-1,6
 178 62 178 62 176 60 c 1,7,-1
 394 60 l 1,8,9
 399 129 399 129 406 155 c 1,10,11
 438 155 438 155 458 149 c 1,12,13
 470 73 470 73 470 0 c 1,14,-1
 73 0 l 1,15,16
 61 14 61 14 61 63 c 1,17,18
 65 72 65 72 95 101 c 0,19,20
 176 179 176 179 176 225 c 0,21,22
 176 258 176 258 136 340 c 1,23,-1
 64 343 l 1,24,25
 61 356 61 356 61 367 c 1,26,-1
 64 391 l 1,27,28
 83 394 83 394 108 397 c 1,29,30
 79 462 79 462 79 514 c 0,31,32
 79 603 79 603 123.5 657.5 c 128,-1,33
 168 712 168 712 248 712 c 0,34,35
 346 712 346 712 427 645 c 1,36,37
 427 580 427 580 410 527 c 1,38,39
 388 522 388 522 352 522 c 1,40,-1
 329 646 l 1,41,42
 308 653 308 653 262.5 653 c 128,-1,43
 217 653 217 653 191.5 614 c 128,-1,44
 166 575 166 575 166 524 c 128,-1,45
 166 473 166 473 202 403 c 1,46,-1
 394 396 l 1,47,48
 396 386 396 386 396 370 c 1,49,-1
 394 348 l 1,50,51
 325 336 325 336 269 336 c 2,0,-1
EndSplineSet
EndChar

StartChar: currency
Encoding: 164 164 101
Width: 597
GlyphClass: 2
Flags: W
LayerCount: 2
Fore
SplineSet
172 516 m 1,0,1
 223 556 223 556 302.5 556 c 128,-1,2
 382 556 382 556 431 519 c 1,3,4
 509 597 509 597 520 604 c 1,5,6
 559 582 559 582 575 555 c 1,7,-1
 565 532 l 1,8,9
 534 517 534 517 471 473 c 1,10,11
 498 428 498 428 498 354 c 128,-1,12
 498 280 498 280 460 227 c 1,13,14
 547 169 547 169 566 160 c 1,15,16
 576 144 576 144 576 137 c 1,17,18
 564 116 564 116 521 88 c 1,19,20
 504 99 504 99 419 186 c 1,21,22
 371 152 371 152 303.5 152 c 128,-1,23
 236 152 236 152 188 180 c 1,24,25
 103 95 103 95 92 88 c 1,26,27
 53 110 53 110 37 137 c 1,28,-1
 47 160 l 1,29,30
 82 176 82 176 141 219 c 1,31,32
 101 270 101 270 101 345.5 c 128,-1,33
 101 421 101 421 132 471 c 1,34,35
 63 518 63 518 36 532 c 1,36,37
 26 548 26 548 26 555 c 1,38,39
 40 580 40 580 81 604 c 1,40,41
 96 594 96 594 172 516 c 1,0,1
302 212 m 0,42,43
 407 212 407 212 407 351 c 0,44,45
 407 424 407 424 385.5 460 c 128,-1,46
 364 496 364 496 310 496 c 128,-1,47
 256 496 256 496 223 480 c 1,48,49
 192 419 192 419 192 353.5 c 128,-1,50
 192 288 192 288 220 250 c 128,-1,51
 248 212 248 212 302 212 c 0,42,43
EndSplineSet
EndChar

StartChar: yen
Encoding: 165 165 102
Width: 687
GlyphClass: 2
Flags: W
LayerCount: 2
Fore
SplineSet
432 249 m 2,0,-1
 393 249 l 1,1,-1
 393 198 l 1,2,3
 495 195 495 195 536 195 c 1,4,5
 537 187 537 187 537 171 c 2,6,-1
 536 145 l 1,7,8
 484 136 484 136 439 136 c 2,9,-1
 390 136 l 1,10,-1
 390 68 l 1,11,-1
 473 60 l 1,12,13
 473 30 473 30 457 0 c 1,14,-1
 226 0 l 1,15,-1
 223 35 l 1,16,17
 284 56 284 56 315 59 c 1,18,-1
 315 137 l 1,19,-1
 178 140 l 1,20,21
 176 156 176 156 176 163 c 2,22,-1
 178 191 l 1,23,24
 223 200 223 200 257 200 c 128,-1,25
 291 200 291 200 311 199 c 1,26,-1
 311 250 l 1,27,-1
 171 253 l 1,28,29
 169 269 169 269 169 276 c 2,30,-1
 171 304 l 1,31,32
 223 313 223 313 268 313 c 2,33,-1
 276 313 l 1,34,-1
 100 641 l 1,35,36
 60 649 60 649 10 665 c 1,37,-1
 13 700 l 1,38,-1
 273 700 l 1,39,40
 290 668 290 668 290 640 c 1,41,42
 241 637 241 637 200 634 c 1,43,-1
 349 331 l 1,44,-1
 360 331 l 1,45,-1
 509 641 l 1,46,47
 469 647 469 647 415 665 c 1,48,-1
 418 700 l 1,49,-1
 660 700 l 1,50,51
 677 668 677 668 677 640 c 1,52,53
 633 637 633 637 592 634 c 1,54,-1
 424 310 l 1,55,-1
 529 308 l 1,56,57
 530 300 530 300 530 284 c 2,58,-1
 529 258 l 1,59,60
 477 249 477 249 432 249 c 2,0,-1
EndSplineSet
EndChar

StartChar: brokenbar
Encoding: 166 166 103
Width: 298
GlyphClass: 2
Flags: W
LayerCount: 2
Fore
SplineSet
105 381 m 1,0,-1
 100 749 l 1,1,2
 112 752 112 752 150 752 c 128,-1,3
 188 752 188 752 198 750 c 1,4,5
 196 506 196 506 194 382 c 1,6,-1
 105 381 l 1,0,-1
112 -216 m 1,7,-1
 108 128 l 1,8,-1
 191 128 l 1,9,10
 189 12 189 12 187 -216 c 1,11,12
 179 -219 179 -219 150.5 -219 c 128,-1,13
 122 -219 122 -219 112 -216 c 1,7,-1
EndSplineSet
EndChar

StartChar: section
Encoding: 167 167 104
Width: 510
GlyphClass: 2
Flags: W
LayerCount: 2
Fore
SplineSet
90 579 m 0,0,1
 90 648 90 648 136 687.5 c 128,-1,2
 182 727 182 727 263.5 727 c 128,-1,3
 345 727 345 727 417 690 c 1,4,5
 418 680 418 680 418 637 c 128,-1,6
 418 594 418 594 409 562 c 1,7,8
 389 554 389 554 352 554 c 1,9,-1
 319 656 l 1,10,11
 297 667 297 667 259.5 667 c 128,-1,12
 222 667 222 667 200 647.5 c 128,-1,13
 178 628 178 628 178 598.5 c 128,-1,14
 178 569 178 569 205 544.5 c 128,-1,15
 232 520 232 520 270.5 500 c 128,-1,16
 309 480 309 480 347.5 457.5 c 128,-1,17
 386 435 386 435 413 401.5 c 128,-1,18
 440 368 440 368 440 320.5 c 128,-1,19
 440 273 440 273 406 222 c 128,-1,20
 372 171 372 171 321 144 c 1,21,22
 368 116 368 116 394 86 c 128,-1,23
 420 56 420 56 420 14 c 0,24,25
 420 -55 420 -55 374 -94.5 c 128,-1,26
 328 -134 328 -134 246.5 -134 c 128,-1,27
 165 -134 165 -134 93 -97 c 1,28,29
 92 -87 92 -87 92 -44 c 128,-1,30
 92 -1 92 -1 101 31 c 1,31,32
 121 39 121 39 158 39 c 1,33,-1
 191 -63 l 1,34,35
 213 -74 213 -74 250.5 -74 c 128,-1,36
 288 -74 288 -74 310 -54.5 c 128,-1,37
 332 -35 332 -35 332 -5.5 c 128,-1,38
 332 24 332 24 305 48.5 c 128,-1,39
 278 73 278 73 239.5 93 c 128,-1,40
 201 113 201 113 162.5 135.5 c 128,-1,41
 124 158 124 158 97 191.5 c 128,-1,42
 70 225 70 225 70 272.5 c 128,-1,43
 70 320 70 320 104 371 c 128,-1,44
 138 422 138 422 189 448 c 1,45,46
 142 477 142 477 116 507 c 128,-1,47
 90 537 90 537 90 579 c 0,0,1
329 210.5 m 128,-1,49
 354 238 354 238 354 283 c 128,-1,50
 354 328 354 328 324.5 357.5 c 128,-1,51
 295 387 295 387 239 419 c 1,52,53
 205 410 205 410 180.5 382.5 c 128,-1,54
 156 355 156 355 156 310 c 128,-1,55
 156 265 156 265 185 235.5 c 128,-1,56
 214 206 214 206 270 173 c 1,57,48
 304 183 304 183 329 210.5 c 128,-1,49
EndSplineSet
EndChar

StartChar: dieresis
Encoding: 168 168 105
Width: 833
GlyphClass: 2
Flags: W
LayerCount: 2
Fore
SplineSet
292 606 m 1,0,1
 272 602 272 602 249.5 602 c 128,-1,2
 227 602 227 602 213 604 c 1,3,4
 208 622 208 622 208 640.5 c 128,-1,5
 208 659 208 659 210 683 c 1,6,7
 225 686 225 686 251 686 c 128,-1,8
 277 686 277 686 289 685 c 1,9,10
 293 663 293 663 293 639.5 c 128,-1,11
 293 616 293 616 292 606 c 1,0,1
457 606 m 1,12,13
 437 602 437 602 414.5 602 c 128,-1,14
 392 602 392 602 378 604 c 1,15,16
 373 622 373 622 373 640.5 c 128,-1,17
 373 659 373 659 375 683 c 1,18,19
 390 686 390 686 416 686 c 128,-1,20
 442 686 442 686 454 685 c 1,21,22
 458 663 458 663 458 639.5 c 128,-1,23
 458 616 458 616 457 606 c 1,12,13
EndSplineSet
EndChar

StartChar: copyright
Encoding: 169 169 106
Width: 833
GlyphClass: 2
Flags: W
LayerCount: 2
Fore
SplineSet
19 368 m 128,-1,1
 19 467 19 467 50.5 542 c 128,-1,2
 82 617 82 617 137 661 c 0,3,4
 247 749 247 749 412 749 c 256,5,6
 577 749 577 749 688 656 c 0,7,8
 742 611 742 611 773.5 537 c 128,-1,9
 805 463 805 463 805 366 c 128,-1,10
 805 269 805 269 773.5 193.5 c 128,-1,11
 742 118 742 118 687 74 c 128,-1,12
 632 30 632 30 563 8 c 128,-1,13
 494 -14 494 -14 412 -14 c 128,-1,14
 330 -14 330 -14 261 8 c 128,-1,15
 192 30 192 30 137 74 c 128,-1,16
 82 118 82 118 50.5 193.5 c 128,-1,0
 19 269 19 269 19 368 c 128,-1,1
110 364 m 0,17,18
 110 224 110 224 187.5 133 c 128,-1,19
 265 42 265 42 409.5 42 c 128,-1,20
 554 42 554 42 634.5 134 c 128,-1,21
 715 226 715 226 715 373.5 c 128,-1,22
 715 521 715 521 639.5 604.5 c 128,-1,23
 564 688 564 688 412 688 c 0,24,25
 331 688 331 688 271 664 c 0,26,27
 110 601 110 601 110 364 c 0,17,18
418 144 m 0,28,29
 329 144 329 144 275 199 c 128,-1,30
 221 254 221 254 221 367 c 128,-1,31
 221 480 221 480 271.5 537.5 c 128,-1,32
 322 595 322 595 421 595 c 0,33,34
 458 595 458 595 493 584 c 128,-1,35
 528 573 528 573 544 562 c 2,36,-1
 560 551 l 1,37,38
 560 515 560 515 552 463 c 1,39,40
 538 461 538 461 516 461 c 1,41,-1
 497 538 l 1,42,43
 464 545 464 545 432 545 c 0,44,45
 376 545 376 545 328 527 c 1,46,47
 295 472 295 472 295 380 c 0,48,49
 295 194 295 194 416 194 c 0,50,51
 469 194 469 194 503 212 c 1,52,-1
 516 287 l 1,53,-1
 552 285 l 1,54,55
 561 217 561 217 561 177 c 1,56,57
 548 167 548 167 505 155.5 c 128,-1,58
 462 144 462 144 418 144 c 0,28,29
EndSplineSet
EndChar

StartChar: ordfeminine
Encoding: 170 170 107
Width: 374
GlyphClass: 2
Flags: W
LayerCount: 2
Fore
SplineSet
132 340 m 0,0,1
 82 340 82 340 52 366.5 c 128,-1,2
 22 393 22 393 22 446 c 0,3,4
 22 548 22 548 156 554 c 0,5,6
 208 556 208 556 235 556 c 1,7,-1
 234 580 l 2,8,9
 232 628 232 628 216 649.5 c 128,-1,10
 200 671 200 671 156 671 c 0,11,12
 139 671 139 671 117 663 c 1,13,-1
 100 592 l 1,14,-1
 59 594 l 1,15,16
 48 624 48 624 48 677 c 1,17,18
 61 684 61 684 108 698.5 c 128,-1,19
 155 713 155 713 169 713 c 0,20,21
 241 713 241 713 270.5 681 c 128,-1,22
 300 649 300 649 300 580 c 128,-1,23
 300 511 300 511 296 397 c 1,24,25
 317 396 317 396 356 388 c 1,26,-1
 355 363 l 1,27,28
 320 344 320 344 258 344 c 1,29,30
 244 370 244 370 244 392 c 1,31,32
 163 340 163 340 132 340 c 0,0,1
147 388 m 0,33,34
 167 388 167 388 241 433 c 1,35,-1
 237 521 l 1,36,-1
 162 514 l 2,37,38
 86 506 86 506 86 447 c 128,-1,39
 86 388 86 388 147 388 c 0,33,34
EndSplineSet
EndChar

StartChar: guillemotleft
Encoding: 171 171 108
Width: 479
GlyphClass: 2
Flags: W
LayerCount: 2
Fore
SplineSet
57 246 m 2,0,1
 55 249 55 249 55 258.5 c 128,-1,2
 55 268 55 268 56 271 c 0,3,4
 118 357 118 357 137 378.5 c 128,-1,5
 156 400 156 400 181 426 c 1,6,7
 195 422 195 422 229 392 c 1,8,9
 150 276 150 276 134 258 c 1,10,11
 145 245 145 245 161 224 c 1,12,-1
 229 124 l 1,13,14
 201 92 201 92 181 90 c 1,15,16
 134 136 134 136 102 181 c 2,17,-1
 57 246 l 2,0,1
237 246 m 2,18,19
 235 249 235 249 235 258.5 c 128,-1,20
 235 268 235 268 236 271 c 0,21,22
 298 357 298 357 317 378.5 c 128,-1,23
 336 400 336 400 361 426 c 1,24,25
 375 422 375 422 409 392 c 1,26,27
 330 276 330 276 314 258 c 1,28,29
 325 245 325 245 341 224 c 1,30,-1
 409 124 l 1,31,32
 381 92 381 92 361 90 c 1,33,34
 314 136 314 136 282 181 c 2,35,-1
 237 246 l 2,18,19
EndSplineSet
EndChar

StartChar: logicalnot
Encoding: 172 172 109
Width: 518
GlyphClass: 2
Flags: W
LayerCount: 2
Fore
SplineSet
38 299 m 1,0,1
 102 311 102 311 137 311 c 128,-1,2
 172 311 172 311 208.5 310 c 128,-1,3
 245 309 245 309 288 308 c 0,4,5
 406 305 406 305 468 303 c 1,6,-1
 468 103 l 1,7,8
 454 100 454 100 440 100 c 1,9,-1
 407 103 l 1,10,-1
 393 232 l 1,11,-1
 335 232 l 1,12,-1
 38 238 l 1,13,14
 35 252 35 252 35 266 c 1,15,-1
 38 299 l 1,0,1
EndSplineSet
EndChar

StartChar: uni00AD
Encoding: 173 173 110
Width: 386
GlyphClass: 2
Flags: W
LayerCount: 2
Fore
SplineSet
309 282 m 1,0,1
 311 266 311 266 311 255 c 2,2,-1
 309 220 l 1,3,4
 257 215 257 215 211 215 c 1,5,-1
 77 220 l 1,6,7
 75 227 75 227 75 246 c 1,8,-1
 77 282 l 1,9,10
 129 287 129 287 175 287 c 1,11,-1
 309 282 l 1,0,1
EndSplineSet
EndChar

StartChar: registered
Encoding: 174 174 111
Width: 530
GlyphClass: 2
Flags: W
LayerCount: 2
Fore
SplineSet
246 629 m 1,0,-1
 245 554 l 1,1,-1
 270 554 l 2,2,3
 297 554 297 554 311 561.5 c 128,-1,4
 325 569 325 569 325 595 c 0,5,6
 325 630 325 630 274 630 c 0,7,8
 259 630 259 630 246 629 c 1,0,-1
244 527 m 1,9,-1
 243 443 l 1,10,-1
 271 441 l 1,11,12
 271 432 271 432 266 420 c 1,13,-1
 177 420 l 1,14,-1
 176 433 l 1,15,16
 190 437 190 437 205 440 c 1,17,18
 205 548 205 548 202 632 c 1,19,-1
 172 645 l 1,20,-1
 173 658 l 1,21,-1
 265 658 l 2,22,23
 318 658 318 658 344 646 c 128,-1,24
 370 634 370 634 370 597 c 0,25,26
 370 545 370 545 312 529 c 1,27,-1
 370 443 l 1,28,-1
 398 441 l 1,29,30
 398 430 398 430 392 420 c 1,31,-1
 340 420 l 1,32,-1
 269 527 l 1,33,-1
 244 527 l 1,9,-1
122 377 m 128,-1,35
 56 434 56 434 56 539.5 c 128,-1,36
 56 645 56 645 121 697 c 128,-1,37
 186 749 186 749 281 749 c 128,-1,38
 376 749 376 749 442 695 c 128,-1,39
 508 641 508 641 508 537.5 c 128,-1,40
 508 434 508 434 442 377 c 128,-1,41
 376 320 376 320 282 320 c 128,-1,34
 188 320 188 320 122 377 c 128,-1,35
116 538 m 0,42,43
 116 461 116 461 158.5 410.5 c 128,-1,44
 201 360 201 360 280.5 360 c 128,-1,45
 360 360 360 360 404.5 411 c 128,-1,46
 449 462 449 462 449 541.5 c 128,-1,47
 449 621 449 621 405.5 663.5 c 128,-1,48
 362 706 362 706 282 706 c 0,49,50
 116 706 116 706 116 538 c 0,42,43
EndSplineSet
EndChar

StartChar: macron
Encoding: 175 175 112
Width: 297
GlyphClass: 2
Flags: W
LayerCount: 2
Fore
SplineSet
262 700 m 1,0,1
 264 684 264 684 264 674 c 2,2,-1
 262 639 l 1,3,4
 210 634 210 634 164 634 c 1,5,-1
 43 639 l 1,6,7
 41 653 41 653 41 665 c 2,8,-1
 43 700 l 1,9,10
 95 705 95 705 141 705 c 1,11,-1
 262 700 l 1,0,1
EndSplineSet
EndChar

StartChar: degree
Encoding: 176 176 113
Width: 442
GlyphClass: 2
Flags: W
LayerCount: 2
Fore
SplineSet
126 721 m 128,-1,1
 157 749 157 749 209 749 c 128,-1,2
 261 749 261 749 291 720 c 128,-1,3
 321 691 321 691 321 634 c 128,-1,4
 321 577 321 577 291 544.5 c 128,-1,5
 261 512 261 512 210 512 c 0,6,7
 95 512 95 512 95 639 c 0,8,0
 95 693 95 693 126 721 c 128,-1,1
209 550 m 0,9,10
 267 550 267 550 267 634 c 0,11,12
 267 670 267 670 250.5 688 c 128,-1,13
 234 706 234 706 208 706 c 128,-1,14
 182 706 182 706 164 689 c 128,-1,15
 146 672 146 672 146 634 c 0,16,17
 146 550 146 550 209 550 c 0,9,10
EndSplineSet
EndChar

StartChar: plusminus
Encoding: 177 177 114
Width: 566
GlyphClass: 2
Flags: W
LayerCount: 2
Fore
SplineSet
169 346 m 2,0,-1
 242 345 l 1,1,-1
 247 557 l 1,2,3
 261 560 261 560 275 560 c 1,4,-1
 308 557 l 1,5,6
 320 493 320 493 320 440 c 128,-1,7
 320 387 320 387 319 343 c 1,8,-1
 518 339 l 1,9,10
 520 329 520 329 520 310 c 1,11,-1
 518 280 l 1,12,13
 454 268 454 268 404.5 268 c 128,-1,14
 355 268 355 268 317 269 c 1,15,-1
 313 49 l 1,16,17
 303 47 303 47 284 47 c 1,18,-1
 252 49 l 1,19,20
 240 113 240 113 240 167.5 c 128,-1,21
 240 222 240 222 241 270 c 1,22,-1
 48 275 l 1,23,24
 45 288 45 288 45 302 c 1,25,-1
 48 334 l 1,26,27
 112 346 112 346 169 346 c 2,0,-1
518 -7 m 1,28,29
 520 -17 520 -17 520 -36 c 1,30,-1
 518 -66 l 1,31,32
 454 -78 454 -78 398 -78 c 1,33,-1
 48 -71 l 1,34,35
 45 -58 45 -58 45 -44 c 1,36,-1
 48 -12 l 1,37,38
 112 0 112 0 169 0 c 1,39,-1
 518 -7 l 1,28,29
EndSplineSet
EndChar

StartChar: twosuperior
Encoding: 178 178 115
Width: 347
GlyphClass: 2
Flags: W
LayerCount: 2
Fore
SplineSet
321 271 m 1,0,-1
 34 271 l 1,1,2
 26 287 26 287 26 327 c 1,3,4
 162 476 162 476 195 524.5 c 128,-1,5
 228 573 228 573 228 614 c 128,-1,6
 228 655 228 655 209 672.5 c 128,-1,7
 190 690 190 690 157.5 690 c 128,-1,8
 125 690 125 690 112 686 c 1,9,-1
 95 600 l 1,10,-1
 55 602 l 1,11,12
 43 637 43 637 43 700 c 1,13,14
 90 747 90 747 168.5 747 c 128,-1,15
 247 747 247 747 282 715 c 128,-1,16
 317 683 317 683 317 630.5 c 128,-1,17
 317 578 317 578 286.5 531.5 c 128,-1,18
 256 485 256 485 123 336 c 1,19,-1
 125 327 l 1,20,-1
 267 328 l 1,21,22
 271 376 271 376 276 394 c 1,23,-1
 312 391 l 1,24,25
 321 329 321 329 321 271 c 1,0,-1
EndSplineSet
EndChar

StartChar: threesuperior
Encoding: 179 179 116
Width: 346
GlyphClass: 2
Flags: W
LayerCount: 2
Fore
SplineSet
141 487 m 0,0,1
 139 487 139 487 100 484 c 1,2,3
 98 487 98 487 98 506.5 c 128,-1,4
 98 526 98 526 99 535 c 1,5,-1
 130 539 l 2,6,7
 168 543 168 543 195.5 565 c 128,-1,8
 223 587 223 587 223 619 c 0,9,10
 223 694 223 694 137 694 c 0,11,12
 125 694 125 694 105 689 c 1,13,-1
 88 602 l 1,14,-1
 48 605 l 1,15,16
 36 646 36 646 36 703 c 1,17,18
 51 720 51 720 84.5 735 c 128,-1,19
 118 750 118 750 143 750 c 0,20,21
 212 750 212 750 256.5 719 c 128,-1,22
 301 688 301 688 301 644 c 0,23,24
 301 568 301 568 212 530 c 1,25,26
 255 530 255 530 288 503.5 c 128,-1,27
 321 477 321 477 321 425 c 0,28,29
 321 355 321 355 259.5 311.5 c 128,-1,30
 198 268 198 268 137.5 268 c 128,-1,31
 77 268 77 268 25 286 c 1,32,33
 27 325 27 325 34 338 c 1,34,35
 85 327 85 327 107.5 327 c 128,-1,36
 130 327 130 327 144 329 c 128,-1,37
 158 331 158 331 183 338 c 128,-1,38
 208 345 208 345 224.5 364 c 128,-1,39
 241 383 241 383 241 415.5 c 128,-1,40
 241 448 241 448 213.5 467.5 c 128,-1,41
 186 487 186 487 141 487 c 0,0,1
EndSplineSet
EndChar

StartChar: acute
Encoding: 180 180 117
Width: 280
GlyphClass: 2
Flags: W
LayerCount: 2
Fore
SplineSet
64 622 m 1,0,-1
 204 736 l 1,1,2
 243 706 243 706 246 675 c 1,3,4
 222 652 222 652 186.5 628.5 c 128,-1,5
 151 605 151 605 104 581 c 1,6,7
 86 594 86 594 64 622 c 1,0,-1
EndSplineSet
EndChar

StartChar: mu
Encoding: 181 181 118
AltUni2: 0003bc.ffffffff.0
Width: 600
GlyphClass: 2
Flags: W
LayerCount: 2
Fore
SplineSet
198 428 m 2,0,-1
 199 212 l 2,1,2
 199 136 199 136 218 101 c 128,-1,3
 237 66 237 66 299 66 c 0,4,5
 328 66 328 66 364 78.5 c 128,-1,6
 400 91 400 91 423 109 c 1,7,8
 419 322 419 322 416 432 c 1,9,10
 354 432 354 432 324 444 c 1,11,-1
 328 496 l 1,12,13
 413 511 413 511 461.5 511 c 128,-1,14
 510 511 510 511 523 509 c 1,15,16
 523 485 523 485 517 456 c 128,-1,17
 511 427 511 427 510 428 c 1,18,-1
 498 71 l 1,19,20
 551 68 551 68 584 59 c 1,21,-1
 582 8 l 1,22,23
 533 -7 533 -7 447 -7 c 1,24,25
 428 30 428 30 425 65 c 1,26,27
 376 28 376 28 334.5 8 c 128,-1,28
 293 -12 293 -12 280 -12 c 0,29,30
 226 -12 226 -12 193 6 c 1,31,-1
 190 -205 l 1,32,33
 176 -224 176 -224 162 -229 c 1,34,-1
 32 -229 l 1,35,-1
 29 -195 l 1,36,37
 72 -179 72 -179 116 -171 c 1,38,39
 110 229 110 229 106 434 c 1,40,41
 37 438 37 438 15 444 c 1,42,-1
 19 496 l 1,43,44
 104 511 104 511 151 511 c 128,-1,45
 198 511 198 511 211 509 c 1,46,47
 211 485 211 485 205 456 c 128,-1,48
 199 427 199 427 198 428 c 2,0,-1
EndSplineSet
EndChar

StartChar: paragraph
Encoding: 182 182 119
Width: 657
GlyphClass: 2
Flags: W
LayerCount: 2
Fore
SplineSet
450 706 m 0,0,1
 547 706 547 706 598 691 c 1,2,3
 602 663 602 663 602 639 c 1,4,5
 569 630 569 630 514 627 c 1,6,7
 513 553 513 553 509 317.5 c 128,-1,8
 505 82 505 82 504 -46 c 1,9,10
 544 -54 544 -54 594 -70 c 1,11,-1
 591 -105 l 1,12,-1
 426 -105 l 1,13,-1
 419 624 l 1,14,15
 416 621 416 621 411 656.5 c 128,-1,16
 406 692 406 692 406 704 c 1,17,18
 419 706 419 706 450 706 c 0,0,1
284 -46 m 1,19,-1
 278 273 l 1,20,21
 170 273 170 273 117.5 333.5 c 128,-1,22
 65 394 65 394 65 492.5 c 128,-1,23
 65 591 65 591 123 648 c 128,-1,24
 181 705 181 705 282 705 c 1,25,-1
 342 706 l 2,26,27
 370 706 370 706 382 704 c 1,28,29
 382 679 382 679 376 651 c 128,-1,30
 370 623 370 623 369 624 c 1,31,32
 365 283 365 283 362 -105 c 1,33,-1
 197 -105 l 1,34,-1
 194 -70 l 1,35,36
 240 -54 240 -54 284 -46 c 1,19,-1
EndSplineSet
EndChar

StartChar: periodcentered
Encoding: 183 183 120
Width: 208
GlyphClass: 2
Flags: W
LayerCount: 2
Fore
SplineSet
156 240 m 1,0,1
 130 234 130 234 105.5 234 c 128,-1,2
 81 234 81 234 57 237 c 1,3,4
 51 265 51 265 51 293.5 c 128,-1,5
 51 322 51 322 53 336 c 1,6,7
 75 341 75 341 99.5 341 c 128,-1,8
 124 341 124 341 152 339 c 1,9,10
 158 313 158 313 158 288.5 c 128,-1,11
 158 264 158 264 156 240 c 1,0,1
EndSplineSet
EndChar

StartChar: cedilla
Encoding: 184 184 121
Width: 330
GlyphClass: 2
Flags: W
LayerCount: 2
Fore
SplineSet
232 -123 m 0,0,1
 232 -104 232 -104 170 -82 c 1,2,3
 170 -56 170 -56 205 22 c 1,4,5
 211 25 211 25 221.5 25 c 128,-1,6
 232 25 232 25 240 22 c 1,7,8
 224 -32 224 -32 216 -52 c 1,9,10
 296 -86 296 -86 296 -114.5 c 128,-1,11
 296 -143 296 -143 268.5 -174.5 c 128,-1,12
 241 -206 241 -206 206 -218 c 1,13,-1
 195 -205 l 1,14,15
 199 -194 199 -194 208 -176 c 0,16,17
 232 -130 232 -130 232 -123 c 0,0,1
EndSplineSet
EndChar

StartChar: onesuperior
Encoding: 185 185 122
Width: 343
GlyphClass: 2
Flags: W
LayerCount: 2
Fore
SplineSet
36 317 m 1,0,-1
 132 334 l 1,1,2
 128 557 128 557 125 672 c 1,3,4
 105 661 105 661 75 652.5 c 128,-1,5
 45 644 45 644 33 644 c 1,6,7
 20 670 20 670 20 702 c 1,8,-1
 171 748 l 1,9,10
 201 739 201 739 209 725 c 1,11,12
 208 698 208 698 200 340 c 1,13,-1
 263 335 l 1,14,15
 263 305 263 305 251 278 c 1,16,-1
 36 278 l 1,17,-1
 36 317 l 1,0,-1
EndSplineSet
EndChar

StartChar: ordmasculine
Encoding: 186 186 123
Width: 431
GlyphClass: 2
Flags: W
LayerCount: 2
Fore
SplineSet
134 420 m 128,-1,1
 155 382 155 382 212.5 382 c 128,-1,2
 270 382 270 382 290.5 419 c 128,-1,3
 311 456 311 456 311 524.5 c 128,-1,4
 311 593 311 593 290.5 631.5 c 128,-1,5
 270 670 270 670 221 670 c 128,-1,6
 172 670 172 670 141 655 c 1,7,8
 113 600 113 600 113 529 c 128,-1,0
 113 458 113 458 134 420 c 128,-1,1
89.5 663 m 128,-1,10
 130 713 130 713 215 713 c 128,-1,11
 300 713 300 713 337.5 667.5 c 128,-1,12
 375 622 375 622 375 532 c 128,-1,13
 375 442 375 442 335 390.5 c 128,-1,14
 295 339 295 339 214 339 c 0,15,16
 49 339 49 339 49 523 c 0,17,9
 49 613 49 613 89.5 663 c 128,-1,10
EndSplineSet
EndChar

StartChar: guillemotright
Encoding: 187 187 124
Width: 479
GlyphClass: 2
Flags: W
LayerCount: 2
Fore
SplineSet
422 270 m 2,0,1
 424 267 424 267 424 257.5 c 128,-1,2
 424 248 424 248 423 245 c 0,3,4
 361 159 361 159 342 137 c 128,-1,5
 323 115 323 115 298 90 c 1,6,7
 284 94 284 94 250 124 c 1,8,9
 329 240 329 240 345 258 c 1,10,11
 334 270 334 270 318 292 c 2,12,-1
 250 392 l 1,13,14
 278 424 278 424 298 426 c 1,15,16
 345 380 345 380 377 335 c 2,17,-1
 422 270 l 2,0,1
242 270 m 2,18,19
 244 267 244 267 244 257.5 c 128,-1,20
 244 248 244 248 243 245 c 0,21,22
 181 159 181 159 162 137 c 128,-1,23
 143 115 143 115 118 90 c 1,24,25
 104 94 104 94 70 124 c 1,26,27
 149 240 149 240 165 258 c 1,28,29
 154 270 154 270 138 292 c 2,30,-1
 70 392 l 1,31,32
 98 424 98 424 118 426 c 1,33,34
 165 380 165 380 197 335 c 2,35,-1
 242 270 l 2,18,19
EndSplineSet
EndChar

StartChar: onequarter
Encoding: 188 188 125
Width: 857
GlyphClass: 2
Flags: W
LayerCount: 2
Fore
SplineSet
700 692 m 1,0,-1
 178 -12 l 1,1,2
 166 -7 166 -7 140 17 c 1,3,-1
 635 736 l 1,4,5
 670 722 670 722 700 692 c 1,0,-1
687 179 m 1,6,-1
 685 407 l 1,7,-1
 542 179 l 1,8,-1
 687 179 l 1,6,-1
831 179 m 1,9,10
 831 138 831 138 824 120 c 1,11,-1
 754 120 l 1,12,-1
 749 3 l 1,13,14
 731 1 731 1 719 1 c 128,-1,15
 707 1 707 1 694 4 c 1,16,-1
 688 120 l 1,17,-1
 476 120 l 1,18,19
 468 139 468 139 468 173 c 1,20,-1
 655 473 l 1,21,-1
 762 473 l 1,22,23
 759 375 759 375 755 179 c 1,24,-1
 831 179 l 1,9,10
36 317 m 1,25,-1
 132 334 l 1,26,27
 128 557 128 557 125 672 c 1,28,29
 105 661 105 661 75 652.5 c 128,-1,30
 45 644 45 644 33 644 c 1,31,32
 20 670 20 670 20 702 c 1,33,-1
 171 748 l 1,34,35
 201 739 201 739 209 725 c 1,36,37
 208 698 208 698 200 340 c 1,38,-1
 263 335 l 1,39,40
 263 305 263 305 251 278 c 1,41,-1
 36 278 l 1,42,-1
 36 317 l 1,25,-1
EndSplineSet
EndChar

StartChar: onehalf
Encoding: 189 189 126
Width: 847
GlyphClass: 2
Flags: W
LayerCount: 2
Fore
SplineSet
700 692 m 1,0,-1
 178 -12 l 1,1,2
 166 -7 166 -7 140 17 c 1,3,-1
 635 736 l 1,4,5
 670 722 670 722 700 692 c 1,0,-1
36 317 m 1,6,-1
 132 334 l 1,7,8
 128 557 128 557 125 672 c 1,9,10
 105 661 105 661 75 652.5 c 128,-1,11
 45 644 45 644 33 644 c 1,12,13
 20 670 20 670 20 702 c 1,14,-1
 171 748 l 1,15,16
 201 739 201 739 209 725 c 1,17,18
 208 698 208 698 200 340 c 1,19,-1
 263 335 l 1,20,21
 263 305 263 305 251 278 c 1,22,-1
 36 278 l 1,23,-1
 36 317 l 1,6,-1
826 -13 m 1,24,-1
 539 -13 l 1,25,26
 531 3 531 3 531 43 c 1,27,28
 667 192 667 192 700 240.5 c 128,-1,29
 733 289 733 289 733 330 c 128,-1,30
 733 371 733 371 714 388.5 c 128,-1,31
 695 406 695 406 662.5 406 c 128,-1,32
 630 406 630 406 617 402 c 1,33,-1
 600 316 l 1,34,-1
 560 318 l 1,35,36
 548 353 548 353 548 416 c 1,37,38
 595 463 595 463 673.5 463 c 128,-1,39
 752 463 752 463 787 431 c 128,-1,40
 822 399 822 399 822 346.5 c 128,-1,41
 822 294 822 294 791.5 247.5 c 128,-1,42
 761 201 761 201 628 52 c 1,43,-1
 630 43 l 1,44,-1
 772 44 l 1,45,46
 776 92 776 92 781 110 c 1,47,-1
 817 107 l 1,48,49
 826 45 826 45 826 -13 c 1,24,-1
EndSplineSet
EndChar

StartChar: threequarters
Encoding: 190 190 127
Width: 837
GlyphClass: 2
Flags: W
LayerCount: 2
Fore
SplineSet
680 692 m 1,0,-1
 158 -12 l 1,1,2
 146 -7 146 -7 120 17 c 1,3,-1
 615 736 l 1,4,5
 650 722 650 722 680 692 c 1,0,-1
667 179 m 1,6,-1
 665 407 l 1,7,-1
 522 179 l 1,8,-1
 667 179 l 1,6,-1
811 179 m 1,9,10
 811 138 811 138 804 120 c 1,11,-1
 734 120 l 1,12,-1
 729 3 l 1,13,14
 711 1 711 1 699.5 1 c 128,-1,15
 688 1 688 1 674 4 c 1,16,-1
 668 120 l 1,17,-1
 456 120 l 1,18,19
 448 139 448 139 448 173 c 1,20,-1
 635 473 l 1,21,-1
 742 473 l 1,22,23
 739 375 739 375 735 179 c 1,24,-1
 811 179 l 1,9,10
141 487 m 0,25,26
 139 487 139 487 100 484 c 1,27,28
 98 487 98 487 98 506.5 c 128,-1,29
 98 526 98 526 99 535 c 1,30,-1
 130 539 l 2,31,32
 168 543 168 543 195.5 565 c 128,-1,33
 223 587 223 587 223 619 c 0,34,35
 223 694 223 694 137 694 c 0,36,37
 125 694 125 694 105 689 c 1,38,-1
 88 602 l 1,39,-1
 48 605 l 1,40,41
 36 646 36 646 36 703 c 1,42,43
 51 720 51 720 84.5 735 c 128,-1,44
 118 750 118 750 143 750 c 0,45,46
 212 750 212 750 256.5 719 c 128,-1,47
 301 688 301 688 301 644 c 0,48,49
 301 568 301 568 212 530 c 1,50,51
 255 530 255 530 288 503.5 c 128,-1,52
 321 477 321 477 321 425 c 0,53,54
 321 355 321 355 259.5 311.5 c 128,-1,55
 198 268 198 268 137.5 268 c 128,-1,56
 77 268 77 268 25 286 c 1,57,58
 27 325 27 325 34 338 c 1,59,60
 85 327 85 327 107.5 327 c 128,-1,61
 130 327 130 327 144 329 c 128,-1,62
 158 331 158 331 183 338 c 128,-1,63
 208 345 208 345 224.5 364 c 128,-1,64
 241 383 241 383 241 415.5 c 128,-1,65
 241 448 241 448 213.5 467.5 c 128,-1,66
 186 487 186 487 141 487 c 0,25,26
EndSplineSet
EndChar

StartChar: questiondown
Encoding: 191 191 128
Width: 487
GlyphClass: 2
Flags: W
LayerCount: 2
Fore
SplineSet
167 3 m 128,-1,1
 145 -42 145 -42 145 -85.5 c 128,-1,2
 145 -129 145 -129 173 -156 c 128,-1,3
 201 -183 201 -183 242 -183 c 128,-1,4
 283 -183 283 -183 313 -171 c 1,5,-1
 336 -68 l 1,6,-1
 394 -70 l 1,7,8
 408 -109 408 -109 412 -181 c 1,9,10
 335 -241 335 -241 232 -241 c 0,11,12
 60 -241 60 -241 60 -73 c 0,13,14
 60 -31 60 -31 83 14 c 128,-1,15
 106 59 106 59 134 92 c 0,16,17
 216 188 216 188 231 252 c 0,18,19
 235 267 235 267 235 327 c 1,20,21
 253 330 253 330 278 330 c 1,22,23
 294 294 294 294 301 247 c 1,24,25
 295 206 295 206 269 160.5 c 128,-1,26
 243 115 243 115 216 81.5 c 128,-1,0
 189 48 189 48 167 3 c 128,-1,1
204 488 m 1,27,28
 230 494 230 494 254.5 494 c 128,-1,29
 279 494 279 494 303 491 c 1,30,31
 309 463 309 463 309 434.5 c 128,-1,32
 309 406 309 406 307 392 c 1,33,34
 285 387 285 387 261.5 387 c 128,-1,35
 238 387 238 387 208 389 c 1,36,37
 202 415 202 415 202 445 c 128,-1,38
 202 475 202 475 204 488 c 1,27,28
EndSplineSet
EndChar

StartChar: Atilde
Encoding: 195 195 132
Width: 739
GlyphClass: 2
Flags: W
LayerCount: 2
Fore
SplineSet
259 692.5 m 128,-1,1
 339 700 339 700 404.5 700 c 128,-1,2
 470 700 470 700 506 694 c 1,3,4
 507 690 507 690 507 684.5 c 128,-1,5
 507 679 507 679 501.5 659 c 128,-1,6
 496 639 496 639 493 633 c 1,7,8
 485 625 485 625 448 621 c 1,9,-1
 639 68 l 1,10,-1
 734 60 l 1,11,12
 734 32 734 32 717 0 c 1,13,-1
 487 0 l 1,14,-1
 484 35 l 1,15,16
 507 47 507 47 551 56 c 1,17,-1
 500 199 l 1,18,-1
 221 199 l 1,19,-1
 174 68 l 1,20,-1
 255 60 l 1,21,22
 255 32 255 32 238 0 c 1,23,-1
 8 0 l 1,24,-1
 5 35 l 1,25,26
 44 49 44 49 88 57 c 1,27,-1
 282 624 l 1,28,29
 193 634 193 634 157 648 c 1,30,-1
 161 679 l 1,31,0
 179 685 179 685 259 692.5 c 128,-1,1
421 422 m 1,32,-1
 368 618 l 1,33,34
 362 619 362 619 351 619 c 1,35,-1
 297 415 l 1,36,-1
 239 263 l 1,37,-1
 482 263 l 1,38,-1
 421 422 l 1,32,-1
286 828 m 1,39,40
 257 809 257 809 202 791 c 1,41,-1
 185 820 l 1,42,43
 212 857 212 857 250.5 880 c 128,-1,44
 289 903 289 903 296 903 c 0,45,46
 315 903 315 903 368.5 880 c 128,-1,47
 422 857 422 857 433 854 c 1,48,49
 490 885 490 885 517 894 c 1,50,-1
 534 865 l 1,51,52
 507 828 507 828 457 798 c 0,53,54
 453 796 453 796 446 790 c 0,55,56
 430 779 430 779 423 779 c 1,57,58
 403 786 403 786 372 799 c 0,59,60
 303 828 303 828 286 828 c 1,39,40
EndSplineSet
EndChar

StartChar: Aring
Encoding: 197 197 134
Width: 739
GlyphClass: 2
Flags: W
LayerCount: 2
Fore
SplineSet
315.5 940.5 m 128,-1,1
 299 921 299 921 299 888.5 c 128,-1,2
 299 856 299 856 315.5 837 c 128,-1,3
 332 818 332 818 359.5 818 c 128,-1,4
 387 818 387 818 403.5 837 c 128,-1,5
 420 856 420 856 420 888.5 c 128,-1,6
 420 921 420 921 403.5 940.5 c 128,-1,7
 387 960 387 960 359.5 960 c 128,-1,0
 332 960 332 960 315.5 940.5 c 128,-1,1
444.5 974 m 128,-1,9
 480 942 480 942 480 887.5 c 128,-1,10
 480 833 480 833 445 803.5 c 128,-1,11
 410 774 410 774 360 774 c 128,-1,12
 310 774 310 774 274 804 c 128,-1,13
 238 834 238 834 238 888 c 128,-1,14
 238 942 238 942 274.5 974 c 128,-1,15
 311 1006 311 1006 360 1006 c 128,-1,8
 409 1006 409 1006 444.5 974 c 128,-1,9
259 692.5 m 128,-1,17
 339 700 339 700 404.5 700 c 128,-1,18
 470 700 470 700 506 694 c 1,19,20
 507 690 507 690 507 684.5 c 128,-1,21
 507 679 507 679 501.5 659 c 128,-1,22
 496 639 496 639 493 633 c 1,23,24
 485 625 485 625 448 621 c 1,25,-1
 639 68 l 1,26,-1
 734 60 l 1,27,28
 734 32 734 32 717 0 c 1,29,-1
 487 0 l 1,30,-1
 484 35 l 1,31,32
 507 47 507 47 551 56 c 1,33,-1
 500 199 l 1,34,-1
 221 199 l 1,35,-1
 174 68 l 1,36,-1
 255 60 l 1,37,38
 255 32 255 32 238 0 c 1,39,-1
 8 0 l 1,40,-1
 5 35 l 1,41,42
 44 49 44 49 88 57 c 1,43,-1
 282 624 l 1,44,45
 193 634 193 634 157 648 c 1,46,-1
 161 679 l 1,47,16
 179 685 179 685 259 692.5 c 128,-1,17
421 422 m 1,48,-1
 368 618 l 1,49,50
 362 619 362 619 351 619 c 1,51,-1
 297 415 l 1,52,-1
 239 263 l 1,53,-1
 482 263 l 1,54,-1
 421 422 l 1,48,-1
EndSplineSet
EndChar

StartChar: AE
Encoding: 198 198 135
Width: 924
GlyphClass: 2
Flags: W
LayerCount: 2
Fore
SplineSet
448 263 m 1,0,-1
 442 629 l 1,1,-1
 243 263 l 1,2,-1
 448 263 l 1,0,-1
452 58 m 1,3,4
 452 121 452 121 449 199 c 1,5,-1
 212 199 l 1,6,-1
 139 68 l 1,7,-1
 220 60 l 1,8,9
 220 32 220 32 203 0 c 1,10,-1
 -27 0 l 1,11,-1
 -30 35 l 1,12,13
 9 49 9 49 53 57 c 1,14,-1
 361 638 l 1,15,-1
 277 662 l 1,16,-1
 282 699 l 1,17,-1
 841 699 l 1,18,19
 843 686 843 686 843 660 c 0,20,21
 843 605 843 605 829 541 c 1,22,23
 807 536 807 536 771 536 c 1,24,-1
 747 631 l 1,25,-1
 542 631 l 1,26,27
 542 631 542 631 537 390 c 1,28,-1
 695 390 l 1,29,-1
 703 462 l 1,30,31
 731 462 731 462 763 445 c 1,32,-1
 763 255 l 1,33,-1
 728 252 l 1,34,35
 713 295 713 295 708 324 c 1,36,-1
 537 324 l 1,37,38
 535 237 535 237 533 67 c 1,39,-1
 762 67 l 1,40,-1
 786 161 l 1,41,-1
 844 157 l 1,42,43
 858 100 858 100 858 56.5 c 128,-1,44
 858 13 858 13 856 0 c 1,45,-1
 370 0 l 1,46,-1
 367 35 l 1,47,48
 411 51 411 51 452 58 c 1,3,4
EndSplineSet
EndChar

StartChar: Egrave
Encoding: 200 200 137
Width: 595
GlyphClass: 2
Flags: W
LayerCount: 2
Fore
SplineSet
218 631 m 1,0,-1
 213 390 l 1,1,-1
 371 390 l 1,2,-1
 379 462 l 1,3,4
 407 462 407 462 439 445 c 1,5,-1
 439 255 l 1,6,-1
 404 252 l 1,7,8
 389 295 389 295 384 324 c 1,9,-1
 213 324 l 1,10,11
 211 237 211 237 209 67 c 1,12,-1
 438 67 l 1,13,-1
 462 161 l 1,14,-1
 520 157 l 1,15,16
 534 100 534 100 534 56.5 c 128,-1,17
 534 13 534 13 532 0 c 1,18,-1
 46 0 l 1,19,-1
 43 35 l 1,20,21
 87 51 87 51 128 58 c 1,22,23
 122 448 122 448 118 638 c 1,24,25
 96 640 96 640 30 662 c 1,26,-1
 35 700 l 1,27,-1
 517 700 l 1,28,29
 519 687 519 687 519 660 c 0,30,31
 519 605 519 605 505 541 c 1,32,33
 483 536 483 536 447 536 c 1,34,-1
 423 631 l 1,35,-1
 218 631 l 1,0,-1
349 814 m 1,36,37
 327 787 327 787 309 773 c 1,38,39
 221 815 221 815 167 867 c 1,40,41
 168 881 168 881 178.5 896 c 128,-1,42
 189 911 189 911 209 928 c 1,43,-1
 349 814 l 1,36,37
EndSplineSet
EndChar

StartChar: Eacute
Encoding: 201 201 138
Width: 595
GlyphClass: 2
Flags: W
LayerCount: 2
Fore
SplineSet
226 814 m 1,0,-1
 366 928 l 1,1,2
 405 898 405 898 408 867 c 1,3,4
 384 844 384 844 348.5 820.5 c 128,-1,5
 313 797 313 797 266 773 c 1,6,7
 248 786 248 786 226 814 c 1,0,-1
218 631 m 1,8,-1
 213 390 l 1,9,-1
 371 390 l 1,10,-1
 379 462 l 1,11,12
 407 462 407 462 439 445 c 1,13,-1
 439 255 l 1,14,-1
 404 252 l 1,15,16
 389 295 389 295 384 324 c 1,17,-1
 213 324 l 1,18,19
 211 237 211 237 209 67 c 1,20,-1
 438 67 l 1,21,-1
 462 161 l 1,22,-1
 520 157 l 1,23,24
 534 100 534 100 534 56.5 c 128,-1,25
 534 13 534 13 532 0 c 1,26,-1
 46 0 l 1,27,-1
 43 35 l 1,28,29
 87 51 87 51 128 58 c 1,30,31
 122 448 122 448 118 638 c 1,32,33
 96 640 96 640 30 662 c 1,34,-1
 35 700 l 1,35,-1
 517 700 l 1,36,37
 519 687 519 687 519 660 c 0,38,39
 519 605 519 605 505 541 c 1,40,41
 483 536 483 536 447 536 c 1,42,-1
 423 631 l 1,43,-1
 218 631 l 1,8,-1
EndSplineSet
EndChar

StartChar: Ecircumflex
Encoding: 202 202 139
Width: 595
GlyphClass: 2
Flags: W
LayerCount: 2
Fore
SplineSet
218 631 m 1,0,-1
 213 390 l 1,1,-1
 371 390 l 1,2,-1
 379 462 l 1,3,4
 407 462 407 462 439 445 c 1,5,-1
 439 255 l 1,6,-1
 404 252 l 1,7,8
 389 295 389 295 384 324 c 1,9,-1
 213 324 l 1,10,11
 211 237 211 237 209 67 c 1,12,-1
 438 67 l 1,13,-1
 462 161 l 1,14,-1
 520 157 l 1,15,16
 534 100 534 100 534 56.5 c 128,-1,17
 534 13 534 13 532 0 c 1,18,-1
 46 0 l 1,19,-1
 43 35 l 1,20,21
 87 51 87 51 128 58 c 1,22,23
 122 448 122 448 118 638 c 1,24,25
 96 640 96 640 30 662 c 1,26,-1
 35 700 l 1,27,-1
 517 700 l 1,28,29
 519 687 519 687 519 660 c 0,30,31
 519 605 519 605 505 541 c 1,32,33
 483 536 483 536 447 536 c 1,34,-1
 423 631 l 1,35,-1
 218 631 l 1,0,-1
282 928 m 1,36,-1
 423 814 l 1,37,38
 417 805 417 805 390 778 c 1,39,40
 389 779 389 779 374.5 785.5 c 128,-1,41
 360 792 360 792 347 799 c 0,42,43
 308 820 308 820 282 844 c 1,44,45
 247 811 247 811 190 786 c 0,46,47
 175 779 175 779 174 778 c 1,48,49
 150 800 150 800 141 814 c 1,50,-1
 282 928 l 1,36,-1
EndSplineSet
EndChar

StartChar: Iacute
Encoding: 205 205 142
Width: 386
GlyphClass: 2
Flags: W
LayerCount: 2
Fore
SplineSet
234 68 m 1,0,1
 279 66 279 66 318 60 c 1,2,3
 318 32 318 32 301 0 c 1,4,-1
 71 0 l 1,5,-1
 68 35 l 1,6,7
 116 50 116 50 159 59 c 1,8,9
 157 124 157 124 152.5 327 c 128,-1,10
 148 530 148 530 145 641 c 1,11,12
 101 649 101 649 55 665 c 1,13,-1
 58 700 l 1,14,-1
 308 700 l 1,15,16
 325 668 325 668 325 640 c 1,17,-1
 244 636 l 1,18,-1
 234 68 l 1,0,1
149 814 m 1,19,-1
 289 928 l 1,20,21
 328 898 328 898 331 867 c 1,22,23
 307 844 307 844 271.5 820.5 c 128,-1,24
 236 797 236 797 189 773 c 1,25,26
 171 786 171 786 149 814 c 1,19,-1
EndSplineSet
EndChar

StartChar: Icircumflex
Encoding: 206 206 143
Width: 392
GlyphClass: 2
Flags: W
LayerCount: 2
Fore
SplineSet
240 68 m 1,0,1
 285 66 285 66 324 60 c 1,2,3
 324 32 324 32 307 0 c 1,4,-1
 77 0 l 1,5,-1
 74 35 l 1,6,7
 122 50 122 50 165 59 c 1,8,9
 163 124 163 124 158.5 327 c 128,-1,10
 154 530 154 530 151 641 c 1,11,12
 107 649 107 649 61 665 c 1,13,-1
 64 700 l 1,14,-1
 314 700 l 1,15,16
 331 668 331 668 331 640 c 1,17,-1
 250 636 l 1,18,-1
 240 68 l 1,0,1
196 928 m 1,19,-1
 337 814 l 1,20,21
 331 805 331 805 304 778 c 1,22,23
 303 779 303 779 288.5 785.5 c 128,-1,24
 274 792 274 792 261 799 c 0,25,26
 222 820 222 820 196 844 c 1,27,28
 161 811 161 811 104 786 c 0,29,30
 89 779 89 779 88 778 c 1,31,32
 64 800 64 800 55 814 c 1,33,-1
 196 928 l 1,19,-1
EndSplineSet
EndChar

StartChar: Idieresis
Encoding: 207 207 144
Width: 380
GlyphClass: 2
Flags: W
LayerCount: 2
Fore
SplineSet
234 68 m 1,0,1
 279 66 279 66 318 60 c 1,2,3
 318 32 318 32 301 0 c 1,4,-1
 71 0 l 1,5,-1
 68 35 l 1,6,7
 116 50 116 50 159 59 c 1,8,9
 157 124 157 124 152.5 327 c 128,-1,10
 148 530 148 530 145 641 c 1,11,12
 101 649 101 649 55 665 c 1,13,-1
 58 700 l 1,14,-1
 308 700 l 1,15,16
 325 668 325 668 325 640 c 1,17,-1
 244 636 l 1,18,-1
 234 68 l 1,0,1
149 798 m 1,19,20
 129 794 129 794 106.5 794 c 128,-1,21
 84 794 84 794 70 796 c 1,22,23
 65 814 65 814 65 832.5 c 128,-1,24
 65 851 65 851 67 875 c 1,25,26
 82 878 82 878 108 878 c 128,-1,27
 134 878 134 878 146 877 c 1,28,29
 150 855 150 855 150 831.5 c 128,-1,30
 150 808 150 808 149 798 c 1,19,20
314 798 m 1,31,32
 294 794 294 794 271.5 794 c 128,-1,33
 249 794 249 794 235 796 c 1,34,35
 230 814 230 814 230 832.5 c 128,-1,36
 230 851 230 851 232 875 c 1,37,38
 247 878 247 878 273 878 c 128,-1,39
 299 878 299 878 311 877 c 1,40,41
 315 855 315 855 315 831.5 c 128,-1,42
 315 808 315 808 314 798 c 1,31,32
EndSplineSet
EndChar

StartChar: Eth
Encoding: 208 208 145
Width: 666
GlyphClass: 2
Flags: W
LayerCount: 2
Fore
SplineSet
626 366 m 0,0,1
 626 140 626 140 523 59 c 0,2,3
 480 25 480 25 430 12.5 c 128,-1,4
 380 0 380 0 299 0 c 2,5,-1
 45 0 l 1,6,-1
 42 35 l 1,7,8
 46 38 46 38 83 48 c 128,-1,9
 120 58 120 58 127 58 c 1,10,11
 125 146 125 146 123 324 c 1,12,-1
 29 327 l 1,13,14
 27 336 27 336 27 354 c 1,15,-1
 29 386 l 1,16,17
 77 389 77 389 122 391 c 1,18,19
 118 554 118 554 117 638 c 1,20,21
 72 644 72 644 29 662 c 1,22,23
 31 696 31 696 34 700 c 1,24,-1
 286 700 l 2,25,26
 390 700 390 700 450.5 681 c 128,-1,27
 511 662 511 662 556 611 c 1,28,29
 626 534 626 534 626 366 c 0,0,1
529 358 m 0,30,31
 529 493 529 493 478.5 561.5 c 128,-1,32
 428 630 428 630 309 630 c 2,33,-1
 207 630 l 1,34,35
 203 470 203 470 202 390 c 1,36,-1
 336 386 l 1,37,38
 338 371 338 371 338 353.5 c 128,-1,39
 338 336 338 336 336 327 c 1,40,41
 284 322 284 322 238 322 c 2,42,-1
 201 322 l 1,43,44
 199 238 199 238 197 68 c 1,45,-1
 302 68 l 2,46,47
 439 68 439 68 484 129.5 c 128,-1,48
 529 191 529 191 529 358 c 0,30,31
EndSplineSet
EndChar

StartChar: Ograve
Encoding: 210 210 147
Width: 647
GlyphClass: 2
Flags: W
LayerCount: 2
Fore
SplineSet
327 65 m 0,0,1
 529 65 529 65 529 349.5 c 128,-1,2
 529 634 529 634 327 634 c 0,3,4
 232 634 232 634 172 606 c 1,5,6
 118 499 118 499 118 359.5 c 128,-1,7
 118 220 118 220 164.5 142.5 c 128,-1,8
 211 65 211 65 327 65 c 0,0,1
92.5 617.5 m 128,-1,10
 165 713 165 713 328.5 713 c 128,-1,11
 492 713 492 713 559.5 625.5 c 128,-1,12
 627 538 627 538 627 361 c 128,-1,13
 627 184 627 184 554.5 86 c 128,-1,14
 482 -12 482 -12 323.5 -12 c 128,-1,15
 165 -12 165 -12 92.5 79 c 128,-1,16
 20 170 20 170 20 346 c 128,-1,9
 20 522 20 522 92.5 617.5 c 128,-1,10
394 814 m 1,17,18
 371 787 371 787 354 773 c 1,19,20
 266 815 266 815 212 867 c 1,21,22
 213 881 213 881 223.5 896 c 128,-1,23
 234 911 234 911 254 928 c 1,24,-1
 394 814 l 1,17,18
EndSplineSet
EndChar

StartChar: Oacute
Encoding: 211 211 148
Width: 647
GlyphClass: 2
Flags: W
LayerCount: 2
Fore
SplineSet
327 65 m 0,0,1
 529 65 529 65 529 349.5 c 128,-1,2
 529 634 529 634 327 634 c 0,3,4
 232 634 232 634 172 606 c 1,5,6
 118 499 118 499 118 359.5 c 128,-1,7
 118 220 118 220 164.5 142.5 c 128,-1,8
 211 65 211 65 327 65 c 0,0,1
92.5 617.5 m 128,-1,10
 165 713 165 713 328.5 713 c 128,-1,11
 492 713 492 713 559.5 625.5 c 128,-1,12
 627 538 627 538 627 361 c 128,-1,13
 627 184 627 184 554.5 86 c 128,-1,14
 482 -12 482 -12 323.5 -12 c 128,-1,15
 165 -12 165 -12 92.5 79 c 128,-1,16
 20 170 20 170 20 346 c 128,-1,9
 20 522 20 522 92.5 617.5 c 128,-1,10
263 814 m 1,17,-1
 403 928 l 1,18,19
 442 898 442 898 445 867 c 1,20,21
 421 844 421 844 385.5 820.5 c 128,-1,22
 350 797 350 797 303 773 c 1,23,24
 285 786 285 786 263 814 c 1,17,-1
EndSplineSet
EndChar

StartChar: multiply
Encoding: 215 215 152
Width: 526
GlyphClass: 2
Flags: W
LayerCount: 2
Fore
SplineSet
60 411 m 1,0,1
 76 435 76 435 103 454 c 1,2,3
 164 412 164 412 210 364 c 0,4,5
 237 335 237 335 264 308 c 1,6,-1
 419 457 l 1,7,8
 443 440 443 440 463 414 c 1,9,10
 426 361 426 361 386 321 c 2,11,-1
 317 254 l 1,12,-1
 466 98 l 1,13,14
 450 75 450 75 423 55 c 1,15,16
 369 92 369 92 330 131 c 1,17,18
 316 143 316 143 262 201 c 1,19,-1
 106 52 l 1,20,21
 84 67 84 67 64 95 c 1,22,23
 101 148 101 148 138.5 186 c 128,-1,24
 176 224 176 224 209 255 c 1,25,-1
 60 411 l 1,0,1
EndSplineSet
EndChar

StartChar: Oslash
Encoding: 216 216 153
Width: 647
GlyphClass: 2
Flags: W
LayerCount: 2
Fore
SplineSet
327 713 m 0,0,1
 378 713 378 713 418 704 c 1,2,-1
 452 800 l 1,3,4
 493 791 493 791 517 775 c 1,5,-1
 483 684 l 1,6,7
 560 648 560 648 593.5 567.5 c 128,-1,8
 627 487 627 487 627 358 c 0,9,10
 627 184 627 184 554.5 86 c 128,-1,11
 482 -12 482 -12 327 -12 c 0,12,13
 276 -12 276 -12 230 -1 c 1,14,-1
 194 -101 l 1,15,16
 158 -96 158 -96 141 -79 c 1,17,-1
 175 17 l 1,18,19
 20 88 20 88 20 344 c 0,20,21
 20 522 20 522 92.5 617.5 c 128,-1,22
 165 713 165 713 327 713 c 0,0,1
118 358 m 0,23,24
 118 164 118 164 204 100 c 1,25,-1
 390 625 l 1,26,27
 362 634 362 634 327 634 c 0,28,29
 232 634 232 634 172 606 c 1,30,31
 118 499 118 499 118 358 c 0,23,24
327 65 m 0,32,33
 529 65 529 65 529 346 c 0,34,35
 529 525 529 525 450 593 c 1,36,-1
 258 74 l 1,37,38
 288 65 288 65 327 65 c 0,32,33
EndSplineSet
EndChar

StartChar: Ucircumflex
Encoding: 219 219 156
Width: 754
GlyphClass: 2
Flags: W
LayerCount: 2
Fore
SplineSet
730 641 m 1,0,1
 667 641 667 641 649 640 c 1,2,3
 647 560 647 560 644.5 413.5 c 128,-1,4
 642 267 642 267 641 221 c 0,5,6
 638 107 638 107 571 47.5 c 128,-1,7
 504 -12 504 -12 388 -12 c 0,8,9
 331 -12 331 -12 289 -3 c 128,-1,10
 247 6 247 6 208 30 c 0,11,12
 127 78 127 78 125 220 c 0,13,14
 122 364 122 364 114 641 c 1,15,16
 70 649 70 649 24 665 c 1,17,-1
 27 700 l 1,18,-1
 278 700 l 1,19,20
 295 668 295 668 295 640 c 1,21,22
 295 640 295 640 212 636 c 1,23,24
 210 520 210 520 210 288 c 0,25,26
 210 163 210 163 256.5 114 c 128,-1,27
 303 65 303 65 389 65 c 0,28,29
 426 65 426 65 453.5 73 c 128,-1,30
 481 81 481 81 508 104 c 0,31,32
 562 150 562 150 562 290 c 0,33,34
 562 291 562 291 553 636 c 1,35,36
 475 659 475 659 463 665 c 1,37,-1
 466 700 l 1,38,-1
 714 700 l 1,39,40
 730 659 730 659 730 641 c 1,0,1
379 928 m 1,41,-1
 520 814 l 1,42,43
 514 805 514 805 487 778 c 1,44,45
 486 779 486 779 471.5 785.5 c 128,-1,46
 457 792 457 792 444 799 c 0,47,48
 405 820 405 820 379 844 c 1,49,50
 344 811 344 811 286 786 c 0,51,52
 272 779 272 779 271 778 c 1,53,54
 247 800 247 800 238 814 c 1,55,-1
 379 928 l 1,41,-1
EndSplineSet
EndChar

StartChar: Udieresis
Encoding: 220 220 157
Width: 754
GlyphClass: 2
Flags: W
LayerCount: 2
Fore
SplineSet
730 641 m 1,0,1
 667 641 667 641 649 640 c 1,2,3
 647 560 647 560 644.5 413.5 c 128,-1,4
 642 267 642 267 641 221 c 0,5,6
 638 107 638 107 571 47.5 c 128,-1,7
 504 -12 504 -12 388 -12 c 0,8,9
 331 -12 331 -12 289 -3 c 128,-1,10
 247 6 247 6 208 30 c 0,11,12
 127 78 127 78 125 220 c 0,13,14
 122 364 122 364 114 641 c 1,15,16
 70 649 70 649 24 665 c 1,17,-1
 27 700 l 1,18,-1
 278 700 l 1,19,20
 295 668 295 668 295 640 c 1,21,22
 295 640 295 640 212 636 c 1,23,24
 210 520 210 520 210 288 c 0,25,26
 210 163 210 163 256.5 114 c 128,-1,27
 303 65 303 65 389 65 c 0,28,29
 426 65 426 65 453.5 73 c 128,-1,30
 481 81 481 81 508 104 c 0,31,32
 562 150 562 150 562 290 c 0,33,34
 562 291 562 291 553 636 c 1,35,36
 475 659 475 659 463 665 c 1,37,-1
 466 700 l 1,38,-1
 714 700 l 1,39,40
 730 659 730 659 730 641 c 1,0,1
345 798 m 1,41,42
 325 794 325 794 302.5 794 c 128,-1,43
 280 794 280 794 266 796 c 1,44,45
 261 814 261 814 261 832.5 c 128,-1,46
 261 851 261 851 263 875 c 1,47,48
 278 878 278 878 304 878 c 128,-1,49
 330 878 330 878 342 877 c 1,50,51
 346 855 346 855 346 831.5 c 128,-1,52
 346 808 346 808 345 798 c 1,41,42
510 798 m 1,53,54
 490 794 490 794 467.5 794 c 128,-1,55
 445 794 445 794 431 796 c 1,56,57
 426 814 426 814 426 832.5 c 128,-1,58
 426 851 426 851 428 875 c 1,59,60
 443 878 443 878 469 878 c 128,-1,61
 495 878 495 878 507 877 c 1,62,63
 511 855 511 855 511 831.5 c 128,-1,64
 511 808 511 808 510 798 c 1,53,54
EndSplineSet
EndChar

StartChar: Thorn
Encoding: 222 222 159
Width: 579
GlyphClass: 2
Flags: W
LayerCount: 2
Fore
SplineSet
337 569 m 0,0,1
 549 569 549 569 549 359 c 0,2,3
 549 284 549 284 499 220 c 0,4,5
 474 188 474 188 430.5 167.5 c 128,-1,6
 387 147 387 147 342 147 c 128,-1,7
 297 147 297 147 201 180 c 1,8,9
 199 106 199 106 199 68 c 1,10,-1
 283 60 l 1,11,12
 283 32 283 32 266 0 c 1,13,-1
 36 0 l 1,14,-1
 33 35 l 1,15,16
 80 51 80 51 125 59 c 1,17,18
 115 447 115 447 109 641 c 1,19,20
 72 648 72 648 20 665 c 1,21,-1
 23 700 l 1,22,-1
 273 700 l 1,23,24
 290 668 290 668 290 640 c 1,25,26
 240 636 240 636 210 636 c 1,27,28
 208 602 208 602 208 545 c 1,29,30
 310 569 310 569 337 569 c 0,0,1
325 215 m 0,31,32
 387 215 387 215 424 252 c 128,-1,33
 461 289 461 289 461 354 c 0,34,35
 461 495 461 495 330 495 c 0,36,37
 274 495 274 495 207 483 c 1,38,39
 205 438 205 438 204 355.5 c 128,-1,40
 203 273 203 273 202 247 c 1,41,42
 287 215 287 215 325 215 c 0,31,32
EndSplineSet
EndChar

StartChar: germandbls
Encoding: 223 223 160
Width: 652
GlyphClass: 2
Flags: W
LayerCount: 2
Fore
SplineSet
167.5 680 m 128,-1,1
 221 749 221 749 321 749 c 128,-1,2
 421 749 421 749 479 708.5 c 128,-1,3
 537 668 537 668 537 608 c 0,4,5
 537 539 537 539 489 503 c 0,6,7
 469 488 469 488 448 475 c 0,8,9
 400 444 400 444 400 401 c 0,10,11
 400 353 400 353 478 316 c 0,12,13
 511 300 511 300 543.5 282 c 128,-1,14
 576 264 576 264 599 232 c 128,-1,15
 622 200 622 200 622 156 c 0,16,17
 622 -12 622 -12 423 -12 c 0,18,19
 365 -12 365 -12 321 4 c 1,20,21
 321 76 321 76 336 129 c 1,22,-1
 388 133 l 1,23,-1
 400 43 l 1,24,25
 407 39 407 39 423 39 c 0,26,27
 463 39 463 39 496.5 67 c 128,-1,28
 530 95 530 95 530 144 c 0,29,30
 530 195 530 195 452 231 c 0,31,32
 420 246 420 246 388 263.5 c 128,-1,33
 356 281 356 281 333.5 312.5 c 128,-1,34
 311 344 311 344 311 386 c 128,-1,35
 311 428 311 428 332 457 c 128,-1,36
 353 486 353 486 377.5 501 c 128,-1,37
 402 516 402 516 423 541 c 128,-1,38
 444 566 444 566 444 599 c 128,-1,39
 444 632 444 632 407 654 c 128,-1,40
 370 676 370 676 314.5 676 c 128,-1,41
 259 676 259 676 228.5 635.5 c 128,-1,42
 198 595 198 595 197 502 c 0,43,44
 194 355 194 355 190 68 c 1,45,-1
 275 64 l 1,46,47
 275 32 275 32 258 0 c 1,48,-1
 28 0 l 1,49,-1
 25 35 l 1,50,51
 71 51 71 51 115 59 c 1,52,53
 111 310 111 310 108 439 c 1,54,-1
 31 439 l 1,55,-1
 28 474 l 1,56,57
 40 480 40 480 66.5 487 c 128,-1,58
 93 494 93 494 108 496 c 1,59,0
 114 611 114 611 167.5 680 c 128,-1,1
EndSplineSet
EndChar

StartChar: agrave
Encoding: 224 224 161
Width: 539
GlyphClass: 2
Flags: W
LayerCount: 2
Fore
SplineSet
348 622 m 1,0,1
 325 595 325 595 308 581 c 1,2,3
 220 623 220 623 166 675 c 1,4,5
 167 689 167 689 177.5 704 c 128,-1,6
 188 719 188 719 208 736 c 1,7,-1
 348 622 l 1,0,1
438 327 m 1,8,-1
 433 69 l 1,9,10
 476 66 476 66 519 55 c 1,11,-1
 517 20 l 1,12,13
 501 12 501 12 459.5 2.5 c 128,-1,14
 418 -7 418 -7 378 -7 c 1,15,16
 360 29 360 29 358 62 c 1,17,18
 244 -13 244 -13 198 -13 c 0,19,20
 127 -13 127 -13 84 25 c 128,-1,21
 41 63 41 63 41 131 c 0,22,23
 41 288 41 288 233 293 c 0,24,25
 345 296 345 296 346 296 c 2,26,-1
 345 330 l 2,27,28
 343 399 343 399 319 429.5 c 128,-1,29
 295 460 295 460 233 460 c 0,30,31
 207 460 207 460 177 448 c 1,32,-1
 153 348 l 1,33,34
 148 347 148 347 136 347 c 2,35,-1
 95 350 l 1,36,37
 79 393 79 393 78 469 c 1,38,39
 97 479 97 479 165 499.5 c 128,-1,40
 233 520 233 520 252 520 c 0,41,42
 354 520 354 520 396 475 c 128,-1,43
 438 430 438 430 438 327 c 1,8,-1
220 55 m 0,44,45
 249 55 249 55 354 120 c 1,46,-1
 349 245 l 1,47,48
 281 239 281 239 235 234 c 128,-1,49
 189 229 189 229 161 207.5 c 128,-1,50
 133 186 133 186 133 140 c 0,51,52
 133 55 133 55 220 55 c 0,44,45
EndSplineSet
EndChar

StartChar: acircumflex
Encoding: 226 226 163
Width: 539
GlyphClass: 2
Flags: W
LayerCount: 2
Fore
SplineSet
283 736 m 1,0,-1
 424 622 l 1,1,2
 414 608 414 608 391 586 c 1,3,4
 390 587 390 587 375.5 593.5 c 128,-1,5
 361 600 361 600 348 607 c 0,6,7
 309 628 309 628 283 652 c 1,8,9
 248 619 248 619 190 594 c 0,10,11
 176 587 176 587 175 586 c 1,12,13
 151 608 151 608 142 622 c 1,14,-1
 283 736 l 1,0,-1
438 327 m 1,15,-1
 433 69 l 1,16,17
 476 66 476 66 519 55 c 1,18,-1
 517 20 l 1,19,20
 501 12 501 12 459.5 2.5 c 128,-1,21
 418 -7 418 -7 378 -7 c 1,22,23
 360 29 360 29 358 62 c 1,24,25
 244 -13 244 -13 198 -13 c 0,26,27
 127 -13 127 -13 84 25 c 128,-1,28
 41 63 41 63 41 131 c 0,29,30
 41 288 41 288 233 293 c 0,31,32
 345 296 345 296 346 296 c 2,33,-1
 345 330 l 2,34,35
 343 399 343 399 319 429.5 c 128,-1,36
 295 460 295 460 233 460 c 0,37,38
 207 460 207 460 177 448 c 1,39,-1
 153 348 l 1,40,41
 148 347 148 347 136 347 c 2,42,-1
 95 350 l 1,43,44
 79 393 79 393 78 469 c 1,45,46
 97 479 97 479 165 499.5 c 128,-1,47
 233 520 233 520 252 520 c 0,48,49
 354 520 354 520 396 475 c 128,-1,50
 438 430 438 430 438 327 c 1,15,-1
220 55 m 0,51,52
 249 55 249 55 354 120 c 1,53,-1
 349 245 l 1,54,55
 281 239 281 239 235 234 c 128,-1,56
 189 229 189 229 161 207.5 c 128,-1,57
 133 186 133 186 133 140 c 0,58,59
 133 55 133 55 220 55 c 0,51,52
EndSplineSet
EndChar

StartChar: atilde
Encoding: 227 227 164
Width: 539
GlyphClass: 2
Flags: W
LayerCount: 2
Fore
SplineSet
185 636 m 1,0,1
 156 617 156 617 101 599 c 1,2,-1
 84 628 l 1,3,4
 111 665 111 665 149.5 688 c 128,-1,5
 188 711 188 711 195 711 c 0,6,7
 214 711 214 711 267.5 688 c 128,-1,8
 321 665 321 665 332 662 c 1,9,10
 389 693 389 693 416 702 c 1,11,-1
 433 673 l 1,12,13
 406 636 406 636 356 606 c 0,14,15
 352 604 352 604 344 598 c 0,16,17
 329 587 329 587 322 587 c 1,18,19
 302 594 302 594 271 607 c 0,20,21
 202 636 202 636 185 636 c 1,0,1
438 327 m 1,22,-1
 433 69 l 1,23,24
 476 66 476 66 519 55 c 1,25,-1
 517 20 l 1,26,27
 501 12 501 12 459.5 2.5 c 128,-1,28
 418 -7 418 -7 378 -7 c 1,29,30
 360 29 360 29 358 62 c 1,31,32
 244 -13 244 -13 198 -13 c 0,33,34
 127 -13 127 -13 84 25 c 128,-1,35
 41 63 41 63 41 131 c 0,36,37
 41 288 41 288 233 293 c 0,38,39
 345 296 345 296 346 296 c 2,40,-1
 345 330 l 2,41,42
 343 399 343 399 319 429.5 c 128,-1,43
 295 460 295 460 233 460 c 0,44,45
 207 460 207 460 177 448 c 1,46,-1
 153 348 l 1,47,48
 148 347 148 347 136 347 c 2,49,-1
 95 350 l 1,50,51
 79 393 79 393 78 469 c 1,52,53
 97 479 97 479 165 499.5 c 128,-1,54
 233 520 233 520 252 520 c 0,55,56
 354 520 354 520 396 475 c 128,-1,57
 438 430 438 430 438 327 c 1,22,-1
220 55 m 0,58,59
 249 55 249 55 354 120 c 1,60,-1
 349 245 l 1,61,62
 281 239 281 239 235 234 c 128,-1,63
 189 229 189 229 161 207.5 c 128,-1,64
 133 186 133 186 133 140 c 0,65,66
 133 55 133 55 220 55 c 0,58,59
EndSplineSet
EndChar

StartChar: adieresis
Encoding: 228 228 165
Width: 539
GlyphClass: 2
Flags: W
LayerCount: 2
Fore
SplineSet
223 606 m 1,0,1
 203 602 203 602 180.5 602 c 128,-1,2
 158 602 158 602 144 604 c 1,3,4
 139 622 139 622 139 640.5 c 128,-1,5
 139 659 139 659 141 683 c 1,6,7
 156 686 156 686 182 686 c 128,-1,8
 208 686 208 686 220 685 c 1,9,10
 224 663 224 663 224 639.5 c 128,-1,11
 224 616 224 616 223 606 c 1,0,1
388 606 m 1,12,13
 368 602 368 602 345.5 602 c 128,-1,14
 323 602 323 602 309 604 c 1,15,16
 304 622 304 622 304 640.5 c 128,-1,17
 304 659 304 659 306 683 c 1,18,19
 321 686 321 686 347 686 c 128,-1,20
 373 686 373 686 385 685 c 1,21,22
 389 663 389 663 389 639.5 c 128,-1,23
 389 616 389 616 388 606 c 1,12,13
438 327 m 1,24,-1
 433 69 l 1,25,26
 476 66 476 66 519 55 c 1,27,-1
 517 20 l 1,28,29
 501 12 501 12 459.5 2.5 c 128,-1,30
 418 -7 418 -7 378 -7 c 1,31,32
 360 29 360 29 358 62 c 1,33,34
 244 -13 244 -13 198 -13 c 0,35,36
 127 -13 127 -13 84 25 c 128,-1,37
 41 63 41 63 41 131 c 0,38,39
 41 288 41 288 233 293 c 0,40,41
 345 296 345 296 346 296 c 2,42,-1
 345 330 l 2,43,44
 343 399 343 399 319 429.5 c 128,-1,45
 295 460 295 460 233 460 c 0,46,47
 207 460 207 460 177 448 c 1,48,-1
 153 348 l 1,49,50
 148 347 148 347 136 347 c 2,51,-1
 95 350 l 1,52,53
 79 393 79 393 78 469 c 1,54,55
 97 479 97 479 165 499.5 c 128,-1,56
 233 520 233 520 252 520 c 0,57,58
 354 520 354 520 396 475 c 128,-1,59
 438 430 438 430 438 327 c 1,24,-1
220 55 m 0,60,61
 249 55 249 55 354 120 c 1,62,-1
 349 245 l 1,63,64
 281 239 281 239 235 234 c 128,-1,65
 189 229 189 229 161 207.5 c 128,-1,66
 133 186 133 186 133 140 c 0,67,68
 133 55 133 55 220 55 c 0,60,61
EndSplineSet
EndChar

StartChar: aring
Encoding: 229 229 166
Width: 539
GlyphClass: 2
Flags: W
LayerCount: 2
Fore
SplineSet
213.5 737.5 m 128,-1,1
 197 718 197 718 197 685.5 c 128,-1,2
 197 653 197 653 213.5 634 c 128,-1,3
 230 615 230 615 257.5 615 c 128,-1,4
 285 615 285 615 301.5 634 c 128,-1,5
 318 653 318 653 318 685.5 c 128,-1,6
 318 718 318 718 301.5 737.5 c 128,-1,7
 285 757 285 757 257.5 757 c 128,-1,0
 230 757 230 757 213.5 737.5 c 128,-1,1
342.5 771 m 128,-1,9
 378 739 378 739 378 684.5 c 128,-1,10
 378 630 378 630 343 600.5 c 128,-1,11
 308 571 308 571 258 571 c 128,-1,12
 208 571 208 571 172 601 c 128,-1,13
 136 631 136 631 136 685 c 128,-1,14
 136 739 136 739 172.5 771 c 128,-1,15
 209 803 209 803 258 803 c 128,-1,8
 307 803 307 803 342.5 771 c 128,-1,9
438 327 m 1,16,-1
 433 69 l 1,17,18
 476 66 476 66 519 55 c 1,19,-1
 517 20 l 1,20,21
 501 12 501 12 459.5 2.5 c 128,-1,22
 418 -7 418 -7 378 -7 c 1,23,24
 360 29 360 29 358 62 c 1,25,26
 244 -13 244 -13 198 -13 c 0,27,28
 127 -13 127 -13 84 25 c 128,-1,29
 41 63 41 63 41 131 c 0,30,31
 41 288 41 288 233 293 c 0,32,33
 345 296 345 296 346 296 c 2,34,-1
 345 330 l 2,35,36
 343 399 343 399 319 429.5 c 128,-1,37
 295 460 295 460 233 460 c 0,38,39
 207 460 207 460 177 448 c 1,40,-1
 153 348 l 1,41,42
 148 347 148 347 136 347 c 2,43,-1
 95 350 l 1,44,45
 79 393 79 393 78 469 c 1,46,47
 97 479 97 479 165 499.5 c 128,-1,48
 233 520 233 520 252 520 c 0,49,50
 354 520 354 520 396 475 c 128,-1,51
 438 430 438 430 438 327 c 1,16,-1
220 55 m 0,52,53
 249 55 249 55 354 120 c 1,54,-1
 349 245 l 1,55,56
 281 239 281 239 235 234 c 128,-1,57
 189 229 189 229 161 207.5 c 128,-1,58
 133 186 133 186 133 140 c 0,59,60
 133 55 133 55 220 55 c 0,52,53
EndSplineSet
EndChar

StartChar: ae
Encoding: 230 230 167
Width: 826
GlyphClass: 2
Flags: W
LayerCount: 2
Fore
SplineSet
225 56 m 0,0,1
 255 56 255 56 336 114 c 0,2,3
 358 130 358 130 359 130 c 2,4,-1
 354 245 l 1,5,6
 226 232 226 232 205 227 c 0,7,8
 133 208 133 208 133 140 c 0,9,10
 133 99 133 99 158 77.5 c 128,-1,11
 183 56 183 56 225 56 c 0,0,1
351 296 m 1,12,-1
 350 330 l 2,13,14
 348 401 348 401 323.5 430.5 c 128,-1,15
 299 460 299 460 238 460 c 0,16,17
 212 460 212 460 182 448 c 1,18,-1
 158 347 l 1,19,-1
 141 347 l 1,20,-1
 100 350 l 1,21,22
 84 393 84 393 83 469 c 1,23,24
 102 479 102 479 170 499.5 c 128,-1,25
 238 520 238 520 257 520 c 0,26,27
 373 520 373 520 415 452 c 1,28,29
 475 520 475 520 578 520 c 128,-1,30
 681 520 681 520 730.5 455.5 c 128,-1,31
 780 391 780 391 780 291 c 2,32,-1
 780 276 l 1,33,34
 773 263 773 263 768 263 c 2,35,-1
 443 263 l 1,36,37
 443 114 443 114 514 73 c 0,38,39
 545 55 545 55 585.5 55 c 128,-1,40
 626 55 626 55 675 67.5 c 128,-1,41
 724 80 724 80 748 91 c 1,42,43
 766 66 766 66 766 51 c 2,44,-1
 766 43 l 1,45,46
 675 -11 675 -11 599 -11 c 128,-1,47
 523 -11 523 -11 472 17 c 128,-1,48
 421 45 421 45 394 91 c 1,49,50
 369 68 369 68 303 28 c 128,-1,51
 237 -12 237 -12 203 -12 c 0,52,53
 45 -12 45 -12 45 131 c 0,54,55
 45 187 45 187 72 230.5 c 128,-1,56
 99 274 99 274 160 285 c 128,-1,57
 221 296 221 296 351 296 c 1,12,-1
589 460 m 1,58,59
 528 459 528 459 487.5 420 c 128,-1,60
 447 381 447 381 445 315 c 1,61,62
 524 316 524 316 687 320 c 1,63,64
 687 460 687 460 589 460 c 1,58,59
EndSplineSet
EndChar

StartChar: ccedilla
Encoding: 231 231 168
Width: 475
GlyphClass: 2
Flags: W
LayerCount: 2
Fore
SplineSet
286 -123 m 0,0,1
 286 -104 286 -104 224 -82 c 1,2,3
 224 -56 224 -56 259 22 c 1,4,5
 265 25 265 25 275.5 25 c 128,-1,6
 286 25 286 25 294 22 c 1,7,8
 278 -32 278 -32 270 -52 c 1,9,10
 350 -86 350 -86 350 -114.5 c 128,-1,11
 350 -143 350 -143 322.5 -174.5 c 128,-1,12
 295 -206 295 -206 260 -218 c 1,13,-1
 249 -205 l 1,14,15
 253 -194 253 -194 262 -176 c 0,16,17
 286 -130 286 -130 286 -123 c 0,0,1
274 -12 m 0,18,19
 295 -12 295 -12 344 5 c 128,-1,20
 393 22 393 22 444 52 c 1,21,22
 443 72 443 72 424 98 c 1,23,24
 330 56 330 56 286 56 c 0,25,26
 193 56 193 56 160.5 110 c 128,-1,27
 128 164 128 164 128 268 c 128,-1,28
 128 372 128 372 170.5 416 c 128,-1,29
 213 460 213 460 285 460 c 0,30,31
 290 460 290 460 323 457 c 1,32,-1
 348 347 l 1,33,34
 355 346 355 346 360 346 c 2,35,-1
 377 346 l 2,36,37
 388 346 388 346 406 351 c 1,38,39
 422 390 422 390 425 483 c 1,40,41
 401 497 401 497 359 508.5 c 128,-1,42
 317 520 317 520 278 520 c 0,43,44
 36 520 36 520 36 248 c 0,45,46
 36 123 36 123 95 55.5 c 128,-1,47
 154 -12 154 -12 274 -12 c 0,18,19
EndSplineSet
EndChar

StartChar: egrave
Encoding: 232 232 169
Width: 512
GlyphClass: 2
Flags: W
LayerCount: 2
Fore
SplineSet
331 622 m 1,0,1
 308 595 308 595 291 581 c 1,2,3
 203 623 203 623 149 675 c 1,4,5
 150 689 150 689 160.5 704 c 128,-1,6
 171 719 171 719 191 736 c 1,7,-1
 331 622 l 1,0,1
290 56 m 0,8,9
 334 56 334 56 428 98 c 1,10,11
 447 72 447 72 448 52 c 1,12,13
 397 22 397 22 348 5 c 128,-1,14
 299 -12 299 -12 278 -12 c 0,15,16
 162 -12 162 -12 101 57.5 c 128,-1,17
 40 127 40 127 40 252 c 128,-1,18
 40 377 40 377 99.5 448.5 c 128,-1,19
 159 520 159 520 278 520 c 0,20,21
 370 520 370 520 418.5 454 c 128,-1,22
 467 388 467 388 467 277 c 1,23,24
 459 263 459 263 454 258 c 1,25,-1
 132 263 l 1,26,27
 133 162 133 162 167.5 109 c 128,-1,28
 202 56 202 56 290 56 c 0,8,9
352 422.5 m 128,-1,30
 328 459 328 459 272 459 c 128,-1,31
 216 459 216 459 172 438 c 1,32,33
 142 378 142 378 134 315 c 1,34,35
 213 316 213 316 376 320 c 1,36,29
 376 386 376 386 352 422.5 c 128,-1,30
EndSplineSet
EndChar

StartChar: eacute
Encoding: 233 233 170
Width: 512
GlyphClass: 2
Flags: W
LayerCount: 2
Fore
SplineSet
189 622 m 1,0,-1
 329 736 l 1,1,2
 368 706 368 706 371 675 c 1,3,4
 347 652 347 652 311.5 628.5 c 128,-1,5
 276 605 276 605 229 581 c 1,6,7
 211 594 211 594 189 622 c 1,0,-1
290 56 m 0,8,9
 334 56 334 56 428 98 c 1,10,11
 447 72 447 72 448 52 c 1,12,13
 397 22 397 22 348 5 c 128,-1,14
 299 -12 299 -12 278 -12 c 0,15,16
 162 -12 162 -12 101 57.5 c 128,-1,17
 40 127 40 127 40 252 c 128,-1,18
 40 377 40 377 99.5 448.5 c 128,-1,19
 159 520 159 520 278 520 c 0,20,21
 370 520 370 520 418.5 454 c 128,-1,22
 467 388 467 388 467 277 c 1,23,24
 459 263 459 263 454 258 c 1,25,-1
 132 263 l 1,26,27
 133 162 133 162 167.5 109 c 128,-1,28
 202 56 202 56 290 56 c 0,8,9
352 422.5 m 128,-1,30
 328 459 328 459 272 459 c 128,-1,31
 216 459 216 459 172 438 c 1,32,33
 142 378 142 378 134 315 c 1,34,35
 213 316 213 316 376 320 c 1,36,29
 376 386 376 386 352 422.5 c 128,-1,30
EndSplineSet
EndChar

StartChar: ecircumflex
Encoding: 234 234 171
Width: 512
GlyphClass: 2
Flags: W
LayerCount: 2
Fore
SplineSet
261 736 m 1,0,-1
 402 622 l 1,1,2
 396 613 396 613 369 586 c 1,3,4
 368 587 368 587 353.5 593.5 c 128,-1,5
 339 600 339 600 326 607 c 0,6,7
 287 628 287 628 261 652 c 1,8,9
 226 619 226 619 168 594 c 0,10,11
 154 587 154 587 153 586 c 1,12,13
 129 608 129 608 120 622 c 1,14,-1
 261 736 l 1,0,-1
290 56 m 0,15,16
 334 56 334 56 428 98 c 1,17,18
 447 72 447 72 448 52 c 1,19,20
 397 22 397 22 348 5 c 128,-1,21
 299 -12 299 -12 278 -12 c 0,22,23
 162 -12 162 -12 101 57.5 c 128,-1,24
 40 127 40 127 40 252 c 128,-1,25
 40 377 40 377 99.5 448.5 c 128,-1,26
 159 520 159 520 278 520 c 0,27,28
 370 520 370 520 418.5 454 c 128,-1,29
 467 388 467 388 467 277 c 1,30,31
 459 263 459 263 454 258 c 1,32,-1
 132 263 l 1,33,34
 133 162 133 162 167.5 109 c 128,-1,35
 202 56 202 56 290 56 c 0,15,16
352 422.5 m 128,-1,37
 328 459 328 459 272 459 c 128,-1,38
 216 459 216 459 172 438 c 1,39,40
 142 378 142 378 134 315 c 1,41,42
 213 316 213 316 376 320 c 1,43,36
 376 386 376 386 352 422.5 c 128,-1,37
EndSplineSet
EndChar

StartChar: edieresis
Encoding: 235 235 172
Width: 512
GlyphClass: 2
Flags: W
LayerCount: 2
Fore
SplineSet
213 606 m 1,0,1
 193 602 193 602 170.5 602 c 128,-1,2
 148 602 148 602 134 604 c 1,3,4
 129 622 129 622 129 640.5 c 128,-1,5
 129 659 129 659 131 683 c 1,6,7
 146 686 146 686 172 686 c 128,-1,8
 198 686 198 686 210 685 c 1,9,10
 214 663 214 663 214 639.5 c 128,-1,11
 214 616 214 616 213 606 c 1,0,1
378 606 m 1,12,13
 358 602 358 602 335.5 602 c 128,-1,14
 313 602 313 602 299 604 c 1,15,16
 294 622 294 622 294 640.5 c 128,-1,17
 294 659 294 659 296 683 c 1,18,19
 311 686 311 686 337 686 c 128,-1,20
 363 686 363 686 375 685 c 1,21,22
 379 663 379 663 379 639.5 c 128,-1,23
 379 616 379 616 378 606 c 1,12,13
290 56 m 0,24,25
 334 56 334 56 428 98 c 1,26,27
 447 72 447 72 448 52 c 1,28,29
 397 22 397 22 348 5 c 128,-1,30
 299 -12 299 -12 278 -12 c 0,31,32
 162 -12 162 -12 101 57.5 c 128,-1,33
 40 127 40 127 40 252 c 128,-1,34
 40 377 40 377 99.5 448.5 c 128,-1,35
 159 520 159 520 278 520 c 0,36,37
 370 520 370 520 418.5 454 c 128,-1,38
 467 388 467 388 467 277 c 1,39,40
 459 263 459 263 454 258 c 1,41,-1
 132 263 l 1,42,43
 133 162 133 162 167.5 109 c 128,-1,44
 202 56 202 56 290 56 c 0,24,25
352 422.5 m 128,-1,46
 328 459 328 459 272 459 c 128,-1,47
 216 459 216 459 172 438 c 1,48,49
 142 378 142 378 134 315 c 1,50,51
 213 316 213 316 376 320 c 1,52,45
 376 386 376 386 352 422.5 c 128,-1,46
EndSplineSet
EndChar

StartChar: igrave
Encoding: 236 236 173
Width: 308
GlyphClass: 2
Flags: W
LayerCount: 2
Fore
SplineSet
224 622 m 1,0,1
 202 595 202 595 184 581 c 1,2,3
 96 623 96 623 42 675 c 1,4,5
 43 689 43 689 53.5 704 c 128,-1,6
 64 719 64 719 84 736 c 1,7,-1
 224 622 l 1,0,1
34 498 m 1,8,9
 119 513 119 513 166 513 c 128,-1,10
 213 513 213 513 226 511 c 1,11,12
 226 487 226 487 220 458 c 128,-1,13
 214 429 214 429 213 430 c 1,14,-1
 204 68 l 1,15,-1
 288 60 l 1,16,17
 288 32 288 32 271 0 c 1,18,-1
 41 0 l 1,19,-1
 38 35 l 1,20,21
 84 51 84 51 128 59 c 1,22,23
 122 309 122 309 118 434 c 1,24,25
 60 434 60 434 30 446 c 1,26,-1
 34 498 l 1,8,9
EndSplineSet
EndChar

StartChar: iacute
Encoding: 237 237 174
Width: 308
GlyphClass: 2
Flags: W
LayerCount: 2
Fore
SplineSet
92 622 m 1,0,-1
 232 736 l 1,1,2
 271 706 271 706 274 675 c 1,3,4
 250 652 250 652 214.5 628.5 c 128,-1,5
 179 605 179 605 132 581 c 1,6,7
 114 594 114 594 92 622 c 1,0,-1
34 498 m 1,8,9
 119 513 119 513 166 513 c 128,-1,10
 213 513 213 513 226 511 c 1,11,12
 226 487 226 487 220 458 c 128,-1,13
 214 429 214 429 213 430 c 1,14,-1
 204 68 l 1,15,-1
 288 60 l 1,16,17
 288 32 288 32 271 0 c 1,18,-1
 41 0 l 1,19,-1
 38 35 l 1,20,21
 84 51 84 51 128 59 c 1,22,23
 122 309 122 309 118 434 c 1,24,25
 60 434 60 434 30 446 c 1,26,-1
 34 498 l 1,8,9
EndSplineSet
EndChar

StartChar: icircumflex
Encoding: 238 238 175
Width: 332
GlyphClass: 2
Flags: W
LayerCount: 2
Fore
SplineSet
171 736 m 1,0,-1
 312 622 l 1,1,2
 302 608 302 608 279 586 c 1,3,4
 278 587 278 587 263.5 593.5 c 128,-1,5
 249 600 249 600 236 607 c 0,6,7
 197 628 197 628 171 652 c 1,8,9
 136 619 136 619 78 594 c 0,10,11
 64 587 64 587 63 586 c 1,12,13
 39 608 39 608 30 622 c 1,14,-1
 171 736 l 1,0,-1
45 498 m 1,15,16
 130 513 130 513 177 513 c 128,-1,17
 224 513 224 513 237 511 c 1,18,19
 237 487 237 487 231 458 c 128,-1,20
 225 429 225 429 224 430 c 1,21,-1
 215 68 l 1,22,-1
 299 60 l 1,23,24
 299 32 299 32 282 0 c 1,25,-1
 52 0 l 1,26,-1
 49 35 l 1,27,28
 95 51 95 51 139 59 c 1,29,30
 133 309 133 309 129 434 c 1,31,32
 71 434 71 434 41 446 c 1,33,-1
 45 498 l 1,15,16
EndSplineSet
EndChar

StartChar: idieresis
Encoding: 239 239 176
Width: 312
GlyphClass: 2
Flags: W
LayerCount: 2
Fore
SplineSet
114 606 m 1,0,1
 94 602 94 602 71.5 602 c 128,-1,2
 49 602 49 602 35 604 c 1,3,4
 30 622 30 622 30 640.5 c 128,-1,5
 30 659 30 659 32 683 c 1,6,7
 47 686 47 686 73 686 c 128,-1,8
 99 686 99 686 111 685 c 1,9,10
 115 663 115 663 115 639.5 c 128,-1,11
 115 616 115 616 114 606 c 1,0,1
279 606 m 1,12,13
 259 602 259 602 236.5 602 c 128,-1,14
 214 602 214 602 200 604 c 1,15,16
 195 622 195 622 195 640.5 c 128,-1,17
 195 659 195 659 197 683 c 1,18,19
 212 686 212 686 238 686 c 128,-1,20
 264 686 264 686 276 685 c 1,21,22
 280 663 280 663 280 639.5 c 128,-1,23
 280 616 280 616 279 606 c 1,12,13
38 498 m 1,24,25
 123 513 123 513 170 513 c 128,-1,26
 217 513 217 513 230 511 c 1,27,28
 230 487 230 487 224 458 c 128,-1,29
 218 429 218 429 217 430 c 1,30,-1
 208 68 l 1,31,-1
 292 60 l 1,32,33
 292 32 292 32 275 0 c 1,34,-1
 45 0 l 1,35,-1
 42 35 l 1,36,37
 88 51 88 51 132 59 c 1,38,39
 126 309 126 309 122 434 c 1,40,41
 64 434 64 434 34 446 c 1,42,-1
 38 498 l 1,24,25
EndSplineSet
EndChar

StartChar: eth
Encoding: 240 240 177
Width: 579
GlyphClass: 2
Flags: W
LayerCount: 2
Fore
SplineSet
221 546 m 1,0,1
 204 563 204 563 188 593 c 1,2,3
 226 627 226 627 278 663 c 1,4,5
 223 693 223 693 138 700 c 1,6,7
 137 705 137 705 137 718.5 c 128,-1,8
 137 732 137 732 145 744 c 1,9,10
 243 744 243 744 326 696 c 1,11,-1
 422 759 l 1,12,13
 445 735 445 735 456 710 c 1,14,15
 419 680 419 680 384 654 c 1,16,17
 514 541 514 541 514 333 c 0,18,19
 514 -13 514 -13 267 -13 c 0,20,21
 164 -13 164 -13 100 64.5 c 128,-1,22
 36 142 36 142 36 241 c 128,-1,23
 36 340 36 340 96.5 413 c 128,-1,24
 157 486 157 486 259 486 c 0,25,26
 287 486 287 486 336.5 468 c 128,-1,27
 386 450 386 450 411 428 c 1,28,29
 395 557 395 557 335 620 c 1,30,-1
 221 546 l 1,0,1
160 379 m 128,-1,32
 129 333 129 333 129 236 c 128,-1,33
 129 139 129 139 162.5 93.5 c 128,-1,34
 196 48 196 48 271.5 48 c 128,-1,35
 347 48 347 48 377.5 100 c 128,-1,36
 408 152 408 152 415.5 236 c 128,-1,37
 423 320 423 320 423 335 c 128,-1,38
 423 350 423 350 420 371 c 1,39,40
 397 386 397 386 348.5 405.5 c 128,-1,41
 300 425 300 425 259 425 c 0,42,31
 191 425 191 425 160 379 c 128,-1,32
EndSplineSet
EndChar

StartChar: ograve
Encoding: 242 242 179
Width: 538
GlyphClass: 2
Flags: W
LayerCount: 2
Fore
SplineSet
357 622 m 1,0,1
 334 595 334 595 317 581 c 1,2,3
 229 623 229 623 175 675 c 1,4,5
 176 689 176 689 186.5 704 c 128,-1,6
 197 719 197 719 217 736 c 1,7,-1
 357 622 l 1,0,1
380.5 100.5 m 128,-1,9
 410 153 410 153 410 250 c 0,10,11
 410 404 410 404 342 443 c 0,12,13
 314 459 314 459 263.5 459 c 128,-1,14
 213 459 213 459 168 438 c 1,15,16
 128 361 128 361 128 259 c 0,17,18
 128 161 128 161 154 108 c 0,19,20
 184 48 184 48 267.5 48 c 128,-1,8
 351 48 351 48 380.5 100.5 c 128,-1,9
94 448.5 m 128,-1,22
 152 520 152 520 273 520 c 128,-1,23
 394 520 394 520 448 454.5 c 128,-1,24
 502 389 502 389 502 261 c 128,-1,25
 502 133 502 133 444.5 60 c 128,-1,26
 387 -13 387 -13 270 -13 c 128,-1,27
 153 -13 153 -13 94.5 55 c 128,-1,28
 36 123 36 123 36 250 c 128,-1,21
 36 377 36 377 94 448.5 c 128,-1,22
EndSplineSet
EndChar

StartChar: oacute
Encoding: 243 243 180
Width: 538
GlyphClass: 2
Flags: W
LayerCount: 2
Fore
SplineSet
205 622 m 1,0,-1
 345 736 l 1,1,2
 384 706 384 706 387 675 c 1,3,4
 363 652 363 652 327.5 628.5 c 128,-1,5
 292 605 292 605 245 581 c 1,6,7
 227 594 227 594 205 622 c 1,0,-1
380.5 100.5 m 128,-1,9
 410 153 410 153 410 250 c 0,10,11
 410 404 410 404 342 443 c 0,12,13
 314 459 314 459 263.5 459 c 128,-1,14
 213 459 213 459 168 438 c 1,15,16
 128 361 128 361 128 259 c 0,17,18
 128 161 128 161 154 108 c 0,19,20
 184 48 184 48 267.5 48 c 128,-1,8
 351 48 351 48 380.5 100.5 c 128,-1,9
94 448.5 m 128,-1,22
 152 520 152 520 273 520 c 128,-1,23
 394 520 394 520 448 454.5 c 128,-1,24
 502 389 502 389 502 261 c 128,-1,25
 502 133 502 133 444.5 60 c 128,-1,26
 387 -13 387 -13 270 -13 c 128,-1,27
 153 -13 153 -13 94.5 55 c 128,-1,28
 36 123 36 123 36 250 c 128,-1,21
 36 377 36 377 94 448.5 c 128,-1,22
EndSplineSet
EndChar

StartChar: ocircumflex
Encoding: 244 244 181
Width: 538
GlyphClass: 2
Flags: W
LayerCount: 2
Fore
SplineSet
275 736 m 1,0,-1
 416 622 l 1,1,2
 406 608 406 608 383 586 c 1,3,4
 382 587 382 587 367.5 593.5 c 128,-1,5
 353 600 353 600 340 607 c 0,6,7
 301 628 301 628 275 652 c 1,8,9
 240 619 240 619 182 594 c 0,10,11
 168 587 168 587 167 586 c 1,12,13
 143 608 143 608 134 622 c 1,14,-1
 275 736 l 1,0,-1
380.5 100.5 m 128,-1,16
 410 153 410 153 410 250 c 0,17,18
 410 404 410 404 342 443 c 0,19,20
 314 459 314 459 263.5 459 c 128,-1,21
 213 459 213 459 168 438 c 1,22,23
 128 361 128 361 128 259 c 0,24,25
 128 161 128 161 154 108 c 0,26,27
 184 48 184 48 267.5 48 c 128,-1,15
 351 48 351 48 380.5 100.5 c 128,-1,16
94 448.5 m 128,-1,29
 152 520 152 520 273 520 c 128,-1,30
 394 520 394 520 448 454.5 c 128,-1,31
 502 389 502 389 502 261 c 128,-1,32
 502 133 502 133 444.5 60 c 128,-1,33
 387 -13 387 -13 270 -13 c 128,-1,34
 153 -13 153 -13 94.5 55 c 128,-1,35
 36 123 36 123 36 250 c 128,-1,28
 36 377 36 377 94 448.5 c 128,-1,29
EndSplineSet
EndChar

StartChar: otilde
Encoding: 245 245 182
Width: 538
GlyphClass: 2
Flags: W
LayerCount: 2
Fore
SplineSet
209 636 m 1,0,1
 180 617 180 617 125 599 c 1,2,-1
 108 628 l 1,3,4
 135 665 135 665 173.5 688 c 128,-1,5
 212 711 212 711 219 711 c 0,6,7
 238 711 238 711 291.5 688 c 128,-1,8
 345 665 345 665 356 662 c 1,9,10
 413 693 413 693 440 702 c 1,11,-1
 457 673 l 1,12,13
 430 636 430 636 380 606 c 0,14,15
 376 604 376 604 368 598 c 0,16,17
 353 587 353 587 346 587 c 1,18,19
 326 594 326 594 295 607 c 0,20,21
 226 636 226 636 209 636 c 1,0,1
380.5 100.5 m 128,-1,23
 410 153 410 153 410 250 c 0,24,25
 410 404 410 404 342 443 c 0,26,27
 314 459 314 459 263.5 459 c 128,-1,28
 213 459 213 459 168 438 c 1,29,30
 128 361 128 361 128 259 c 0,31,32
 128 161 128 161 154 108 c 0,33,34
 184 48 184 48 267.5 48 c 128,-1,22
 351 48 351 48 380.5 100.5 c 128,-1,23
94 448.5 m 128,-1,36
 152 520 152 520 273 520 c 128,-1,37
 394 520 394 520 448 454.5 c 128,-1,38
 502 389 502 389 502 261 c 128,-1,39
 502 133 502 133 444.5 60 c 128,-1,40
 387 -13 387 -13 270 -13 c 128,-1,41
 153 -13 153 -13 94.5 55 c 128,-1,42
 36 123 36 123 36 250 c 128,-1,35
 36 377 36 377 94 448.5 c 128,-1,36
EndSplineSet
EndChar

StartChar: odieresis
Encoding: 246 246 183
Width: 538
GlyphClass: 2
Flags: W
LayerCount: 2
Fore
SplineSet
237 606 m 1,0,1
 217 602 217 602 194.5 602 c 128,-1,2
 172 602 172 602 158 604 c 1,3,4
 153 622 153 622 153 640.5 c 128,-1,5
 153 659 153 659 155 683 c 1,6,7
 170 686 170 686 196 686 c 128,-1,8
 222 686 222 686 234 685 c 1,9,10
 238 663 238 663 238 639.5 c 128,-1,11
 238 616 238 616 237 606 c 1,0,1
402 606 m 1,12,13
 382 602 382 602 359.5 602 c 128,-1,14
 337 602 337 602 323 604 c 1,15,16
 318 622 318 622 318 640.5 c 128,-1,17
 318 659 318 659 320 683 c 1,18,19
 335 686 335 686 361 686 c 128,-1,20
 387 686 387 686 399 685 c 1,21,22
 403 663 403 663 403 639.5 c 128,-1,23
 403 616 403 616 402 606 c 1,12,13
380.5 100.5 m 128,-1,25
 410 153 410 153 410 250 c 0,26,27
 410 404 410 404 342 443 c 0,28,29
 314 459 314 459 263.5 459 c 128,-1,30
 213 459 213 459 168 438 c 1,31,32
 128 361 128 361 128 259 c 0,33,34
 128 161 128 161 154 108 c 0,35,36
 184 48 184 48 267.5 48 c 128,-1,24
 351 48 351 48 380.5 100.5 c 128,-1,25
94 448.5 m 128,-1,38
 152 520 152 520 273 520 c 128,-1,39
 394 520 394 520 448 454.5 c 128,-1,40
 502 389 502 389 502 261 c 128,-1,41
 502 133 502 133 444.5 60 c 128,-1,42
 387 -13 387 -13 270 -13 c 128,-1,43
 153 -13 153 -13 94.5 55 c 128,-1,44
 36 123 36 123 36 250 c 128,-1,37
 36 377 36 377 94 448.5 c 128,-1,38
EndSplineSet
EndChar

StartChar: divide
Encoding: 247 247 184
Width: 566
GlyphClass: 2
Flags: W
LayerCount: 2
Fore
SplineSet
335 440 m 1,0,-1
 333 404 l 1,1,2
 307 398 307 398 282.5 398 c 128,-1,3
 258 398 258 398 234 401 c 1,4,5
 228 429 228 429 228 457.5 c 128,-1,6
 228 486 228 486 230 500 c 1,7,8
 252 505 252 505 276.5 505 c 128,-1,9
 301 505 301 505 329 503 c 1,10,11
 335 477 335 477 335 440 c 1,0,-1
335 45 m 1,12,-1
 333 9 l 1,13,14
 307 3 307 3 282.5 3 c 128,-1,15
 258 3 258 3 234 6 c 1,16,17
 228 34 228 34 228 62.5 c 128,-1,18
 228 91 228 91 230 105 c 1,19,20
 252 110 252 110 276.5 110 c 128,-1,21
 301 110 301 110 329 108 c 1,22,23
 335 82 335 82 335 45 c 1,12,-1
518 290 m 1,24,25
 520 280 520 280 520 261 c 1,26,-1
 518 231 l 1,27,28
 454 219 454 219 398 219 c 1,29,-1
 48 226 l 1,30,31
 45 240 45 240 45 253 c 1,32,-1
 48 285 l 1,33,34
 112 297 112 297 169 297 c 1,35,-1
 518 290 l 1,24,25
EndSplineSet
EndChar

StartChar: oslash
Encoding: 248 248 185
Width: 538
GlyphClass: 2
Flags: W
LayerCount: 2
Fore
SplineSet
502 259 m 0,0,1
 502 134 502 134 445.5 60.5 c 128,-1,2
 389 -13 389 -13 276 -13 c 0,3,4
 240 -13 240 -13 208 -6 c 1,5,-1
 171 -102 l 1,6,7
 135 -97 135 -97 118 -80 c 1,8,-1
 152 12 l 1,9,10
 36 67 36 67 36 249 c 0,11,12
 36 377 36 377 94 448.5 c 128,-1,13
 152 520 152 520 272 520 c 0,14,15
 308 520 308 520 338 514 c 1,16,-1
 374 609 l 1,17,18
 415 600 415 600 439 584 c 1,19,-1
 403 491 l 1,20,21
 502 436 502 436 502 259 c 0,0,1
128 259 m 0,22,23
 128 123 128 123 177 79 c 1,24,-1
 316 453 l 1,25,26
 297 459 297 459 272 459 c 0,27,28
 213 459 213 459 168 438 c 1,29,30
 128 361 128 361 128 259 c 0,22,23
272 48 m 0,31,32
 351 48 351 48 380.5 100.5 c 128,-1,33
 410 153 410 153 410 259 c 128,-1,34
 410 365 410 365 373 415 c 1,35,-1
 231 52 l 1,36,37
 247 48 247 48 272 48 c 0,31,32
EndSplineSet
EndChar

StartChar: ugrave
Encoding: 249 249 186
Width: 595
GlyphClass: 2
Flags: W
LayerCount: 2
Fore
SplineSet
358 622 m 1,0,1
 335 595 335 595 318 581 c 1,2,3
 230 623 230 623 176 675 c 1,4,5
 177 689 177 689 187.5 704 c 128,-1,6
 198 719 198 719 218 736 c 1,7,-1
 358 622 l 1,0,1
294 66 m 0,8,9
 323 66 323 66 359 78.5 c 128,-1,10
 395 91 395 91 418 109 c 1,11,12
 414 322 414 322 411 432 c 1,13,14
 349 432 349 432 319 444 c 1,15,-1
 323 496 l 1,16,17
 408 511 408 511 456.5 511 c 128,-1,18
 505 511 505 511 518 509 c 1,19,20
 518 491 518 491 512.5 461 c 128,-1,21
 507 431 507 431 505 428 c 1,22,-1
 493 71 l 1,23,24
 546 68 546 68 579 59 c 1,25,-1
 577 8 l 1,26,27
 533 -6 533 -6 492 -6 c 128,-1,28
 451 -6 451 -6 442 -5 c 1,29,30
 423 33 423 33 420 65 c 1,31,32
 371 28 371 28 329.5 8 c 128,-1,33
 288 -12 288 -12 275 -12 c 0,34,35
 187 -12 187 -12 147.5 35.5 c 128,-1,36
 108 83 108 83 108 175 c 0,37,38
 108 176 108 176 117 431 c 1,39,40
 59 431 59 431 10 444 c 1,41,-1
 14 496 l 1,42,43
 99 511 99 511 146 511 c 128,-1,44
 193 511 193 511 206 509 c 1,45,46
 206 485 206 485 200 456 c 128,-1,47
 194 427 194 427 193 428 c 2,48,-1
 194 212 l 2,49,50
 194 136 194 136 213 101 c 128,-1,51
 232 66 232 66 294 66 c 0,8,9
EndSplineSet
EndChar

StartChar: uacute
Encoding: 250 250 187
Width: 595
GlyphClass: 2
Flags: W
LayerCount: 2
Fore
SplineSet
216 622 m 1,0,-1
 356 736 l 1,1,2
 395 706 395 706 398 675 c 1,3,4
 374 652 374 652 338.5 628.5 c 128,-1,5
 303 605 303 605 256 581 c 1,6,7
 238 594 238 594 216 622 c 1,0,-1
294 66 m 0,8,9
 323 66 323 66 359 78.5 c 128,-1,10
 395 91 395 91 418 109 c 1,11,12
 414 322 414 322 411 432 c 1,13,14
 349 432 349 432 319 444 c 1,15,-1
 323 496 l 1,16,17
 408 511 408 511 456.5 511 c 128,-1,18
 505 511 505 511 518 509 c 1,19,20
 518 491 518 491 512.5 461 c 128,-1,21
 507 431 507 431 505 428 c 1,22,-1
 493 71 l 1,23,24
 546 68 546 68 579 59 c 1,25,-1
 577 8 l 1,26,27
 533 -6 533 -6 492 -6 c 128,-1,28
 451 -6 451 -6 442 -5 c 1,29,30
 423 33 423 33 420 65 c 1,31,32
 371 28 371 28 329.5 8 c 128,-1,33
 288 -12 288 -12 275 -12 c 0,34,35
 187 -12 187 -12 147.5 35.5 c 128,-1,36
 108 83 108 83 108 175 c 0,37,38
 108 176 108 176 117 431 c 1,39,40
 59 431 59 431 10 444 c 1,41,-1
 14 496 l 1,42,43
 99 511 99 511 146 511 c 128,-1,44
 193 511 193 511 206 509 c 1,45,46
 206 485 206 485 200 456 c 128,-1,47
 194 427 194 427 193 428 c 2,48,-1
 194 212 l 2,49,50
 194 136 194 136 213 101 c 128,-1,51
 232 66 232 66 294 66 c 0,8,9
EndSplineSet
EndChar

StartChar: ucircumflex
Encoding: 251 251 188
Width: 595
GlyphClass: 2
Flags: W
LayerCount: 2
Fore
SplineSet
287 736 m 1,0,-1
 428 622 l 1,1,2
 422 613 422 613 395 586 c 1,3,4
 394 587 394 587 379.5 593.5 c 128,-1,5
 365 600 365 600 352 607 c 0,6,7
 313 628 313 628 287 652 c 1,8,9
 252 619 252 619 194 594 c 0,10,11
 180 587 180 587 179 586 c 1,12,13
 155 608 155 608 146 622 c 1,14,-1
 287 736 l 1,0,-1
294 66 m 0,15,16
 323 66 323 66 359 78.5 c 128,-1,17
 395 91 395 91 418 109 c 1,18,19
 414 322 414 322 411 432 c 1,20,21
 349 432 349 432 319 444 c 1,22,-1
 323 496 l 1,23,24
 408 511 408 511 456.5 511 c 128,-1,25
 505 511 505 511 518 509 c 1,26,27
 518 491 518 491 512.5 461 c 128,-1,28
 507 431 507 431 505 428 c 1,29,-1
 493 71 l 1,30,31
 546 68 546 68 579 59 c 1,32,-1
 577 8 l 1,33,34
 533 -6 533 -6 492 -6 c 128,-1,35
 451 -6 451 -6 442 -5 c 1,36,37
 423 33 423 33 420 65 c 1,38,39
 371 28 371 28 329.5 8 c 128,-1,40
 288 -12 288 -12 275 -12 c 0,41,42
 187 -12 187 -12 147.5 35.5 c 128,-1,43
 108 83 108 83 108 175 c 0,44,45
 108 176 108 176 117 431 c 1,46,47
 59 431 59 431 10 444 c 1,48,-1
 14 496 l 1,49,50
 99 511 99 511 146 511 c 128,-1,51
 193 511 193 511 206 509 c 1,52,53
 206 485 206 485 200 456 c 128,-1,54
 194 427 194 427 193 428 c 2,55,-1
 194 212 l 2,56,57
 194 136 194 136 213 101 c 128,-1,58
 232 66 232 66 294 66 c 0,15,16
EndSplineSet
EndChar

StartChar: udieresis
Encoding: 252 252 189
Width: 595
GlyphClass: 2
Flags: W
LayerCount: 2
Fore
SplineSet
248 606 m 1,0,1
 228 602 228 602 205.5 602 c 128,-1,2
 183 602 183 602 169 604 c 1,3,4
 164 622 164 622 164 640.5 c 128,-1,5
 164 659 164 659 166 683 c 1,6,7
 181 686 181 686 207 686 c 128,-1,8
 233 686 233 686 245 685 c 1,9,10
 249 663 249 663 249 639.5 c 128,-1,11
 249 616 249 616 248 606 c 1,0,1
413 606 m 1,12,13
 393 602 393 602 370.5 602 c 128,-1,14
 348 602 348 602 334 604 c 1,15,16
 329 622 329 622 329 640.5 c 128,-1,17
 329 659 329 659 331 683 c 1,18,19
 346 686 346 686 372 686 c 128,-1,20
 398 686 398 686 410 685 c 1,21,22
 414 663 414 663 414 639.5 c 128,-1,23
 414 616 414 616 413 606 c 1,12,13
294 66 m 0,24,25
 323 66 323 66 359 78.5 c 128,-1,26
 395 91 395 91 418 109 c 1,27,28
 414 322 414 322 411 432 c 1,29,30
 349 432 349 432 319 444 c 1,31,-1
 323 496 l 1,32,33
 408 511 408 511 456.5 511 c 128,-1,34
 505 511 505 511 518 509 c 1,35,36
 518 491 518 491 512.5 461 c 128,-1,37
 507 431 507 431 505 428 c 1,38,-1
 493 71 l 1,39,40
 546 68 546 68 579 59 c 1,41,-1
 577 8 l 1,42,43
 533 -6 533 -6 492 -6 c 128,-1,44
 451 -6 451 -6 442 -5 c 1,45,46
 423 33 423 33 420 65 c 1,47,48
 371 28 371 28 329.5 8 c 128,-1,49
 288 -12 288 -12 275 -12 c 0,50,51
 187 -12 187 -12 147.5 35.5 c 128,-1,52
 108 83 108 83 108 175 c 0,53,54
 108 176 108 176 117 431 c 1,55,56
 59 431 59 431 10 444 c 1,57,-1
 14 496 l 1,58,59
 99 511 99 511 146 511 c 128,-1,60
 193 511 193 511 206 509 c 1,61,62
 206 485 206 485 200 456 c 128,-1,63
 194 427 194 427 193 428 c 2,64,-1
 194 212 l 2,65,66
 194 136 194 136 213 101 c 128,-1,67
 232 66 232 66 294 66 c 0,24,25
EndSplineSet
EndChar

StartChar: yacute
Encoding: 253 253 190
Width: 555
GlyphClass: 2
Flags: W
LayerCount: 2
Fore
SplineSet
140 -186 m 0,0,1
 178 -186 178 -186 214.5 -113 c 128,-1,2
 251 -40 251 -40 256 0 c 1,3,-1
 232 0 l 1,4,-1
 74 440 l 1,5,-1
 -10 448 l 1,6,7
 -10 476 -10 476 7 508 c 1,8,-1
 237 508 l 1,9,-1
 240 473 l 1,10,11
 208 459 208 459 169 451 c 1,12,-1
 256 178 l 1,13,-1
 279 90 l 1,14,-1
 289 90 l 1,15,-1
 409 451 l 1,16,-1
 325 473 l 1,17,-1
 328 508 l 1,18,-1
 553 508 l 1,19,20
 570 476 570 476 570 448 c 1,21,22
 529 443 529 443 488 441 c 1,23,24
 462 365 462 365 410.5 214 c 128,-1,25
 359 63 359 63 329.5 -20 c 128,-1,26
 300 -103 300 -103 271 -155 c 128,-1,27
 242 -207 242 -207 213.5 -224.5 c 128,-1,28
 185 -242 185 -242 150 -242 c 0,29,30
 88 -242 88 -242 34 -218 c 1,31,-1
 16 -209 l 1,32,33
 23 -95 23 -95 25 -84 c 1,34,35
 33 -81 33 -81 83 -81 c 1,36,-1
 117 -183 l 1,37,38
 126 -186 126 -186 140 -186 c 0,0,1
247 622 m 1,39,-1
 387 736 l 1,40,41
 426 706 426 706 429 675 c 1,42,43
 405 652 405 652 369.5 628.5 c 128,-1,44
 334 605 334 605 287 581 c 1,45,46
 269 594 269 594 247 622 c 1,39,-1
EndSplineSet
EndChar

StartChar: thorn
Encoding: 254 254 191
Width: 579
GlyphClass: 2
Flags: W
LayerCount: 2
Fore
SplineSet
327 520 m 0,0,1
 539 520 539 520 539 255 c 0,2,3
 539 162 539 162 489 80 c 0,4,5
 464 39 464 39 420.5 13.5 c 128,-1,6
 377 -12 377 -12 322 -12 c 0,7,8
 288 -12 288 -12 191 46 c 1,9,10
 189 -22 189 -22 187 -162 c 1,11,-1
 276 -170 l 1,12,13
 276 -198 276 -198 259 -230 c 1,14,-1
 29 -230 l 1,15,-1
 26 -195 l 1,16,17
 77 -179 77 -179 121 -171 c 1,18,19
 119 -11 119 -11 114 283 c 128,-1,20
 109 577 109 577 108 670 c 1,21,22
 53 673 53 673 20 682 c 1,23,-1
 24 734 l 1,24,25
 75 749 75 749 172 749 c 0,26,27
 203 749 203 749 216 747 c 1,28,29
 216 722 216 722 210 694 c 128,-1,30
 204 666 204 666 203 667 c 1,31,32
 203 645 203 645 201 577 c 128,-1,33
 199 509 199 509 199 472 c 1,34,35
 305 520 305 520 327 520 c 0,0,1
320 446 m 0,36,37
 264 446 264 446 198 409 c 1,38,39
 198 407 198 407 192 113 c 1,40,41
 275 56 275 56 315 56 c 0,42,43
 377 56 377 56 414 108 c 128,-1,44
 451 160 451 160 451 250 c 0,45,46
 451 446 451 446 320 446 c 0,36,37
EndSplineSet
EndChar

StartChar: Amacron
Encoding: 256 256 193
Width: 739
GlyphClass: 2
Flags: W
LayerCount: 2
Fore
SplineSet
259 692.5 m 128,-1,1
 339 700 339 700 404.5 700 c 128,-1,2
 470 700 470 700 506 694 c 1,3,4
 507 690 507 690 507 684.5 c 128,-1,5
 507 679 507 679 501.5 659 c 128,-1,6
 496 639 496 639 493 633 c 1,7,8
 485 625 485 625 448 621 c 1,9,-1
 639 68 l 1,10,-1
 734 60 l 1,11,12
 734 32 734 32 717 0 c 1,13,-1
 487 0 l 1,14,-1
 484 35 l 1,15,16
 507 47 507 47 551 56 c 1,17,-1
 500 199 l 1,18,-1
 221 199 l 1,19,-1
 174 68 l 1,20,-1
 255 60 l 1,21,22
 255 32 255 32 238 0 c 1,23,-1
 8 0 l 1,24,-1
 5 35 l 1,25,26
 44 49 44 49 88 57 c 1,27,-1
 282 624 l 1,28,29
 193 634 193 634 157 648 c 1,30,-1
 161 679 l 1,31,0
 179 685 179 685 259 692.5 c 128,-1,1
421 422 m 1,32,-1
 368 618 l 1,33,34
 362 619 362 619 351 619 c 1,35,-1
 297 415 l 1,36,-1
 239 263 l 1,37,-1
 482 263 l 1,38,-1
 421 422 l 1,32,-1
479 892 m 1,39,40
 481 876 481 876 481 866 c 2,41,-1
 479 831 l 1,42,43
 427 826 427 826 381 826 c 1,44,-1
 260 831 l 1,45,46
 258 845 258 845 258 857 c 2,47,-1
 260 892 l 1,48,49
 312 897 312 897 358 897 c 1,50,-1
 479 892 l 1,39,40
EndSplineSet
EndChar

StartChar: abreve
Encoding: 259 259 196
Width: 539
GlyphClass: 2
Flags: W
LayerCount: 2
Fore
SplineSet
404 737 m 1,0,1
 404 681 404 681 367 638 c 128,-1,2
 330 595 330 595 267.5 595 c 128,-1,3
 205 595 205 595 169.5 638 c 128,-1,4
 134 681 134 681 134 737 c 1,5,-1
 186 739 l 1,6,7
 186 707 186 707 206 682.5 c 128,-1,8
 226 658 226 658 268 658 c 0,9,10
 341 658 341 658 341 737 c 1,11,-1
 404 737 l 1,0,1
438 327 m 1,12,-1
 433 69 l 1,13,14
 476 66 476 66 519 55 c 1,15,-1
 517 20 l 1,16,17
 501 12 501 12 459.5 2.5 c 128,-1,18
 418 -7 418 -7 378 -7 c 1,19,20
 360 29 360 29 358 62 c 1,21,22
 244 -13 244 -13 198 -13 c 0,23,24
 127 -13 127 -13 84 25 c 128,-1,25
 41 63 41 63 41 131 c 0,26,27
 41 288 41 288 233 293 c 0,28,29
 345 296 345 296 346 296 c 2,30,-1
 345 330 l 2,31,32
 343 399 343 399 319 429.5 c 128,-1,33
 295 460 295 460 233 460 c 0,34,35
 207 460 207 460 177 448 c 1,36,-1
 153 348 l 1,37,38
 148 347 148 347 136 347 c 2,39,-1
 95 350 l 1,40,41
 79 393 79 393 78 469 c 1,42,43
 97 479 97 479 165 499.5 c 128,-1,44
 233 520 233 520 252 520 c 0,45,46
 354 520 354 520 396 475 c 128,-1,47
 438 430 438 430 438 327 c 1,12,-1
220 55 m 0,48,49
 249 55 249 55 354 120 c 1,50,-1
 349 245 l 1,51,52
 281 239 281 239 235 234 c 128,-1,53
 189 229 189 229 161 207.5 c 128,-1,54
 133 186 133 186 133 140 c 0,55,56
 133 55 133 55 220 55 c 0,48,49
EndSplineSet
EndChar

StartChar: emacron
Encoding: 275 275 198
Width: 512
GlyphClass: 2
Flags: W
LayerCount: 2
Fore
SplineSet
290 56 m 0,0,1
 334 56 334 56 428 98 c 1,2,3
 447 72 447 72 448 52 c 1,4,5
 397 22 397 22 348 5 c 128,-1,6
 299 -12 299 -12 278 -12 c 0,7,8
 162 -12 162 -12 101 57.5 c 128,-1,9
 40 127 40 127 40 252 c 128,-1,10
 40 377 40 377 99.5 448.5 c 128,-1,11
 159 520 159 520 278 520 c 0,12,13
 370 520 370 520 418.5 454 c 128,-1,14
 467 388 467 388 467 277 c 1,15,16
 459 263 459 263 454 258 c 1,17,-1
 132 263 l 1,18,19
 133 162 133 162 167.5 109 c 128,-1,20
 202 56 202 56 290 56 c 0,0,1
352 422.5 m 128,-1,22
 328 459 328 459 272 459 c 128,-1,23
 216 459 216 459 172 438 c 1,24,25
 142 378 142 378 134 315 c 1,26,27
 213 316 213 316 376 320 c 1,28,21
 376 386 376 386 352 422.5 c 128,-1,22
366 700 m 1,29,30
 368 684 368 684 368 674 c 2,31,-1
 366 639 l 1,32,33
 314 634 314 634 268 634 c 1,34,-1
 147 639 l 1,35,36
 145 653 145 653 145 665 c 2,37,-1
 147 700 l 1,38,39
 199 705 199 705 245 705 c 1,40,-1
 366 700 l 1,29,30
EndSplineSet
EndChar

StartChar: ebreve
Encoding: 277 277 200
Width: 508
GlyphClass: 2
Flags: W
LayerCount: 2
Fore
SplineSet
389 737 m 1,0,1
 389 681 389 681 352 638 c 128,-1,2
 315 595 315 595 252.5 595 c 128,-1,3
 190 595 190 595 154.5 638 c 128,-1,4
 119 681 119 681 119 737 c 1,5,-1
 171 739 l 1,6,7
 171 707 171 707 191 682.5 c 128,-1,8
 211 658 211 658 253 658 c 0,9,10
 326 658 326 658 326 737 c 1,11,-1
 389 737 l 1,0,1
290 56 m 0,12,13
 334 56 334 56 428 98 c 1,14,15
 447 72 447 72 448 52 c 1,16,17
 397 22 397 22 348 5 c 128,-1,18
 299 -12 299 -12 278 -12 c 0,19,20
 162 -12 162 -12 101 57.5 c 128,-1,21
 40 127 40 127 40 252 c 128,-1,22
 40 377 40 377 99.5 448.5 c 128,-1,23
 159 520 159 520 278 520 c 0,24,25
 370 520 370 520 418.5 454 c 128,-1,26
 467 388 467 388 467 277 c 1,27,28
 459 263 459 263 454 258 c 1,29,-1
 132 263 l 1,30,31
 133 162 133 162 167.5 109 c 128,-1,32
 202 56 202 56 290 56 c 0,12,13
352 422.5 m 128,-1,34
 328 459 328 459 272 459 c 128,-1,35
 216 459 216 459 172 438 c 1,36,37
 142 378 142 378 134 315 c 1,38,39
 213 316 213 316 376 320 c 1,40,33
 376 386 376 386 352 422.5 c 128,-1,34
EndSplineSet
EndChar

StartChar: Gbreve
Encoding: 286 286 201
Width: 676
GlyphClass: 2
Flags: W
LayerCount: 2
Fore
SplineSet
314 -13 m 0,0,1
 180 -13 180 -13 100 79 c 128,-1,2
 20 171 20 171 20 351.5 c 128,-1,3
 20 532 20 532 89.5 622.5 c 128,-1,4
 159 713 159 713 306.5 713 c 128,-1,5
 454 713 454 713 555 639 c 1,6,7
 555 588 555 588 541 518 c 1,8,9
 519 514 519 514 483 514 c 1,10,-1
 461 617 l 1,11,12
 404 636 404 636 321 636 c 0,13,14
 266 636 266 636 170 606 c 1,15,16
 164 595 164 595 155 575.5 c 128,-1,17
 146 556 146 556 131.5 493.5 c 128,-1,18
 117 431 117 431 117 368 c 0,19,20
 117 61 117 61 316 61 c 0,21,22
 421 61 421 61 478 99 c 1,23,24
 482 225 482 225 483 288 c 1,25,-1
 386 312 l 1,26,-1
 389 347 l 1,27,-1
 619 347 l 1,28,29
 636 315 636 315 636 287 c 1,30,31
 597 281 597 281 552 279 c 1,32,33
 558 111 558 111 558 47 c 1,34,35
 533 30 533 30 458.5 8.5 c 128,-1,36
 384 -13 384 -13 314 -13 c 0,0,1
465 929 m 1,37,38
 465 873 465 873 428 830 c 128,-1,39
 391 787 391 787 328.5 787 c 128,-1,40
 266 787 266 787 230.5 830 c 128,-1,41
 195 873 195 873 195 929 c 1,42,-1
 247 931 l 1,43,44
 247 899 247 899 267 874.5 c 128,-1,45
 287 850 287 850 329 850 c 0,46,47
 402 850 402 850 402 929 c 1,48,-1
 465 929 l 1,37,38
EndSplineSet
EndChar

StartChar: gbreve
Encoding: 287 287 202
Width: 578
GlyphClass: 2
Flags: W
LayerCount: 2
Fore
SplineSet
424 737 m 1,0,1
 424 681 424 681 387 638 c 128,-1,2
 350 595 350 595 287.5 595 c 128,-1,3
 225 595 225 595 189.5 638 c 128,-1,4
 154 681 154 681 154 737 c 1,5,-1
 206 739 l 1,6,7
 206 707 206 707 226 682.5 c 128,-1,8
 246 658 246 658 288 658 c 0,9,10
 361 658 361 658 361 737 c 1,11,-1
 424 737 l 1,0,1
389 63 m 1,12,13
 527 63 527 63 527 -51 c 0,14,15
 527 -104 527 -104 481.5 -149.5 c 128,-1,16
 436 -195 436 -195 373 -218 c 128,-1,17
 310 -241 310 -241 252 -241 c 0,18,19
 136 -241 136 -241 74 -175 c 0,20,21
 41 -140 41 -140 41 -94 c 0,22,23
 41 -83 41 -83 76.5 -36.5 c 128,-1,24
 112 10 112 10 123 18 c 1,25,26
 114 24 114 24 88 52.5 c 128,-1,27
 62 81 62 81 59 92 c 1,28,29
 84 138 84 138 138 182 c 1,30,31
 58 230 58 230 58 340 c 0,32,33
 58 428 58 428 114 474 c 128,-1,34
 170 520 170 520 254 520 c 128,-1,35
 338 520 338 520 384 493 c 1,36,37
 464 509 464 509 541 509 c 0,38,39
 560 509 560 509 560 486 c 0,40,41
 560 446 560 446 545 431 c 1,42,-1
 430 450 l 1,43,44
 466 404 466 404 466 340 c 0,45,46
 466 240 466 240 407 196.5 c 128,-1,47
 348 153 348 153 262 153 c 0,48,49
 235 153 235 153 198 160 c 1,50,51
 183 129 183 129 160 93 c 1,52,53
 178 61 178 61 300 61 c 1,54,-1
 389 63 l 1,12,13
414 -18 m 128,-1,56
 391 0 391 0 355 0 c 0,57,58
 212 0 212 0 180 3 c 1,59,60
 165 -21 165 -21 148.5 -57 c 128,-1,61
 132 -93 132 -93 132 -103 c 0,62,63
 132 -142 132 -142 169 -161 c 128,-1,64
 206 -180 206 -180 254.5 -180 c 128,-1,65
 303 -180 303 -180 352.5 -164 c 128,-1,66
 402 -148 402 -148 427 -123 c 1,67,68
 437 -95 437 -95 437 -65.5 c 128,-1,55
 437 -36 437 -36 414 -18 c 128,-1,56
262 460 m 128,-1,70
 148 460 148 460 148 340 c 0,71,72
 148 279 148 279 178 246 c 128,-1,73
 208 213 208 213 265 213 c 128,-1,74
 322 213 322 213 349 245 c 128,-1,75
 376 277 376 277 376 340 c 0,76,69
 376 460 376 460 262 460 c 128,-1,70
EndSplineSet
EndChar

StartChar: hbar
Encoding: 295 295 203
Width: 617
GlyphClass: 2
Flags: W
LayerCount: 2
Fore
SplineSet
27 544 m 1,0,1
 25 556 25 556 25 565.5 c 128,-1,2
 25 575 25 575 27 585 c 1,3,4
 68 589 68 589 109 590 c 1,5,-1
 109 664 l 1,6,7
 53 667 53 667 20 676 c 1,8,-1
 24 728 l 1,9,10
 75 743 75 743 176 743 c 0,11,12
 207 743 207 743 220 741 c 1,13,14
 220 723 220 723 214.5 694.5 c 128,-1,15
 209 666 209 666 207 661 c 1,16,17
 205 611 205 611 205 586 c 1,18,-1
 246 585 l 1,19,20
 248 575 248 575 248 568 c 2,21,-1
 246 544 l 1,22,23
 226 543 226 543 204 542 c 1,24,25
 203 516 203 516 203 463 c 1,26,27
 246 486 246 486 288.5 503 c 128,-1,28
 331 520 331 520 342 520 c 0,29,30
 438 520 438 520 481 472.5 c 128,-1,31
 524 425 524 425 524 328 c 0,32,33
 524 300 524 300 516 68 c 1,34,-1
 600 60 l 1,35,36
 600 32 600 32 583 0 c 1,37,-1
 353 0 l 1,38,-1
 350 35 l 1,39,40
 396 51 396 51 440 59 c 1,41,42
 434 321 434 321 429.5 350.5 c 128,-1,43
 425 380 425 380 415 402 c 128,-1,44
 405 424 405 424 385 433 c 128,-1,45
 365 442 365 442 332 442 c 0,46,47
 264 442 264 442 202 410 c 1,48,-1
 196 68 l 1,49,-1
 280 60 l 1,50,51
 280 32 280 32 263 0 c 1,52,-1
 33 0 l 1,53,-1
 30 35 l 1,54,55
 76 51 76 51 120 59 c 1,56,57
 119 150 119 150 115 318 c 128,-1,58
 111 486 111 486 110 539 c 1,59,-1
 27 544 l 1,0,1
EndSplineSet
EndChar

StartChar: Itilde
Encoding: 296 296 204
Width: 459
GlyphClass: 2
Flags: W
LayerCount: 2
Fore
SplineSet
272 68 m 1,0,1
 317 66 317 66 356 60 c 1,2,3
 356 32 356 32 339 0 c 1,4,-1
 109 0 l 1,5,-1
 106 35 l 1,6,7
 160 52 160 52 197 59 c 1,8,9
 195 124 195 124 190.5 327 c 128,-1,10
 186 530 186 530 183 641 c 1,11,12
 139 649 139 649 93 665 c 1,13,-1
 96 700 l 1,14,-1
 346 700 l 1,15,16
 363 668 363 668 363 640 c 1,17,-1
 282 636 l 1,18,-1
 272 68 l 1,0,1
156 828 m 1,19,20
 127 809 127 809 72 791 c 1,21,-1
 55 820 l 1,22,23
 82 857 82 857 120.5 880 c 128,-1,24
 159 903 159 903 166 903 c 0,25,26
 185 903 185 903 238.5 880 c 128,-1,27
 292 857 292 857 303 854 c 1,28,29
 360 885 360 885 387 894 c 1,30,-1
 404 865 l 1,31,32
 377 828 377 828 327 798 c 0,33,34
 323 796 323 796 316 790 c 0,35,36
 300 779 300 779 293 779 c 1,37,38
 273 786 273 786 242 799 c 0,39,40
 173 828 173 828 156 828 c 1,19,20
EndSplineSet
EndChar

StartChar: itilde
Encoding: 297 297 205
Width: 399
GlyphClass: 2
Flags: W
LayerCount: 2
Fore
SplineSet
93 498 m 1,0,1
 178 513 178 513 225 513 c 128,-1,2
 272 513 272 513 285 511 c 1,3,4
 285 487 285 487 279 458 c 128,-1,5
 273 429 273 429 272 430 c 1,6,-1
 263 68 l 1,7,-1
 347 60 l 1,8,9
 347 32 347 32 330 0 c 1,10,-1
 100 0 l 1,11,-1
 97 35 l 1,12,13
 143 51 143 51 187 59 c 1,14,15
 181 309 181 309 177 434 c 1,16,17
 119 434 119 434 89 446 c 1,18,-1
 93 498 l 1,0,1
131 636 m 1,19,20
 102 617 102 617 47 599 c 1,21,-1
 30 628 l 1,22,23
 57 665 57 665 95.5 688 c 128,-1,24
 134 711 134 711 141 711 c 0,25,26
 160 711 160 711 213.5 688 c 128,-1,27
 267 665 267 665 278 662 c 1,28,29
 335 693 335 693 362 702 c 1,30,-1
 379 673 l 1,31,32
 352 636 352 636 302 606 c 0,33,34
 298 604 298 604 290 598 c 0,35,36
 275 587 275 587 268 587 c 1,37,38
 248 594 248 594 217 607 c 0,39,40
 148 636 148 636 131 636 c 1,19,20
EndSplineSet
EndChar

StartChar: Imacron
Encoding: 298 298 206
Width: 380
GlyphClass: 2
Flags: W
LayerCount: 2
Fore
SplineSet
234 68 m 1,0,1
 279 66 279 66 318 60 c 1,2,3
 318 32 318 32 301 0 c 1,4,-1
 71 0 l 1,5,-1
 68 35 l 1,6,7
 116 50 116 50 159 59 c 1,8,9
 157 124 157 124 152.5 327 c 128,-1,10
 148 530 148 530 145 641 c 1,11,12
 101 649 101 649 55 665 c 1,13,-1
 58 700 l 1,14,-1
 308 700 l 1,15,16
 325 668 325 668 325 640 c 1,17,-1
 244 636 l 1,18,-1
 234 68 l 1,0,1
300 892 m 1,19,20
 302 876 302 876 302 866 c 2,21,-1
 300 831 l 1,22,23
 248 826 248 826 202 826 c 1,24,-1
 81 831 l 1,25,26
 79 845 79 845 79 857 c 2,27,-1
 81 892 l 1,28,29
 133 897 133 897 179 897 c 1,30,-1
 300 892 l 1,19,20
EndSplineSet
EndChar

StartChar: Ibreve
Encoding: 300 300 208
Width: 380
GlyphClass: 2
Flags: W
LayerCount: 2
Fore
SplineSet
234 68 m 1,0,1
 279 66 279 66 318 60 c 1,2,3
 318 32 318 32 301 0 c 1,4,-1
 71 0 l 1,5,-1
 68 35 l 1,6,7
 116 50 116 50 159 59 c 1,8,9
 157 124 157 124 152.5 327 c 128,-1,10
 148 530 148 530 145 641 c 1,11,12
 101 649 101 649 55 665 c 1,13,-1
 58 700 l 1,14,-1
 308 700 l 1,15,16
 325 668 325 668 325 640 c 1,17,-1
 244 636 l 1,18,-1
 234 68 l 1,0,1
325 929 m 1,19,20
 325 873 325 873 288 830 c 128,-1,21
 251 787 251 787 188.5 787 c 128,-1,22
 126 787 126 787 90.5 830 c 128,-1,23
 55 873 55 873 55 929 c 1,24,-1
 107 931 l 1,25,26
 107 899 107 899 127 874.5 c 128,-1,27
 147 850 147 850 189 850 c 0,28,29
 262 850 262 850 262 929 c 1,30,-1
 325 929 l 1,19,20
EndSplineSet
EndChar

StartChar: ibreve
Encoding: 301 301 209
Width: 320
GlyphClass: 2
Flags: W
LayerCount: 2
Fore
SplineSet
45 498 m 1,0,1
 130 513 130 513 177 513 c 128,-1,2
 224 513 224 513 237 511 c 1,3,4
 237 487 237 487 231 458 c 128,-1,5
 225 429 225 429 224 430 c 1,6,-1
 215 68 l 1,7,-1
 299 60 l 1,8,9
 299 32 299 32 282 0 c 1,10,-1
 52 0 l 1,11,-1
 49 35 l 1,12,13
 95 51 95 51 139 59 c 1,14,15
 133 309 133 309 129 434 c 1,16,17
 71 434 71 434 41 446 c 1,18,-1
 45 498 l 1,0,1
300 737 m 1,19,20
 300 681 300 681 263 638 c 128,-1,21
 226 595 226 595 163.5 595 c 128,-1,22
 101 595 101 595 65.5 638 c 128,-1,23
 30 681 30 681 30 737 c 1,24,-1
 82 739 l 1,25,26
 82 707 82 707 102 682.5 c 128,-1,27
 122 658 122 658 164 658 c 0,28,29
 237 658 237 658 237 737 c 1,30,-1
 300 737 l 1,19,20
EndSplineSet
EndChar

StartChar: dotlessi
Encoding: 305 305 210
Width: 308
GlyphClass: 2
Flags: W
LayerCount: 2
Fore
SplineSet
34 498 m 1,0,1
 119 513 119 513 166 513 c 128,-1,2
 213 513 213 513 226 511 c 1,3,4
 226 487 226 487 220 458 c 128,-1,5
 214 429 214 429 213 430 c 1,6,-1
 204 68 l 1,7,-1
 288 60 l 1,8,9
 288 32 288 32 271 0 c 1,10,-1
 41 0 l 1,11,-1
 38 35 l 1,12,13
 84 51 84 51 128 59 c 1,14,15
 122 309 122 309 118 434 c 1,16,17
 60 434 60 434 30 446 c 1,18,-1
 34 498 l 1,0,1
EndSplineSet
EndChar

StartChar: IJ
Encoding: 306 306 211
Width: 844
GlyphClass: 2
Flags: W
LayerCount: 2
Fore
SplineSet
244 636 m 1,0,-1
 234 68 l 1,1,-1
 318 60 l 1,2,3
 318 32 318 32 301 0 c 1,4,-1
 71 0 l 1,5,-1
 68 35 l 1,6,7
 114 51 114 51 159 59 c 1,8,9
 157 124 157 124 152.5 327 c 128,-1,10
 148 530 148 530 145 641 c 1,11,12
 105 649 105 649 55 665 c 1,13,-1
 58 700 l 1,14,-1
 308 700 l 1,15,16
 325 668 325 668 325 640 c 1,17,18
 274 636 274 636 244 636 c 1,0,-1
480 73 m 1,19,20
 507 63 507 63 551 63 c 128,-1,21
 595 63 595 63 620.5 88.5 c 128,-1,22
 646 114 646 114 646 180.5 c 128,-1,23
 646 247 646 247 644 322 c 128,-1,24
 642 397 642 397 638 492.5 c 128,-1,25
 634 588 634 588 632 641 c 1,26,27
 602 645 602 645 544 665 c 1,28,-1
 547 700 l 1,29,-1
 797 700 l 1,30,31
 814 668 814 668 814 640 c 1,32,33
 802 636 802 636 734 636 c 1,34,35
 732 547 732 547 729.5 383 c 128,-1,36
 727 219 727 219 726 167 c 0,37,38
 724 82 724 82 685.5 34.5 c 128,-1,39
 647 -13 647 -13 573 -13 c 0,40,41
 519 -13 519 -13 462 2 c 128,-1,42
 405 17 405 17 385 32 c 1,43,44
 386 108 386 108 401 196 c 1,45,46
 417 203 417 203 460 203 c 1,47,-1
 480 73 l 1,19,20
EndSplineSet
EndChar

StartChar: ij
Encoding: 307 307 212
Width: 613
GlyphClass: 2
Flags: W
LayerCount: 2
Fore
SplineSet
231 603 m 1,0,1
 205 597 205 597 180.5 597 c 128,-1,2
 156 597 156 597 132 600 c 1,3,4
 126 628 126 628 126 656.5 c 128,-1,5
 126 685 126 685 128 699 c 1,6,7
 150 704 150 704 174.5 704 c 128,-1,8
 199 704 199 704 227 702 c 1,9,10
 233 676 233 676 233 651.5 c 128,-1,11
 233 627 233 627 231 603 c 1,0,1
49 498 m 1,12,13
 134 513 134 513 181 513 c 128,-1,14
 228 513 228 513 241 511 c 1,15,16
 241 487 241 487 235 458 c 128,-1,17
 229 429 229 429 228 430 c 1,18,-1
 219 68 l 1,19,-1
 303 60 l 1,20,21
 303 32 303 32 286 0 c 1,22,-1
 56 0 l 1,23,-1
 53 35 l 1,24,25
 99 51 99 51 143 59 c 1,26,27
 137 309 137 309 133 434 c 1,28,29
 75 434 75 434 45 446 c 1,30,-1
 49 498 l 1,12,13
353 -241 m 0,31,32
 321 -241 321 -241 274.5 -228 c 128,-1,33
 228 -215 228 -215 211 -204 c 1,34,35
 216 -113 216 -113 230 -71 c 1,36,37
 252 -67 252 -67 267.5 -67 c 128,-1,38
 283 -67 283 -67 288 -68 c 1,39,-1
 313 -177 l 1,40,41
 328 -182 328 -182 357 -182 c 0,42,43
 444 -182 444 -182 444 -39 c 0,44,45
 444 45 444 45 440.5 212.5 c 128,-1,46
 437 380 437 380 436 435 c 1,47,48
 381 438 381 438 348 447 c 1,49,-1
 352 499 l 1,50,51
 403 514 403 514 500 514 c 0,52,53
 531 514 531 514 544 512 c 1,54,55
 544 488 544 488 538 459 c 128,-1,56
 532 430 532 430 531 431 c 1,57,58
 528 283 528 283 524 -20 c 0,59,60
 522 -134 522 -134 486.5 -187.5 c 128,-1,61
 451 -241 451 -241 353 -241 c 0,31,32
534 603 m 1,62,63
 508 597 508 597 483.5 597 c 128,-1,64
 459 597 459 597 435 600 c 1,65,66
 429 628 429 628 429 656.5 c 128,-1,67
 429 685 429 685 431 699 c 1,68,69
 453 704 453 704 477.5 704 c 128,-1,70
 502 704 502 704 530 702 c 1,71,72
 536 676 536 676 536 651.5 c 128,-1,73
 536 627 536 627 534 603 c 1,62,63
EndSplineSet
EndChar

StartChar: jcircumflex
Encoding: 309 309 214
Width: 305
GlyphClass: 2
Flags: W
LayerCount: 2
Fore
SplineSet
172 736 m 1,0,-1
 313 622 l 1,1,2
 307 613 307 613 280 586 c 1,3,4
 279 587 279 587 264.5 593.5 c 128,-1,5
 250 600 250 600 237 607 c 0,6,7
 198 628 198 628 172 652 c 1,8,9
 137 619 137 619 80 594 c 0,10,11
 65 587 65 587 64 586 c 1,12,13
 40 608 40 608 31 622 c 1,14,-1
 172 736 l 1,0,-1
44 -241 m 0,15,16
 12 -241 12 -241 -34.5 -228 c 128,-1,17
 -81 -215 -81 -215 -98 -204 c 1,18,19
 -93 -113 -93 -113 -79 -71 c 1,20,21
 -57 -67 -57 -67 -41.5 -67 c 128,-1,22
 -26 -67 -26 -67 -21 -68 c 1,23,-1
 4 -177 l 1,24,25
 19 -182 19 -182 48 -182 c 0,26,27
 135 -182 135 -182 135 -39 c 0,28,29
 135 45 135 45 131.5 212.5 c 128,-1,30
 128 380 128 380 127 435 c 1,31,32
 72 438 72 438 39 447 c 1,33,-1
 43 499 l 1,34,35
 94 514 94 514 191 514 c 0,36,37
 222 514 222 514 235 512 c 1,38,39
 235 488 235 488 229 459 c 128,-1,40
 223 430 223 430 222 431 c 1,41,42
 219 283 219 283 215 -20 c 0,43,44
 213 -134 213 -134 177.5 -187.5 c 128,-1,45
 142 -241 142 -241 44 -241 c 0,15,16
EndSplineSet
EndChar

StartChar: kcedilla
Encoding: 311 311 215
Width: 591
GlyphClass: 2
Flags: W
LayerCount: 2
Fore
SplineSet
389 -27 m 1,0,1
 394 -45 394 -45 394 -82 c 128,-1,2
 394 -119 394 -119 366.5 -160 c 128,-1,3
 339 -201 339 -201 316 -215 c 1,4,5
 302 -209 302 -209 290 -197 c 1,6,7
 299 -172 299 -172 352 -110 c 1,8,9
 324 -110 324 -110 313 -108 c 1,10,11
 309 -95 309 -95 309 -67.5 c 128,-1,12
 309 -40 309 -40 310 -29 c 1,13,14
 332 -25 332 -25 349.5 -25 c 128,-1,15
 367 -25 367 -25 389 -27 c 1,0,1
171 749 m 0,16,17
 202 749 202 749 215 747 c 1,18,19
 215 716 215 716 202 667 c 1,20,21
 196 403 196 403 196 268 c 1,22,-1
 357 440 l 1,23,-1
 277 448 l 1,24,25
 277 476 277 476 294 508 c 1,26,-1
 548 508 l 1,27,-1
 551 464 l 1,28,29
 528 455 528 455 467 441 c 1,30,-1
 330 317 l 1,31,-1
 499 68 l 1,32,-1
 583 60 l 1,33,34
 583 32 583 32 566 0 c 1,35,-1
 429 0 l 1,36,-1
 273 266 l 1,37,-1
 195 195 l 1,38,39
 193 111 193 111 193 68 c 1,40,-1
 277 60 l 1,41,42
 277 32 277 32 260 0 c 1,43,-1
 30 0 l 1,44,-1
 27 35 l 1,45,46
 73 51 73 51 117 59 c 1,47,48
 111 463 111 463 107 670 c 1,49,50
 52 673 52 673 19 682 c 1,51,-1
 23 734 l 1,52,53
 74 749 74 749 171 749 c 0,16,17
EndSplineSet
EndChar

StartChar: kgreenlandic
Encoding: 312 312 216
Width: 591
GlyphClass: 2
Flags: W
LayerCount: 2
Fore
SplineSet
171 511 m 0,0,1
 202 511 202 511 215 509 c 1,2,3
 215 484 215 484 207 456 c 128,-1,4
 199 428 199 428 198 429 c 1,5,6
 196 321 196 321 196 268 c 1,7,-1
 357 440 l 1,8,-1
 277 448 l 1,9,10
 277 476 277 476 294 508 c 1,11,-1
 548 508 l 1,12,-1
 551 464 l 1,13,14
 528 455 528 455 467 441 c 1,15,-1
 330 317 l 1,16,-1
 499 68 l 1,17,-1
 583 60 l 1,18,19
 583 32 583 32 566 0 c 1,20,-1
 429 0 l 1,21,-1
 273 266 l 1,22,-1
 195 195 l 1,23,24
 195 152 195 152 193 68 c 1,25,-1
 277 60 l 1,26,27
 277 32 277 32 260 0 c 1,28,-1
 30 0 l 1,29,-1
 27 35 l 1,30,31
 73 51 73 51 117 59 c 1,32,33
 111 430 111 430 111 432 c 1,34,35
 51 436 51 436 19 444 c 1,36,-1
 23 496 l 1,37,38
 74 511 74 511 171 511 c 0,0,1
EndSplineSet
EndChar

StartChar: ldot
Encoding: 320 320 218
Width: 503
GlyphClass: 2
Flags: W
LayerCount: 2
Fore
SplineSet
171 743 m 0,0,1
 202 743 202 743 215 741 c 1,2,3
 215 706 215 706 202 661 c 1,4,5
 193 71 193 71 193 68 c 1,6,-1
 277 60 l 1,7,8
 277 32 277 32 260 0 c 1,9,-1
 30 0 l 1,10,-1
 27 35 l 1,11,12
 73 51 73 51 117 59 c 1,13,-1
 107 664 l 1,14,15
 52 667 52 667 19 676 c 1,16,-1
 23 728 l 1,17,18
 74 743 74 743 171 743 c 0,0,1
451 240 m 1,19,20
 425 234 425 234 400.5 234 c 128,-1,21
 376 234 376 234 352 237 c 1,22,23
 346 265 346 265 346 293.5 c 128,-1,24
 346 322 346 322 348 336 c 1,25,26
 370 341 370 341 394.5 341 c 128,-1,27
 419 341 419 341 447 339 c 1,28,29
 453 313 453 313 453 288.5 c 128,-1,30
 453 264 453 264 451 240 c 1,19,20
EndSplineSet
EndChar

StartChar: Lslash
Encoding: 321 321 219
Width: 592
GlyphClass: 2
Flags: W
LayerCount: 2
Fore
SplineSet
63 314 m 1,0,1
 108 337 108 337 162 355 c 1,2,3
 161 448 161 448 157 639 c 1,4,5
 131 643 131 643 69 663 c 1,6,-1
 74 700 l 1,7,-1
 315 700 l 1,8,9
 332 672 332 672 332 641 c 1,10,11
 278 639 278 639 254 638 c 1,12,13
 251 524 251 524 251 384 c 1,14,-1
 334 410 l 1,15,16
 349 381 349 381 353 354 c 1,17,18
 311 334 311 334 250 314 c 1,19,20
 248 220 248 220 248 67 c 1,21,-1
 467 67 l 1,22,-1
 491 162 l 1,23,24
 541 162 541 162 549 157 c 1,25,26
 552 151 552 151 557.5 111 c 128,-1,27
 563 71 563 71 563 43.5 c 128,-1,28
 563 16 563 16 560 0 c 1,29,-1
 85 0 l 1,30,-1
 82 35 l 1,31,32
 129 52 129 52 167 58 c 1,33,34
 165 210 165 210 163 286 c 1,35,-1
 82 261 l 1,36,37
 71 279 71 279 63 314 c 1,0,1
EndSplineSet
EndChar

StartChar: lslash
Encoding: 322 322 220
Width: 303
GlyphClass: 2
Flags: W
LayerCount: 2
Fore
SplineSet
27 261 m 1,0,1
 16 279 16 279 8 314 c 1,2,3
 66 342 66 342 108 355 c 1,4,5
 107 460 107 460 103 670 c 1,6,7
 48 673 48 673 15 682 c 1,8,-1
 19 734 l 1,9,10
 70 749 70 749 167 749 c 0,11,12
 198 749 198 749 211 747 c 1,13,14
 211 722 211 722 205 694 c 128,-1,15
 199 666 199 666 198 667 c 1,16,17
 194 476 194 476 193 383 c 1,18,-1
 279 410 l 1,19,20
 294 381 294 381 298 354 c 1,21,22
 256 334 256 334 192 313 c 0,23,24
 192 312 192 312 189 68 c 1,25,-1
 273 60 l 1,26,27
 273 32 273 32 256 0 c 1,28,-1
 26 0 l 1,29,-1
 23 35 l 1,30,31
 69 51 69 51 113 59 c 1,32,33
 111 209 111 209 109 286 c 1,34,-1
 27 261 l 1,0,1
EndSplineSet
EndChar

StartChar: Nacute
Encoding: 323 323 221
Width: 785
GlyphClass: 2
Flags: W
LayerCount: 2
Fore
SplineSet
344 814 m 1,0,-1
 484 928 l 1,1,2
 523 898 523 898 526 867 c 1,3,4
 502 844 502 844 466.5 820.5 c 128,-1,5
 431 797 431 797 384 773 c 1,6,7
 366 786 366 786 344 814 c 1,0,-1
670 0 m 1,8,-1
 573 0 l 1,9,-1
 218 576 l 1,10,11
 217 479 217 479 213 301.5 c 128,-1,12
 209 124 209 124 208 68 c 1,13,14
 253 66 253 66 292 60 c 1,15,16
 292 32 292 32 275 0 c 1,17,-1
 45 0 l 1,18,-1
 42 35 l 1,19,20
 96 53 96 53 134 59 c 1,21,22
 132 124 132 124 127.5 327 c 128,-1,23
 123 530 123 530 120 641 c 1,24,25
 78 647 78 647 30 665 c 1,26,27
 30 680 30 680 33 700 c 1,28,-1
 231 700 l 1,29,-1
 596 117 l 1,30,-1
 579 641 l 1,31,32
 535 649 535 649 490 665 c 1,33,-1
 493 700 l 1,34,-1
 743 700 l 1,35,36
 760 668 760 668 760 640 c 1,37,-1
 680 636 l 1,38,-1
 670 0 l 1,8,-1
EndSplineSet
EndChar

StartChar: Eng
Encoding: 330 330 223
Width: 790
GlyphClass: 2
Flags: W
LayerCount: 2
Fore
SplineSet
218 576 m 1,0,-1
 208 68 l 1,1,-1
 292 60 l 1,2,3
 292 32 292 32 275 0 c 1,4,-1
 45 0 l 1,5,-1
 42 35 l 1,6,7
 96 53 96 53 134 59 c 1,8,9
 132 124 132 124 127.5 327 c 128,-1,10
 123 530 123 530 120 641 c 1,11,12
 82 647 82 647 30 665 c 1,13,-1
 33 700 l 1,14,-1
 231 700 l 1,15,-1
 596 117 l 1,16,-1
 579 641 l 1,17,18
 542 648 542 648 490 665 c 1,19,-1
 493 700 l 1,20,-1
 743 700 l 1,21,22
 760 668 760 668 760 640 c 1,23,24
 710 636 710 636 680 636 c 1,25,-1
 669 -20 l 2,26,27
 667 -133 667 -133 631 -187 c 128,-1,28
 595 -241 595 -241 497 -241 c 0,29,30
 465 -241 465 -241 418.5 -228 c 128,-1,31
 372 -215 372 -215 355 -204 c 1,32,33
 360 -114 360 -114 374 -72 c 1,34,35
 387 -67 387 -67 432 -67 c 1,36,-1
 457 -177 l 1,37,38
 472 -182 472 -182 499 -182 c 128,-1,39
 526 -182 526 -182 539.5 -175.5 c 128,-1,40
 553 -169 553 -169 561 -154 c 128,-1,41
 569 -139 569 -139 574 -126 c 128,-1,42
 579 -113 579 -113 581 -90 c 0,43,44
 584 -54 584 -54 584 -13 c 1,45,-1
 218 576 l 1,0,-1
EndSplineSet
EndChar

StartChar: eng
Encoding: 331 331 224
Width: 599
GlyphClass: 2
Flags: W
LayerCount: 2
Fore
SplineSet
348 520 m 0,0,1
 444 520 444 520 487 472.5 c 128,-1,2
 530 425 530 425 530 328 c 0,3,4
 530 189 530 189 524.5 56 c 128,-1,5
 519 -77 519 -77 511.5 -114 c 128,-1,6
 504 -151 504 -151 486 -182 c 0,7,8
 452 -241 452 -241 350 -241 c 0,9,10
 318 -241 318 -241 271.5 -228 c 128,-1,11
 225 -215 225 -215 208 -204 c 1,12,13
 213 -116 213 -116 227 -73 c 1,14,15
 257 -68 257 -68 285 -68 c 1,16,-1
 310 -177 l 1,17,18
 325 -182 325 -182 360 -182 c 0,19,20
 447 -182 447 -182 447 -39 c 0,21,22
 447 91 447 91 442 213.5 c 128,-1,23
 437 336 437 336 434 358 c 128,-1,24
 431 380 431 380 421 402 c 128,-1,25
 411 424 411 424 391 433 c 128,-1,26
 371 442 371 442 338 442 c 0,27,28
 272 442 272 442 210 410 c 1,29,30
 208 345 208 345 205.5 225.5 c 128,-1,31
 203 106 203 106 202 68 c 1,32,-1
 286 60 l 1,33,34
 286 32 286 32 269 0 c 1,35,-1
 39 0 l 1,36,-1
 36 35 l 1,37,38
 82 51 82 51 126 59 c 1,39,40
 120 313 120 313 116 435 c 1,41,42
 61 438 61 438 28 447 c 1,43,-1
 32 499 l 1,44,45
 86 514 86 514 189 514 c 1,46,47
 201 496 201 496 207 462 c 1,48,49
 250 485 250 485 293.5 502.5 c 128,-1,50
 337 520 337 520 348 520 c 0,0,1
EndSplineSet
EndChar

StartChar: omacron
Encoding: 333 333 226
Width: 538
GlyphClass: 2
Flags: W
LayerCount: 2
Fore
SplineSet
380.5 100.5 m 128,-1,1
 410 153 410 153 410 250 c 0,2,3
 410 404 410 404 342 443 c 0,4,5
 314 459 314 459 263.5 459 c 128,-1,6
 213 459 213 459 168 438 c 1,7,8
 128 361 128 361 128 259 c 0,9,10
 128 161 128 161 154 108 c 0,11,12
 184 48 184 48 267.5 48 c 128,-1,0
 351 48 351 48 380.5 100.5 c 128,-1,1
94 448.5 m 128,-1,14
 152 520 152 520 273 520 c 128,-1,15
 394 520 394 520 448 454.5 c 128,-1,16
 502 389 502 389 502 261 c 128,-1,17
 502 133 502 133 444.5 60 c 128,-1,18
 387 -13 387 -13 270 -13 c 128,-1,19
 153 -13 153 -13 94.5 55 c 128,-1,20
 36 123 36 123 36 250 c 128,-1,13
 36 377 36 377 94 448.5 c 128,-1,14
379 700 m 1,21,22
 381 684 381 684 381 674 c 2,23,-1
 379 639 l 1,24,25
 327 634 327 634 281 634 c 1,26,-1
 160 639 l 1,27,28
 158 653 158 653 158 665 c 2,29,-1
 160 700 l 1,30,31
 212 705 212 705 258 705 c 1,32,-1
 379 700 l 1,21,22
EndSplineSet
EndChar

StartChar: obreve
Encoding: 335 335 228
Width: 538
GlyphClass: 2
Flags: W
LayerCount: 2
Fore
SplineSet
400 737 m 1,0,1
 400 681 400 681 363 638 c 128,-1,2
 326 595 326 595 263.5 595 c 128,-1,3
 201 595 201 595 165.5 638 c 128,-1,4
 130 681 130 681 130 737 c 1,5,-1
 182 739 l 1,6,7
 182 707 182 707 202 682.5 c 128,-1,8
 222 658 222 658 264 658 c 0,9,10
 337 658 337 658 337 737 c 1,11,-1
 400 737 l 1,0,1
380.5 100.5 m 128,-1,13
 410 153 410 153 410 250 c 0,14,15
 410 404 410 404 342 443 c 0,16,17
 314 459 314 459 263.5 459 c 128,-1,18
 213 459 213 459 168 438 c 1,19,20
 128 361 128 361 128 259 c 0,21,22
 128 161 128 161 154 108 c 0,23,24
 184 48 184 48 267.5 48 c 128,-1,12
 351 48 351 48 380.5 100.5 c 128,-1,13
94 448.5 m 128,-1,26
 152 520 152 520 273 520 c 128,-1,27
 394 520 394 520 448 454.5 c 128,-1,28
 502 389 502 389 502 261 c 128,-1,29
 502 133 502 133 444.5 60 c 128,-1,30
 387 -13 387 -13 270 -13 c 128,-1,31
 153 -13 153 -13 94.5 55 c 128,-1,32
 36 123 36 123 36 250 c 128,-1,25
 36 377 36 377 94 448.5 c 128,-1,26
EndSplineSet
EndChar

StartChar: OE
Encoding: 338 338 229
Width: 888
GlyphClass: 2
Flags: W
LayerCount: 2
Fore
SplineSet
412 620 m 1,0,1
 375 634 375 634 327 634 c 128,-1,2
 279 634 279 634 241 627 c 128,-1,3
 203 620 203 620 173 606 c 1,4,5
 167 596 167 596 158 576.5 c 128,-1,6
 149 557 149 557 134.5 489 c 128,-1,7
 120 421 120 421 120 344 c 0,8,9
 120 200 120 200 172 133 c 128,-1,10
 224 66 224 66 326 66 c 0,11,12
 379 66 379 66 422 86 c 1,13,-1
 412 620 l 1,0,1
810 699 m 1,14,15
 812 686 812 686 812 660 c 0,16,17
 812 605 812 605 798 541 c 1,18,19
 776 536 776 536 740 536 c 1,20,-1
 716 631 l 1,21,-1
 511 631 l 1,22,23
 507 472 507 472 506 390 c 1,24,-1
 664 390 l 1,25,-1
 672 462 l 1,26,27
 700 462 700 462 732 445 c 1,28,-1
 732 255 l 1,29,-1
 697 252 l 1,30,31
 682 295 682 295 677 324 c 1,32,-1
 506 324 l 1,33,34
 504 237 504 237 502 67 c 1,35,-1
 731 67 l 1,36,-1
 755 161 l 1,37,-1
 813 156 l 1,38,39
 827 100 827 100 827 56.5 c 128,-1,40
 827 13 827 13 825 0 c 1,41,-1
 423 0 l 1,42,43
 384 -4 384 -4 326 -4 c 0,44,45
 174 -4 174 -4 97 79 c 128,-1,46
 20 162 20 162 20 339.5 c 128,-1,47
 20 517 20 517 91 609.5 c 128,-1,48
 162 702 162 702 320 702 c 0,49,50
 382 702 382 702 430 699 c 1,51,-1
 810 699 l 1,14,15
EndSplineSet
EndChar

StartChar: oe
Encoding: 339 339 230
Width: 884
GlyphClass: 2
Flags: W
LayerCount: 2
Fore
SplineSet
662 56 m 0,0,1
 706 56 706 56 800 98 c 1,2,3
 819 72 819 72 820 52 c 1,4,5
 769 22 769 22 720 5 c 128,-1,6
 671 -12 671 -12 650 -12 c 0,7,8
 518 -12 518 -12 457 77 c 1,9,10
 400 -13 400 -13 272 -13 c 0,11,12
 36 -13 36 -13 36 249 c 0,13,14
 36 377 36 377 94 448.5 c 128,-1,15
 152 520 152 520 280 520 c 128,-1,16
 408 520 408 520 461 436 c 1,17,18
 522 520 522 520 650 520 c 0,19,20
 743 520 743 520 790.5 453.5 c 128,-1,21
 838 387 838 387 838 276 c 1,22,23
 831 263 831 263 826 258 c 1,24,-1
 504 263 l 1,25,26
 505 162 505 162 539.5 109 c 128,-1,27
 574 56 574 56 662 56 c 0,0,1
380.5 100.5 m 128,-1,29
 410 153 410 153 410 250 c 0,30,31
 410 404 410 404 342 443 c 0,32,33
 314 459 314 459 263.5 459 c 128,-1,34
 213 459 213 459 168 438 c 1,35,36
 128 361 128 361 128 259 c 0,37,38
 128 161 128 161 154 108 c 0,39,40
 184 48 184 48 267.5 48 c 128,-1,28
 351 48 351 48 380.5 100.5 c 128,-1,29
724 422.5 m 128,-1,42
 700 459 700 459 644 459 c 128,-1,43
 588 459 588 459 544 438 c 1,44,45
 514 378 514 378 506 315 c 1,46,47
 585 316 585 316 748 320 c 1,48,41
 748 386 748 386 724 422.5 c 128,-1,42
EndSplineSet
EndChar

StartChar: Racute
Encoding: 340 340 231
Width: 656
GlyphClass: 2
Flags: W
LayerCount: 2
Fore
SplineSet
256 814 m 1,0,-1
 396 928 l 1,1,2
 435 898 435 898 438 867 c 1,3,4
 414 844 414 844 378.5 820.5 c 128,-1,5
 343 797 343 797 296 773 c 1,6,7
 278 786 278 786 256 814 c 1,0,-1
384 620 m 0,8,9
 352 630 352 630 299 630 c 2,10,-1
 216 630 l 1,11,-1
 213 378 l 1,12,-1
 289 379 l 2,13,14
 363 380 363 380 407 409 c 128,-1,15
 451 438 451 438 451 519.5 c 128,-1,16
 451 601 451 601 384 620 c 0,8,9
212 314 m 1,17,-1
 209 67 l 1,18,-1
 292 60 l 1,19,20
 292 32 292 32 275 0 c 1,21,-1
 45 0 l 1,22,-1
 42 35 l 1,23,24
 84 50 84 50 128 58 c 1,25,26
 122 438 122 438 118 638 c 1,27,28
 90 642 90 642 30 662 c 1,29,30
 30 675 30 675 35 700 c 1,31,-1
 260 700 l 2,32,33
 443 700 443 700 498 655 c 0,34,35
 552 612 552 612 552 520 c 0,36,37
 552 365 552 365 382 319 c 1,38,-1
 553 66 l 1,39,-1
 636 59 l 1,40,41
 636 32 636 32 619 0 c 1,42,-1
 496 0 l 1,43,-1
 286 314 l 1,44,-1
 212 314 l 1,17,-1
EndSplineSet
EndChar

StartChar: racute
Encoding: 341 341 232
Width: 449
GlyphClass: 2
Flags: W
LayerCount: 2
Fore
SplineSet
321 441 m 128,-1,1
 304 441 304 441 270.5 429 c 128,-1,2
 237 417 237 417 210 401 c 1,3,4
 204 179 204 179 202 68 c 1,5,-1
 286 60 l 1,6,7
 286 32 286 32 269 0 c 1,8,-1
 39 0 l 1,9,-1
 36 35 l 1,10,11
 82 51 82 51 126 59 c 1,12,13
 120 313 120 313 116 435 c 1,14,15
 61 438 61 438 28 447 c 1,16,-1
 32 499 l 1,17,18
 85 514 85 514 189 514 c 1,19,20
 205 489 205 489 209 450 c 1,21,22
 324 520 324 520 346 520 c 128,-1,23
 368 520 368 520 397 511.5 c 128,-1,24
 426 503 426 503 440 493 c 1,25,26
 440 393 440 393 421 330 c 1,27,28
 407 326 407 326 388.5 326 c 128,-1,29
 370 326 370 326 363 327 c 1,30,-1
 343 436 l 1,31,0
 338 441 338 441 321 441 c 128,-1,1
133 622 m 1,32,-1
 273 736 l 1,33,34
 312 706 312 706 315 675 c 1,35,36
 291 652 291 652 255.5 628.5 c 128,-1,37
 220 605 220 605 173 581 c 1,38,39
 155 594 155 594 133 622 c 1,32,-1
EndSplineSet
EndChar

StartChar: Rcommaaccent
Encoding: 342 342 233
Width: 656
GlyphClass: 2
Flags: W
LayerCount: 2
Fore
SplineSet
419 -27 m 1,0,1
 424 -45 424 -45 424 -82 c 128,-1,2
 424 -119 424 -119 396.5 -160 c 128,-1,3
 369 -201 369 -201 346 -215 c 1,4,5
 332 -209 332 -209 320 -197 c 1,6,7
 329 -172 329 -172 382 -110 c 1,8,9
 354 -110 354 -110 343 -108 c 1,10,11
 339 -95 339 -95 339 -67.5 c 128,-1,12
 339 -40 339 -40 340 -29 c 1,13,14
 362 -25 362 -25 379.5 -25 c 128,-1,15
 397 -25 397 -25 419 -27 c 1,0,1
384 620 m 0,16,17
 352 630 352 630 299 630 c 2,18,-1
 216 630 l 1,19,-1
 213 378 l 1,20,-1
 289 379 l 2,21,22
 363 380 363 380 407 409 c 128,-1,23
 451 438 451 438 451 519.5 c 128,-1,24
 451 601 451 601 384 620 c 0,16,17
212 314 m 1,25,-1
 209 67 l 1,26,-1
 292 60 l 1,27,28
 292 32 292 32 275 0 c 1,29,-1
 45 0 l 1,30,-1
 42 35 l 1,31,32
 84 50 84 50 128 58 c 1,33,34
 122 438 122 438 118 638 c 1,35,36
 90 642 90 642 30 662 c 1,37,38
 30 675 30 675 35 700 c 1,39,-1
 260 700 l 2,40,41
 443 700 443 700 498 655 c 0,42,43
 552 612 552 612 552 520 c 0,44,45
 552 365 552 365 382 319 c 1,46,-1
 553 66 l 1,47,-1
 636 59 l 1,48,49
 636 32 636 32 619 0 c 1,50,-1
 496 0 l 1,51,-1
 286 314 l 1,52,-1
 212 314 l 1,25,-1
EndSplineSet
EndChar

StartChar: rcommaaccent
Encoding: 343 343 234
Width: 449
GlyphClass: 2
Flags: W
LayerCount: 2
Fore
SplineSet
208 -27 m 1,0,1
 213 -45 213 -45 213 -82 c 128,-1,2
 213 -119 213 -119 185.5 -160 c 128,-1,3
 158 -201 158 -201 135 -215 c 1,4,5
 121 -209 121 -209 109 -197 c 1,6,7
 118 -172 118 -172 171 -110 c 1,8,9
 143 -110 143 -110 132 -108 c 1,10,11
 128 -95 128 -95 128 -67.5 c 128,-1,12
 128 -40 128 -40 129 -29 c 1,13,14
 151 -25 151 -25 168.5 -25 c 128,-1,15
 186 -25 186 -25 208 -27 c 1,0,1
321 441 m 128,-1,17
 304 441 304 441 270.5 429 c 128,-1,18
 237 417 237 417 210 401 c 1,19,20
 204 179 204 179 202 68 c 1,21,-1
 286 60 l 1,22,23
 286 32 286 32 269 0 c 1,24,-1
 39 0 l 1,25,-1
 36 35 l 1,26,27
 82 51 82 51 126 59 c 1,28,29
 120 313 120 313 116 435 c 1,30,31
 61 438 61 438 28 447 c 1,32,-1
 32 499 l 1,33,34
 85 514 85 514 189 514 c 1,35,36
 205 489 205 489 209 450 c 1,37,38
 324 520 324 520 346 520 c 128,-1,39
 368 520 368 520 397 511.5 c 128,-1,40
 426 503 426 503 440 493 c 1,41,42
 440 393 440 393 421 330 c 1,43,44
 407 326 407 326 388.5 326 c 128,-1,45
 370 326 370 326 363 327 c 1,46,-1
 343 436 l 1,47,16
 338 441 338 441 321 441 c 128,-1,17
EndSplineSet
EndChar

StartChar: rcaron
Encoding: 345 345 236
Width: 449
GlyphClass: 2
Flags: W
LayerCount: 2
Fore
SplineSet
321 441 m 128,-1,1
 304 441 304 441 270.5 429 c 128,-1,2
 237 417 237 417 210 401 c 1,3,4
 204 179 204 179 202 68 c 1,5,-1
 286 60 l 1,6,7
 286 32 286 32 269 0 c 1,8,-1
 39 0 l 1,9,-1
 36 35 l 1,10,11
 82 51 82 51 126 59 c 1,12,13
 120 313 120 313 116 435 c 1,14,15
 61 438 61 438 28 447 c 1,16,-1
 32 499 l 1,17,18
 85 514 85 514 189 514 c 1,19,20
 205 489 205 489 209 450 c 1,21,22
 324 520 324 520 346 520 c 128,-1,23
 368 520 368 520 397 511.5 c 128,-1,24
 426 503 426 503 440 493 c 1,25,26
 440 393 440 393 421 330 c 1,27,28
 407 326 407 326 388.5 326 c 128,-1,29
 370 326 370 326 363 327 c 1,30,-1
 343 436 l 1,31,0
 338 441 338 441 321 441 c 128,-1,1
366 700 m 1,32,-1
 225 586 l 1,33,-1
 84 700 l 1,34,35
 90 709 90 709 117 736 c 1,36,37
 118 735 118 735 132.5 728.5 c 128,-1,38
 147 722 147 722 160 715 c 0,39,40
 199 694 199 694 225 670 c 1,41,42
 260 703 260 703 318 728 c 0,43,44
 332 735 332 735 333 736 c 1,45,46
 357 714 357 714 366 700 c 1,32,-1
EndSplineSet
EndChar

StartChar: Scaron
Encoding: 352 352 237
Width: 574
GlyphClass: 2
Flags: W
LayerCount: 2
Fore
SplineSet
436 892 m 1,0,-1
 295 778 l 1,1,-1
 154 892 l 1,2,3
 164 906 164 906 187 928 c 1,4,5
 188 927 188 927 202.5 920.5 c 128,-1,6
 217 914 217 914 230 907 c 0,7,8
 269 886 269 886 295 862 c 1,9,10
 330 895 330 895 388 920 c 0,11,12
 402 927 402 927 403 928 c 1,13,14
 427 906 427 906 436 892 c 1,0,-1
276 67 m 0,15,16
 425 67 425 67 425 188 c 0,17,18
 425 247 425 247 352 288 c 0,19,20
 319 307 319 307 279.5 324 c 128,-1,21
 240 341 240 341 200 361 c 128,-1,22
 160 381 160 381 127.5 404 c 128,-1,23
 95 427 95 427 74.5 462 c 128,-1,24
 54 497 54 497 54 541 c 0,25,26
 54 613 54 613 112.5 663.5 c 128,-1,27
 171 714 171 714 273 714 c 128,-1,28
 375 714 375 714 488 652 c 1,29,30
 488 595 488 595 474 509 c 1,31,32
 452 506 452 506 416 506 c 1,33,-1
 386 622 l 1,34,35
 374 628 374 628 338.5 634 c 128,-1,36
 303 640 303 640 276 640 c 0,37,38
 218 640 218 640 186 615.5 c 128,-1,39
 154 591 154 591 154 547.5 c 128,-1,40
 154 504 154 504 191.5 469.5 c 128,-1,41
 229 435 229 435 282.5 410.5 c 128,-1,42
 336 386 336 386 389.5 360 c 128,-1,43
 443 334 443 334 480.5 292.5 c 128,-1,44
 518 251 518 251 518 196 c 0,45,46
 518 96 518 96 451 41.5 c 128,-1,47
 384 -13 384 -13 276 -13 c 0,48,49
 217 -13 217 -13 148.5 5.5 c 128,-1,50
 80 24 80 24 35 53 c 1,51,52
 37 120 37 120 50 208 c 1,53,54
 72 211 72 211 108 211 c 1,55,-1
 129 91 l 1,56,57
 151 82 151 82 195.5 74.5 c 128,-1,58
 240 67 240 67 276 67 c 0,15,16
EndSplineSet
EndChar

StartChar: scaron
Encoding: 353 353 238
Width: 452
GlyphClass: 2
Flags: W
LayerCount: 2
Fore
SplineSet
368 700 m 1,0,-1
 227 586 l 1,1,-1
 86 700 l 1,2,3
 96 714 96 714 119 736 c 1,4,5
 120 735 120 735 134.5 728.5 c 128,-1,6
 149 722 149 722 162 715 c 0,7,8
 201 694 201 694 227 670 c 1,9,10
 262 703 262 703 320 728 c 0,11,12
 334 735 334 735 335 736 c 1,13,14
 359 714 359 714 368 700 c 1,0,-1
119 64 m 1,15,16
 154 49 154 49 204.5 49 c 128,-1,17
 255 49 255 49 284 68 c 128,-1,18
 313 87 313 87 313 120 c 128,-1,19
 313 153 313 153 286 175 c 128,-1,20
 259 197 259 197 220 214 c 128,-1,21
 181 231 181 231 142 250 c 128,-1,22
 103 269 103 269 76 300 c 128,-1,23
 49 331 49 331 49 372 c 0,24,25
 49 441 49 441 95 480.5 c 128,-1,26
 141 520 141 520 222.5 520 c 128,-1,27
 304 520 304 520 376 483 c 1,28,29
 377 473 377 473 377 429.5 c 128,-1,30
 377 386 377 386 368 355 c 1,31,32
 344 347 344 347 311 347 c 1,33,-1
 278 449 l 1,34,35
 256 460 256 460 218.5 460 c 128,-1,36
 181 460 181 460 159 440.5 c 128,-1,37
 137 421 137 421 137 391.5 c 128,-1,38
 137 362 137 362 164.5 340 c 128,-1,39
 192 318 192 318 231 300.5 c 128,-1,40
 270 283 270 283 309 263.5 c 128,-1,41
 348 244 348 244 375.5 212.5 c 128,-1,42
 403 181 403 181 403 140 c 0,43,44
 403 68 403 68 347.5 27.5 c 128,-1,45
 292 -13 292 -13 211 -13 c 0,46,47
 167 -13 167 -13 117 1.5 c 128,-1,48
 67 16 67 16 33 39 c 1,49,50
 33 106 33 106 45 158 c 1,51,52
 68 162 68 162 107 162 c 1,53,-1
 119 64 l 1,15,16
EndSplineSet
EndChar

StartChar: Umacron
Encoding: 362 362 239
Width: 754
GlyphClass: 2
Flags: W
LayerCount: 2
Fore
SplineSet
730 641 m 1,0,1
 667 641 667 641 649 640 c 1,2,3
 647 560 647 560 644.5 413.5 c 128,-1,4
 642 267 642 267 641 221 c 0,5,6
 638 107 638 107 571 47.5 c 128,-1,7
 504 -12 504 -12 388 -12 c 0,8,9
 331 -12 331 -12 289 -3 c 128,-1,10
 247 6 247 6 208 30 c 0,11,12
 127 78 127 78 125 220 c 0,13,14
 122 364 122 364 114 641 c 1,15,16
 70 649 70 649 24 665 c 1,17,-1
 27 700 l 1,18,-1
 278 700 l 1,19,20
 295 668 295 668 295 640 c 1,21,22
 295 640 295 640 212 636 c 1,23,24
 210 520 210 520 210 288 c 0,25,26
 210 163 210 163 256.5 114 c 128,-1,27
 303 65 303 65 389 65 c 0,28,29
 426 65 426 65 453.5 73 c 128,-1,30
 481 81 481 81 508 104 c 0,31,32
 562 150 562 150 562 290 c 0,33,34
 562 291 562 291 553 636 c 1,35,36
 475 659 475 659 463 665 c 1,37,-1
 466 700 l 1,38,-1
 714 700 l 1,39,40
 730 659 730 659 730 641 c 1,0,1
496 892 m 1,41,42
 498 876 498 876 498 866 c 2,43,-1
 496 831 l 1,44,45
 444 826 444 826 398 826 c 1,46,-1
 277 831 l 1,47,48
 275 845 275 845 275 857 c 2,49,-1
 277 892 l 1,50,51
 329 897 329 897 375 897 c 1,52,-1
 496 892 l 1,41,42
EndSplineSet
EndChar

